<svg width="33" height="33" viewBox="0 0 33 33" fill="none" xmlns="http://www.w3.org/2000/svg">
<rect x="9" y="15" width="3" height="3" rx="1.5" fill="#DC2E38"/>
<rect x="21" y="15" width="3" height="3" rx="1.5" fill="#DC2E38"/>
<path fill-rule="evenodd" clip-rule="evenodd" d="M12 20.7439C11.5308 20.9098 11.026 21 10.5 21C9.97405 21 9.46917 20.9098 9 20.7439C7.25221 20.1262 6 18.4593 6 16.5C6 14.0147 8.01472 12 10.5 12C12.9853 12 15 14.0147 15 16.5L15 25.5C15 26.3284 14.3284 27 13.5 27C12.6716 27 12 26.3284 12 25.5V20.7439ZM9 23.85C5.57664 23.1551 3 20.1284 3 16.5C3 12.3579 6.35786 9 10.5 9C14.6421 9 18 12.3579 18 16.5L18 25.5C18 27.9853 15.9853 30 13.5 30C11.0147 30 9 27.9853 9 25.5V23.85Z" fill="#DC2E38"/>
<path fill-rule="evenodd" clip-rule="evenodd" d="M24 12.2561C23.5308 12.0902 23.026 12 22.5 12C21.974 12 21.4692 12.0902 21 12.2561C19.2522 12.8738 18 14.5407 18 16.5C18 18.9853 20.0147 21 22.5 21C24.9853 21 27 18.9853 27 16.5L27 7.5C27 6.67157 26.3284 6 25.5 6C24.6716 6 24 6.67157 24 7.5V12.2561ZM21 9.15003C17.5766 9.84493 15 12.8716 15 16.5C15 20.6421 18.3579 24 22.5 24C26.6421 24 30 20.6421 30 16.5L30 7.5C30 5.01472 27.9853 3 25.5 3C23.0147 3 21 5.01472 21 7.5V9.15003Z" fill="#DC2E38"/>
<path fill-rule="evenodd" clip-rule="evenodd" d="M27 16.5C27 18.9853 24.9853 21 22.5 21C20.0147 21 18 18.9853 18 16.5C18 14.0147 20.0147 12 22.5 12C23.026 12 23.5308 12.0902 24 12.2561V7.5C24 6.67157 24.6716 6 25.5 6C26.3284 6 27 6.67157 27 7.5L27 16.5ZM21 16.5C21 17.3284 21.6716 18 22.5 18C23.3284 18 24 17.3284 24 16.5C24 15.6716 23.3284 15 22.5 15C21.6716 15 21 15.6716 21 16.5Z" fill="white"/>
<path fill-rule="evenodd" clip-rule="evenodd" d="M15 16.5C15 14.0147 12.9853 12 10.5 12C8.01472 12 6 14.0147 6 16.5C6 18.9853 8.01472 21 10.5 21C11.026 21 11.5308 20.9098 12 20.7439V25.5C12 26.3284 12.6716 27 13.5 27C14.3284 27 15 26.3284 15 25.5L15 16.5ZM9 16.5C9 15.6716 9.67157 15 10.5 15C11.3284 15 12 15.6716 12 16.5C12 17.3284 11.3284 18 10.5 18C9.67157 18 9 17.3284 9 16.5Z" fill="white"/>
</svg>
