<svg xmlns="http://www.w3.org/2000/svg" width="160" height="136" fill="none" viewBox="0 0 160 136">
    <path fill="#94A4B4" d="M107.505 92.989c-1.849 0-3.634-.303-5.355-.909-1.69-.637-3.22-1.673-4.59-3.108l3.681-4.064c1.817 1.913 4.016 2.87 6.598 2.87 1.212 0 2.056-.144 2.535-.431.478-.319.717-.893.717-1.721 0-.351-.128-.654-.383-.909-.223-.287-.717-.542-1.482-.765-.733-.255-1.849-.526-3.347-.813-2.327-.446-4.128-1.211-5.403-2.295-1.243-1.084-1.865-2.71-1.865-4.877 0-1.434.383-2.677 1.148-3.73.765-1.083 1.801-1.912 3.108-2.486 1.339-.605 2.837-.908 4.494-.908 3.634 0 6.567 1.02 8.798 3.06l-3.299 4.303a6.819 6.819 0 0 0-2.582-1.578 7.896 7.896 0 0 0-2.821-.526c-1.052 0-1.769.176-2.152.526-.382.32-.573.702-.573 1.148 0 .319.095.606.286.86.192.255.606.51 1.244.766.637.223 1.625.494 2.964.812 2.646.606 4.638 1.53 5.977 2.773 1.37 1.212 2.056 2.838 2.056 4.878 0 2.39-.925 4.175-2.773 5.355-1.817 1.18-4.144 1.769-6.981 1.769z"/>
    <path fill="#94A4B4" d="M78.347 92.51V68.89h6.024v10.136L92.17 68.89h7.172l-8.803 10.95 8.846 12.67H92.26l-7.89-11.715V92.51h-6.024zM66.54 93.037c-2.136 0-4.064-.495-5.786-1.483-1.69-.988-3.028-2.39-4.016-4.207-.956-1.817-1.434-3.937-1.434-6.36 0-2.454.478-4.574 1.434-6.359.988-1.817 2.327-3.22 4.016-4.207 1.722-1.02 3.65-1.53 5.786-1.53 2.167 0 4.096.51 5.785 1.53 1.69.988 3.013 2.39 3.969 4.207.988 1.785 1.482 3.905 1.482 6.36 0 2.422-.494 4.542-1.482 6.359-.956 1.817-2.28 3.22-3.969 4.207-1.69.989-3.618 1.483-5.785 1.483zm0-5.451c1.53 0 2.773-.558 3.73-1.674.987-1.147 1.481-2.789 1.481-4.925 0-2.167-.494-3.809-1.482-4.924-.956-1.148-2.2-1.722-3.73-1.722-1.53 0-2.772.574-3.729 1.722-.924 1.115-1.386 2.757-1.386 4.924 0 2.136.462 3.778 1.386 4.925.957 1.116 2.2 1.674 3.73 1.674z"/>
    <path fill="#94A4B4" fill-rule="evenodd" d="M43.236 66.179c2.136 0 3.969-.718 5.499-2.152v7.015c-1.53-1.434-3.363-2.151-5.499-2.151-2.135 0-4.064.462-5.785 1.386-1.69.957-3.028 2.327-4.017 4.112-.956 1.817-1.434 4-1.434 6.55 0 2.583.478 4.766 1.434 6.551.989 1.817 2.327 3.188 4.017 4.112 1.721.956 3.65 1.435 5.785 1.435 2.423 0 4.447-.909 6.073-2.726v2.152h5.45V42.606h-5.45v2.152c-1.626-1.817-3.65-2.725-6.073-2.725-2.135 0-4.064.478-5.785 1.434-1.69.924-3.028 2.295-4.017 4.112-.956 1.785-1.434 3.968-1.434 6.55 0 2.55.478 4.734 1.434 6.551.989 1.785 2.327 3.156 4.017 4.112 1.721.924 3.65 1.387 5.785 1.387zm4.064-7.125c-1.02 1.116-2.295 1.674-3.825 1.674-1.53 0-2.805-.558-3.825-1.674-1.02-1.147-1.53-2.789-1.53-4.925 0-2.167.51-3.809 1.53-4.924 1.02-1.148 2.295-1.722 3.825-1.722 1.53 0 2.805.574 3.825 1.722 1.052 1.115 1.578 2.757 1.578 4.925 0 2.135-.526 3.777-1.578 4.924zm0 16.96c-1.02-1.115-2.295-1.673-3.825-1.673-1.53 0-2.805.558-3.825 1.674-1.02 1.147-1.53 2.79-1.53 4.925 0 2.167.51 3.809 1.53 4.925 1.02 1.147 2.295 1.72 3.825 1.72 1.53 0 2.805-.573 3.825-1.72 1.052-1.116 1.578-2.758 1.578-4.925 0-2.136-.526-3.778-1.578-4.925z" clip-rule="evenodd"/>
    <path fill="#94A4B4" d="M64.248 66.146c-2.39 0-4.35-.765-5.88-2.295-1.499-1.53-2.248-3.793-2.248-6.79V42.574h6.025v13.053c0 1.657.334 2.917 1.003 3.777.67.86 1.547 1.291 2.63 1.291 1.212 0 2.2-.43 2.965-1.29.797-.893 1.195-2.28 1.195-4.16V42.573h6.025V65.62h-5.69v-2.582c-.606.797-1.419 1.514-2.439 2.152-.988.637-2.183.956-3.586.956zM78.422 65.62V42.574h6.025V65.62h-6.025zM96.808 66.146c-2.136 0-4.064-.494-5.786-1.482-1.689-.988-3.028-2.391-4.016-4.208-.956-1.817-1.434-3.937-1.434-6.36 0-2.454.478-4.573 1.434-6.358.988-1.817 2.327-3.22 4.016-4.208 1.722-1.02 3.65-1.53 5.786-1.53 1.944 0 3.698.398 5.259 1.195a9.962 9.962 0 0 1 3.873 3.395l-4.781 3.538c-.861-1.785-2.311-2.677-4.351-2.677-1.53 0-2.773.574-3.73 1.721-.924 1.116-1.386 2.757-1.386 4.925 0 2.136.462 3.777 1.387 4.925.956 1.115 2.199 1.673 3.729 1.673 2.008 0 3.474-.876 4.399-2.63l4.733 3.49a9.962 9.962 0 0 1-3.873 3.396c-1.561.797-3.315 1.195-5.26 1.195zM106.523 65.62V42h6.025v10.136L120.346 42h7.172l-8.803 10.95 8.846 12.67h-7.124l-7.889-11.714V65.62h-6.025z"/>
</svg>
