<svg width="132" height="71" viewBox="0 0 132 71" fill="none" xmlns="http://www.w3.org/2000/svg">
<path d="M104.113 70.2807C101.572 70.2807 99.1176 69.8644 96.7513 69.0318C94.4288 68.1554 92.3254 66.7312 90.4411 64.7593L95.5024 59.1722C98.0002 61.8014 101.024 63.116 104.573 63.116C106.238 63.116 107.4 62.9188 108.057 62.5245C108.714 62.0863 109.043 61.2975 109.043 60.1582C109.043 59.6761 108.868 59.2598 108.517 58.9093C108.21 58.5149 107.531 58.1643 106.479 57.8576C105.472 57.507 103.938 57.1345 101.878 56.7402C98.6794 56.1267 96.2035 55.075 94.4507 53.5851C92.7417 52.0952 91.8872 49.8604 91.8872 46.8806C91.8872 44.9086 92.4131 43.1997 93.4647 41.7536C94.5164 40.2637 95.9406 39.1244 97.7372 38.3356C99.5777 37.503 101.637 37.0867 103.916 37.0867C108.911 37.0867 112.943 38.489 116.01 41.2935L111.475 47.2092C110.423 46.2014 109.24 45.4783 107.925 45.0401C106.655 44.5581 105.362 44.3171 104.047 44.3171C102.601 44.3171 101.615 44.5581 101.09 45.0401C100.564 45.4783 100.301 46.0042 100.301 46.6176C100.301 47.0559 100.432 47.4502 100.695 47.8008C100.958 48.1514 101.528 48.5019 102.404 48.8525C103.281 49.1592 104.639 49.5317 106.479 49.9699C110.117 50.8025 112.855 52.0733 114.696 53.7823C116.58 55.4475 117.522 57.6823 117.522 60.4868C117.522 63.7733 116.251 66.2273 113.71 67.8486C111.212 69.47 108.013 70.2807 104.113 70.2807Z" fill="#E25147"/>
<path d="M64.0291 69.6221V37.1512H72.3111V51.086L83.0316 37.1512H92.8912L80.7904 52.2035L92.9505 69.6221H83.1567L72.3111 53.5181V69.6221H64.0291Z" fill="#E25147"/>
<path d="M47.7977 70.3464C44.8617 70.3464 42.2106 69.6672 39.8443 68.3088C37.5218 66.9503 35.6813 65.0222 34.3229 62.5245C33.0083 60.0267 32.351 57.1126 32.351 53.7823C32.351 50.4081 33.0083 47.4941 34.3229 45.0401C35.6813 42.5424 37.5218 40.6143 39.8443 39.2558C42.2106 37.8536 44.8617 37.1524 47.7977 37.1524C50.7775 37.1524 53.4286 37.8536 55.7511 39.2558C58.0736 40.6143 59.8921 42.5424 61.2067 45.0401C62.5652 47.4941 63.2444 50.4081 63.2444 53.7823C63.2444 57.1126 62.5652 60.0267 61.2067 62.5245C59.8921 65.0222 58.0736 66.9503 55.7511 68.3088C53.4286 69.6672 50.7775 70.3464 47.7977 70.3464ZM47.7977 62.8531C49.9011 62.8531 51.6101 62.0863 52.9247 60.5525C54.2831 58.975 54.9623 56.7183 54.9623 53.7823C54.9623 50.8025 54.2831 48.5458 52.9247 47.012C51.6101 45.4345 49.9011 44.6457 47.7977 44.6457C45.6943 44.6457 43.9853 45.4345 42.6707 47.012C41.3999 48.5458 40.7645 50.8025 40.7645 53.7823C40.7645 56.7183 41.3999 58.975 42.6707 60.5525C43.9853 62.0863 45.6943 62.8531 47.7977 62.8531Z" fill="#E25147"/>
<path fill-rule="evenodd" clip-rule="evenodd" d="M15.7618 33.4241C18.6977 33.4241 21.2174 32.4381 23.3208 30.4662V40.1103C21.2174 38.1384 18.6977 37.1525 15.7618 37.1525C12.8258 37.1525 10.1747 37.7879 7.80836 39.0587C5.48587 40.3733 3.64542 42.2575 2.28698 44.7115C0.97237 47.2093 0.315063 50.211 0.315063 53.7166C0.315063 57.266 0.97237 60.2677 2.28698 62.7217C3.64542 65.2194 5.48587 67.1037 7.80836 68.3745C10.1747 69.6891 12.8258 70.3464 15.7618 70.3464C19.0921 70.3464 21.8747 69.0976 24.1096 66.5998V69.5577H31.6028V1.01885H24.1096V3.97674C21.8747 1.47897 19.0921 0.23009 15.7618 0.23009C12.8258 0.23009 10.1747 0.887395 7.80836 2.20201C5.48587 3.4728 3.64542 5.35708 2.28698 7.85484C0.97237 10.3088 0.315063 13.3105 0.315063 16.8599C0.315063 20.3656 0.97237 23.3673 2.28698 25.865C3.64542 28.319 5.48587 30.2033 7.80836 31.5179C10.1747 32.7887 12.8258 33.4241 15.7618 33.4241ZM21.3488 23.6302C19.9465 25.1639 18.1937 25.9308 16.0903 25.9308C13.987 25.9308 12.2341 25.1639 10.8319 23.6302C9.42964 22.0527 8.72851 19.7959 8.72851 16.8599C8.72851 13.8801 9.42964 11.6234 10.8319 10.0897C12.2341 8.51214 13.987 7.72338 16.0903 7.72338C18.1937 7.72338 19.9465 8.51214 21.3488 10.0897C22.7949 11.6234 23.5179 13.8801 23.5179 16.8599C23.5179 19.7959 22.7949 22.0527 21.3488 23.6302ZM21.3488 46.9463C19.9465 45.4126 18.1937 44.6458 16.0903 44.6458C13.987 44.6458 12.2341 45.4126 10.8319 46.9463C9.42964 48.5239 8.72851 50.7806 8.72851 53.7166C8.72851 56.6964 9.42964 58.9531 10.8319 60.4868C12.2341 62.0644 13.987 62.8531 16.0903 62.8531C18.1937 62.8531 19.9465 62.0644 21.3488 60.4868C22.7949 58.9531 23.5179 56.6964 23.5179 53.7166C23.5179 50.7806 22.7949 48.5239 21.3488 46.9463Z" fill="#E25147"/>
<path d="M44.6475 33.3792C41.3609 33.3792 38.666 32.3275 36.5626 30.2242C34.503 28.1208 33.4732 25.0095 33.4732 20.8904V0.974022H41.7553V18.9185C41.7553 21.1971 42.2154 22.9281 43.1357 24.1112C44.0559 25.2944 45.2609 25.8859 46.7508 25.8859C48.416 25.8859 49.7744 25.2944 50.8261 24.1112C51.9216 22.8842 52.4694 20.978 52.4694 18.3926V0.974022H60.7515V32.6562H52.9295V29.1067C52.0969 30.2023 50.9795 31.1882 49.5773 32.0646C48.2188 32.941 46.5756 33.3792 44.6475 33.3792Z" fill="#E25147"/>
<path d="M64.1325 32.6562V0.974022H72.4145V32.6562H64.1325Z" fill="#E25147"/>
<path d="M89.408 33.3792C86.472 33.3792 83.8209 32.7 81.4546 31.3416C79.1321 29.9831 77.2916 28.055 75.9332 25.5573C74.6186 23.0595 73.9613 20.1455 73.9613 16.8151C73.9613 13.4409 74.6186 10.5269 75.9332 8.07293C77.2916 5.57517 79.1321 3.64707 81.4546 2.28864C83.8209 0.886382 86.472 0.185257 89.408 0.185257C92.081 0.185257 94.4911 0.733013 96.6383 1.82852C98.8294 2.92403 100.604 4.47966 101.963 6.4954L95.3894 11.3595C94.2063 8.90552 92.2125 7.67855 89.408 7.67855C87.3046 7.67855 85.5956 8.46731 84.281 10.0448C83.0102 11.5786 82.3748 13.8353 82.3748 16.8151C82.3748 19.7511 83.0102 22.0078 84.281 23.5854C85.5956 25.1191 87.3046 25.8859 89.408 25.8859C92.1686 25.8859 94.1844 24.6809 95.4552 22.2708L101.963 27.0691C100.604 29.0848 98.8294 30.6405 96.6383 31.736C94.4911 32.8315 92.081 33.3792 89.408 33.3792Z" fill="#E25147"/>
<path d="M102.763 32.6562V0.185274H111.046V14.1201L121.766 0.185274H131.626L119.525 15.2376L131.685 32.6562H121.891L111.046 16.5522V32.6562H102.763Z" fill="#E25147"/>
</svg>
