<svg width="160" height="136" viewBox="0 0 160 136" fill="none" xmlns="http://www.w3.org/2000/svg">
<path d="M118.113 103.281C115.572 103.281 113.118 102.864 110.751 102.032C108.429 101.155 106.325 99.7312 104.441 97.7593L109.502 92.1722C112 94.8014 115.024 96.116 118.573 96.116C120.238 96.116 121.4 95.9188 122.057 95.5245C122.714 95.0863 123.043 94.2975 123.043 93.1582C123.043 92.6761 122.868 92.2598 122.517 91.9093C122.21 91.5149 121.531 91.1643 120.479 90.8576C119.472 90.507 117.938 90.1345 115.878 89.7402C112.679 89.1267 110.204 88.075 108.451 86.5851C106.742 85.0952 105.887 82.8604 105.887 79.8806C105.887 77.9086 106.413 76.1997 107.465 74.7536C108.516 73.2637 109.941 72.1244 111.737 71.3356C113.578 70.503 115.637 70.0867 117.916 70.0867C122.911 70.0867 126.943 71.489 130.01 74.2935L125.475 80.2092C124.423 79.2014 123.24 78.4783 121.925 78.0401C120.655 77.5581 119.362 77.3171 118.047 77.3171C116.601 77.3171 115.615 77.5581 115.09 78.0401C114.564 78.4783 114.301 79.0042 114.301 79.6176C114.301 80.0559 114.432 80.4502 114.695 80.8008C114.958 81.1514 115.528 81.5019 116.404 81.8525C117.281 82.1592 118.639 82.5317 120.479 82.9699C124.117 83.8025 126.855 85.0733 128.696 86.7823C130.58 88.4475 131.522 90.6823 131.522 93.4868C131.522 96.7733 130.251 99.2273 127.71 100.849C125.212 102.47 122.013 103.281 118.113 103.281Z" fill="#DA4136"/>
<path d="M78.0291 102.622V70.1512H86.3111V84.086L97.0316 70.1512H106.891L94.7904 85.2035L106.951 102.622H97.1567L86.3111 86.5181V102.622H78.0291Z" fill="#DA4136"/>
<path d="M61.7977 103.346C58.8617 103.346 56.2106 102.667 53.8443 101.309C51.5218 99.9503 49.6813 98.0222 48.3229 95.5245C47.0083 93.0267 46.351 90.1126 46.351 86.7823C46.351 83.4081 47.0083 80.4941 48.3229 78.0401C49.6813 75.5424 51.5218 73.6143 53.8443 72.2558C56.2106 70.8536 58.8617 70.1524 61.7977 70.1524C64.7775 70.1524 67.4286 70.8536 69.7511 72.2558C72.0736 73.6143 73.8921 75.5424 75.2067 78.0401C76.5652 80.4941 77.2444 83.4081 77.2444 86.7823C77.2444 90.1126 76.5652 93.0267 75.2067 95.5245C73.8921 98.0222 72.0736 99.9503 69.7511 101.309C67.4286 102.667 64.7775 103.346 61.7977 103.346ZM61.7977 95.8531C63.9011 95.8531 65.6101 95.0863 66.9247 93.5525C68.2831 91.975 68.9623 89.7183 68.9623 86.7823C68.9623 83.8025 68.2831 81.5458 66.9247 80.012C65.6101 78.4345 63.9011 77.6457 61.7977 77.6457C59.6943 77.6457 57.9853 78.4345 56.6707 80.012C55.3999 81.5458 54.7645 83.8025 54.7645 86.7823C54.7645 89.7183 55.3999 91.975 56.6707 93.5525C57.9853 95.0863 59.6943 95.8531 61.7977 95.8531Z" fill="#DA4136"/>
<path fill-rule="evenodd" clip-rule="evenodd" d="M29.7618 66.4241C32.6977 66.4241 35.2174 65.4381 37.3208 63.4662V73.1103C35.2174 71.1384 32.6977 70.1525 29.7618 70.1525C26.8258 70.1525 24.1747 70.7879 21.8084 72.0587C19.4859 73.3733 17.6454 75.2575 16.287 77.7115C14.9724 80.2093 14.3151 83.211 14.3151 86.7166C14.3151 90.266 14.9724 93.2677 16.287 95.7217C17.6454 98.2194 19.4859 100.104 21.8084 101.375C24.1747 102.689 26.8258 103.346 29.7618 103.346C33.0921 103.346 35.8747 102.098 38.1096 99.5998V102.558H45.6028V34.0189H38.1096V36.9767C35.8747 34.479 33.0921 33.2301 29.7618 33.2301C26.8258 33.2301 24.1747 33.8874 21.8084 35.202C19.4859 36.4728 17.6454 38.3571 16.287 40.8548C14.9724 43.3088 14.3151 46.3105 14.3151 49.8599C14.3151 53.3656 14.9724 56.3673 16.287 58.865C17.6454 61.319 19.4859 63.2033 21.8084 64.5179C24.1747 65.7887 26.8258 66.4241 29.7618 66.4241ZM35.3488 56.6302C33.9465 58.1639 32.1937 58.9308 30.0903 58.9308C27.987 58.9308 26.2341 58.1639 24.8319 56.6302C23.4296 55.0527 22.7285 52.7959 22.7285 49.8599C22.7285 46.8801 23.4296 44.6234 24.8319 43.0897C26.2341 41.5121 27.987 40.7234 30.0903 40.7234C32.1937 40.7234 33.9465 41.5121 35.3488 43.0897C36.7949 44.6234 37.5179 46.8801 37.5179 49.8599C37.5179 52.7959 36.7949 55.0527 35.3488 56.6302ZM35.3488 79.9463C33.9465 78.4126 32.1937 77.6458 30.0903 77.6458C27.987 77.6458 26.2341 78.4126 24.8319 79.9463C23.4296 81.5239 22.7285 83.7806 22.7285 86.7166C22.7285 89.6964 23.4296 91.9531 24.8319 93.4868C26.2341 95.0644 27.987 95.8531 30.0903 95.8531C32.1937 95.8531 33.9465 95.0644 35.3488 93.4868C36.7949 91.9531 37.5179 89.6964 37.5179 86.7166C37.5179 83.7806 36.7949 81.5239 35.3488 79.9463Z" fill="#DA4136"/>
<path d="M58.6475 66.3792C55.3609 66.3792 52.666 65.3275 50.5626 63.2242C48.503 61.1208 47.4732 58.0095 47.4732 53.8904V33.974H55.7553V51.9185C55.7553 54.1971 56.2154 55.9281 57.1357 57.1112C58.0559 58.2944 59.2609 58.8859 60.7508 58.8859C62.416 58.8859 63.7744 58.2944 64.8261 57.1112C65.9216 55.8842 66.4694 53.978 66.4694 51.3926V33.974H74.7515V65.6562H66.9295V62.1067C66.0969 63.2023 64.9795 64.1882 63.5773 65.0646C62.2188 65.941 60.5756 66.3792 58.6475 66.3792Z" fill="#DA4136"/>
<path d="M78.1325 65.6562V33.974H86.4145V65.6562H78.1325Z" fill="#DA4136"/>
<path d="M103.408 66.3792C100.472 66.3792 97.8209 65.7 95.4546 64.3416C93.1321 62.9831 91.2916 61.055 89.9332 58.5573C88.6186 56.0595 87.9613 53.1455 87.9613 49.8151C87.9613 46.4409 88.6186 43.5269 89.9332 41.0729C91.2916 38.5752 93.1321 36.6471 95.4546 35.2886C97.8209 33.8864 100.472 33.1853 103.408 33.1853C106.081 33.1853 108.491 33.733 110.638 34.8285C112.829 35.924 114.604 37.4797 115.963 39.4954L109.389 44.3595C108.206 41.9055 106.212 40.6785 103.408 40.6785C101.305 40.6785 99.5956 41.4673 98.281 43.0448C97.0102 44.5786 96.3748 46.8353 96.3748 49.8151C96.3748 52.7511 97.0102 55.0078 98.281 56.5854C99.5956 58.1191 101.305 58.8859 103.408 58.8859C106.169 58.8859 108.184 57.6809 109.455 55.2708L115.963 60.0691C114.604 62.0848 112.829 63.6405 110.638 64.736C108.491 65.8315 106.081 66.3792 103.408 66.3792Z" fill="#DA4136"/>
<path d="M116.763 65.6562V33.1853H125.046V47.1201L135.766 33.1853H145.626L133.525 48.2376L145.685 65.6562H135.891L125.046 49.5522V65.6562H116.763Z" fill="#DA4136"/>
</svg>
