<svg width="192" height="96" viewBox="0 0 192 96" fill="none" xmlns="http://www.w3.org/2000/svg">
  <path fill-rule="evenodd" clip-rule="evenodd" d="M24.4686 41.5041C24.3569 41.4919 24.2409 41.4772 24.1201 41.46C23.8463 41.4209 23.5468 41.4106 23.2508 41.419C22.3433 41.4446 21.4689 41.6451 21.4689 41.7251C21.4689 41.7426 21.461 41.8469 21.4484 42.0133C21.4265 42.3023 21.3904 42.7786 21.3569 43.3129C21.3291 43.7546 21.3031 44.2361 21.2882 44.6845C21.2684 45.2807 21.2682 45.8184 21.3098 46.1262C21.3176 46.184 21.326 46.2539 21.335 46.3348C21.3661 46.6174 21.4031 47.0341 21.4391 47.5336C21.4732 48.008 21.5065 48.557 21.5328 49.1369C21.5515 49.5465 21.5667 49.9714 21.5764 50.3963C21.5897 50.9737 21.5927 51.551 21.5804 52.0893C21.5689 52.5954 21.5438 53.067 21.5008 53.472C21.491 53.5633 21.4804 53.6512 21.4689 53.7354C21.3348 54.7107 21.0661 55.4842 20.6603 56.0095C20.5361 56.1703 20.399 56.3078 20.249 56.4208C19.8234 56.7412 19.2938 56.8637 18.6585 56.7578C18.5416 56.7383 18.4263 56.7217 18.3132 56.7054C18.2998 56.7035 18.2865 56.7015 18.2731 56.6996C17.896 56.6451 17.5433 56.5906 17.2298 56.44C16.908 56.2853 16.6276 56.0293 16.4049 55.5678C16.2803 55.3095 16.1738 54.9868 16.0883 54.5815C16.0016 54.1711 15.9365 53.6759 15.8958 53.0769C15.8702 52.7008 15.8543 52.2837 15.8488 51.821C15.8461 51.5953 15.8458 51.3586 15.8482 51.1106C15.8514 50.7622 15.8544 50.4311 15.8571 50.1157C15.861 49.6446 15.8642 49.2088 15.8666 48.8032C15.8704 48.168 15.8721 47.6069 15.8716 47.1011C15.8711 46.626 15.8685 46.1996 15.8636 45.8062C15.856 45.1937 15.8429 44.6613 15.8231 44.1496C15.807 43.7329 15.7865 43.3299 15.7611 42.9087C15.7341 42.4595 15.7015 41.9896 15.6626 41.46H12.3485C11.9295 41.46 11.5088 41.4906 11.138 41.5318C10.6641 41.5843 10.2717 41.654 10.0684 41.6986C10.0743 41.9601 10.0804 42.2577 10.0865 42.5833C10.0938 42.9746 10.101 43.4065 10.1077 43.865C10.1154 44.3955 10.1223 44.9617 10.1277 45.5421C10.1316 45.9686 10.1347 46.4028 10.1366 46.8362C10.1391 47.4096 10.1395 47.9816 10.1372 48.5326C10.1353 48.9891 10.1314 49.4312 10.1252 49.8475C10.1154 50.5095 10.0996 51.1065 10.0762 51.5935C10.075 51.6197 10.0737 51.6455 10.0724 51.6711C10.0711 51.6967 10.0698 51.722 10.0684 51.7469C10.0534 52.0249 10.0381 52.2986 10.0231 52.5681C10.0155 52.7038 10.008 52.8385 10.0006 52.9721C9.96647 53.5897 9.93485 54.1847 9.9117 54.7581C9.89891 55.0745 9.88871 55.3843 9.88208 55.6877C9.87906 55.8256 9.87678 55.9622 9.87534 56.0974C9.86915 56.6754 9.87815 57.2294 9.90962 57.7602C9.93388 58.1693 9.97149 58.5648 10.0258 58.9469C10.039 59.0399 10.0532 59.1321 10.0684 59.2235C10.1305 59.5957 10.1993 59.9859 10.2943 60.3755C10.3756 60.7096 10.4761 61.0433 10.6078 61.3649C10.7643 61.7469 10.9647 62.1119 11.2294 62.4404C11.417 62.6731 11.6369 62.8875 11.8962 63.0765C12.2113 63.3062 12.5846 63.4984 13.0291 63.6407C13.3496 63.7434 13.7072 63.8201 14.1066 63.8662C14.3913 63.899 14.6973 63.9163 15.0263 63.9163C15.2881 63.9163 15.5418 63.9046 15.7872 63.8826C16.3761 63.8297 16.9177 63.7169 17.4118 63.5609C18.4794 63.2239 19.3253 62.6857 19.9474 62.1157C20.4046 61.6968 20.741 61.2608 20.9556 60.875L21.1772 62.1929C21.1835 62.2985 21.1913 62.4235 21.2 62.5581C21.2043 62.6233 21.2087 62.6908 21.2133 62.7594C21.2529 63.3443 21.3051 64.0129 21.3363 64.0753C21.3494 64.1016 21.4309 64.1051 21.5743 64.0955C21.6819 64.0883 21.8243 64.0737 21.9989 64.0558C22.264 64.0286 22.6032 63.9939 23.0069 63.9658C23.4131 63.9376 23.8846 63.9163 24.4118 63.9163H27.0896C27.1246 63.715 27.1756 63.3127 27.2156 62.7571C27.2434 62.3718 27.2659 61.9127 27.274 61.3958C27.2779 61.1523 27.2786 60.8961 27.2751 60.6287C27.2717 60.3592 27.2691 60.0483 27.2669 59.7058C27.2667 59.6815 27.2666 59.657 27.2664 59.6324C27.2649 59.3942 27.2635 59.1414 27.2621 58.8774C27.2613 58.7266 27.2604 58.5717 27.2595 58.4142L27.2595 58.4103C27.2564 57.8764 27.2527 57.3071 27.247 56.7257C27.2429 56.3003 27.2376 55.8684 27.2307 55.4391C27.2217 54.8742 27.2098 54.3139 27.194 53.7787C27.181 53.3396 27.1652 52.9174 27.1461 52.5237C27.1298 52.1888 27.1111 51.8745 27.0896 51.5878C27.0752 51.3971 27.063 51.1724 27.0528 50.9199C27.0379 50.55 27.0272 50.1204 27.0199 49.6499C27.0119 49.1297 27.0082 48.5595 27.0076 47.9651C27.0073 47.539 27.0086 47.1003 27.0112 46.6586C27.0145 46.086 27.0201 45.5081 27.027 44.9457C27.0326 44.4914 27.0391 44.0471 27.0461 43.6237C27.0516 43.2891 27.0575 42.9676 27.0634 42.6645C27.0687 42.3912 27.0742 42.1328 27.0795 41.8932C27.08 41.8694 27.0806 41.8458 27.0811 41.8224C27.0839 41.6958 27.0868 41.5748 27.0896 41.46C26.9205 41.4706 26.755 41.4847 26.5877 41.4989C26.4395 41.5116 26.2899 41.5243 26.1349 41.5349C26.054 41.5404 25.9715 41.5453 25.8871 41.5492C25.481 41.5683 25.0286 41.5656 24.4686 41.5041ZM22.5525 43.4202L23.3558 42.6169C23.5691 42.6135 23.7733 42.6226 23.9504 42.6479C24.3056 42.6987 24.6288 42.7289 24.9251 42.7447L22.4763 45.1935C22.4821 44.7649 22.5049 44.2263 22.5376 43.6676C22.5424 43.5842 22.5474 43.5016 22.5525 43.4202ZM22.5504 46.4223C22.59 46.8236 22.6338 47.3724 22.6729 47.9969L25.8282 44.8416C25.8358 44.2385 25.8449 43.6555 25.8546 43.1181L22.5504 46.4223ZM25.8146 46.1582L22.7383 49.2344C22.7415 49.308 22.7446 49.3819 22.7475 49.4561C22.7657 49.9179 22.7794 50.4017 22.7852 50.8846L25.8077 47.8621C25.8075 47.3058 25.81 46.7311 25.8146 46.1582ZM25.8139 49.1588L22.7782 52.1945C22.762 52.8231 22.7248 53.4106 22.6577 53.8988C22.6516 53.9431 22.6452 53.9872 22.6386 54.0312L25.8484 50.8214C25.8311 50.3395 25.8201 49.7738 25.8139 49.1588ZM25.9186 52.0541L22.1455 55.8273C21.9638 56.2409 21.7341 56.6178 21.4462 56.9404C21.0776 57.3534 20.6407 57.647 20.155 57.8178L15.2601 62.7126C16.0628 62.6875 16.7624 62.5344 17.361 62.3088L25.9906 53.6792C25.9723 53.0933 25.9489 52.5422 25.9186 52.0541ZM26.0221 54.9506L21.8367 59.136L22.0992 60.5706L26.0459 56.6239C26.0403 56.0678 26.0327 55.5033 26.0221 54.9506ZM26.0563 57.9164L22.3008 61.672L22.3751 62.1214C22.3862 62.3081 22.402 62.556 22.4196 62.809C22.5671 62.7958 22.7273 62.7826 22.8994 62.7704L26.0661 59.6037C26.0646 59.3624 26.0632 59.1075 26.0617 58.8422C26.0601 58.5453 26.0584 58.2352 26.0563 57.9164ZM26.0772 60.8955L24.2559 62.7168C24.2034 62.7168 24.3073 62.7165 24.2559 62.7168L25.9535 62.7163L26.0202 62.6496C26.0536 62.1794 26.0794 61.5834 26.0772 60.8955ZM14.0249 62.6449L18.6962 57.9736C18.6184 57.9653 18.5401 57.9546 18.4612 57.9415C18.3954 57.9305 18.3161 57.9206 18.226 57.9092C17.9679 57.8768 17.6213 57.8332 17.2495 57.7233L12.7608 62.2119C13.0716 62.403 13.4788 62.5592 14.0249 62.6449ZM12.0852 61.5846L16.3561 57.3137C16.115 57.1528 15.8842 56.9458 15.6809 56.6778C15.6254 56.6046 15.5729 56.5286 15.5231 56.4496L11.5492 60.4235C11.6786 60.8645 11.8457 61.2544 12.0852 61.5846ZM11.3097 59.3601L15.1102 55.5596C15.006 55.2501 14.9241 54.9123 14.8595 54.547C14.8383 54.4268 14.8186 54.3019 14.8006 54.1721L11.1176 57.8551C11.1461 58.2623 11.1897 58.6519 11.2521 59.0263C11.271 59.1395 11.2901 59.2508 11.3097 59.3601ZM11.0735 56.5963L14.6874 52.9824C14.6582 52.4856 14.6447 51.9354 14.6468 51.326L11.1089 54.8638C11.0846 55.4747 11.0705 56.0506 11.0735 56.5963ZM11.1743 53.4955L14.6579 50.0119C14.6631 49.3822 14.6669 48.8168 14.6692 48.3035L11.2725 51.7003C11.2706 51.7381 11.2687 51.7752 11.2667 51.8117C11.2521 52.0812 11.2375 52.3449 11.2232 52.6031C11.2063 52.9081 11.1898 53.2054 11.1743 53.4955ZM11.3164 50.3534L14.6714 46.9984C14.6703 46.3611 14.6653 45.8142 14.6558 45.3169L11.3367 48.636C11.3337 49.243 11.3273 49.8241 11.3164 50.3534ZM11.3382 47.3316L14.6182 44.0516C14.5991 43.5897 14.5744 43.1415 14.5433 42.66H14.3127L11.3286 45.6441C11.3335 46.2004 11.337 46.769 11.3382 47.3316ZM11.3145 44.3552L13.0098 42.66H12.3485C11.9846 42.66 11.6157 42.6867 11.2892 42.7224C11.2982 43.2159 11.3069 43.7688 11.3145 44.3552Z" fill="#E93535"/>
  <path fill-rule="evenodd" clip-rule="evenodd" d="M35.9979 41.8368C35.9979 41.8368 35.9979 42.666 35.9994 42.7357C36.0126 43.0667 36.1077 43.7327 36.1569 44.0447C36.3299 43.933 36.766 43.674 37.2727 43.3797L37.3089 43.3587C38.0378 42.9356 38.9016 42.4457 39.3385 42.2153C39.6574 42.0471 40.0982 41.9157 40.6103 41.8347C40.9669 41.7783 41.3581 41.7463 41.7668 41.7434C43.454 41.7313 45.4396 42.2139 46.5234 43.5145C47.6104 44.9196 47.3453 51.7864 47.1862 53.006C47.0775 53.8398 47.1159 58.8512 47.1624 62.3042C47.1638 62.4056 47.1652 62.5058 47.1666 62.6044C47.167 62.6374 47.1675 62.6701 47.1679 62.7027C47.1741 63.1376 47.1803 63.5419 47.1862 63.9027C47.0812 63.9027 46.9355 63.9045 46.7588 63.9087L46.6517 63.9115C46.5423 63.9168 46.4312 63.9219 46.3189 63.9271C45.7167 63.9548 45.0714 63.9844 44.3494 64.0618C44.0771 64.091 43.807 64.1096 43.5473 64.1203C43.5238 64.1212 43.5004 64.1221 43.4771 64.123C43.017 64.1395 42.5925 64.1316 42.25 64.1146C41.9649 64.1004 41.7366 64.0799 41.592 64.0618C41.5554 63.8103 41.5342 63.4977 41.5237 63.1439C41.512 62.752 41.5134 62.3096 41.5211 61.8435C41.5286 61.3949 41.5419 60.9243 41.5552 60.456C41.5585 60.3379 41.5619 60.2199 41.5651 60.1025C41.5778 59.6432 41.5889 59.192 41.5928 58.7718C41.595 58.5453 41.595 58.3278 41.592 58.123C41.5866 57.7469 41.5755 57.419 41.5607 57.1068C41.5429 56.7311 41.5196 56.3781 41.4941 55.9912L41.4866 55.878C41.4568 55.4241 41.4244 54.918 41.3944 54.2732C41.3773 53.9054 41.3609 53.4925 41.3462 53.0185C41.3394 52.7983 41.3329 52.5649 41.3269 52.3167C41.3187 51.9787 41.2974 51.6755 41.2642 51.4033C41.2122 50.9769 41.1311 50.6267 41.026 50.3386C40.8502 49.8562 40.6072 49.5478 40.3208 49.3467C40.0367 49.1473 39.71 49.0535 39.3641 49.0005C39.1453 48.967 38.9188 48.9497 38.6905 48.9323L38.5696 48.923C37.2175 48.817 36.21 49.7184 35.8388 51.5743C35.4676 53.4302 35.8653 57.6722 35.9979 58.8388C36.1039 59.772 35.8476 62.6036 35.7062 63.9027C35.433 64.15 35 64.1929 34.4952 64.1724C34.4821 64.1719 34.4691 64.1713 34.456 64.1707C34.2745 64.1623 34.0842 64.1462 33.8891 64.129C33.8646 64.1269 33.8402 64.1247 33.8156 64.1225C33.7946 64.1207 33.7736 64.1188 33.7525 64.1169C33.5985 64.1033 33.4419 64.0899 33.2849 64.0797C33.1197 64.069 32.954 64.0618 32.7898 64.0618C32.4014 64.0618 31.9607 64.0875 31.5452 64.1224C31.4935 64.1267 31.4423 64.1312 31.3915 64.1358C31.3603 64.1386 31.3293 64.1415 31.2986 64.1444C30.837 64.1879 30.4291 64.2394 30.1916 64.2739L30.1915 64.1731C30.1914 63.8438 30.191 63.4707 30.1899 63.0626C30.1894 62.8753 30.1888 62.6806 30.1881 62.4794C30.1867 62.0715 30.1847 61.6369 30.1822 61.1824C30.1792 60.6443 30.1755 60.0784 30.1708 59.4967C30.1674 59.0732 30.1635 58.6414 30.1591 58.2056C30.1534 57.6496 30.1469 57.0873 30.1395 56.5281C30.1337 56.0968 30.1273 55.6675 30.1204 55.2443C30.111 54.6744 30.1005 54.1157 30.0888 53.5787C30.0792 53.1383 30.0687 52.7126 30.0574 52.3072C30.042 51.7549 30.0249 51.2406 30.006 50.7789C30.0045 50.7413 30.003 50.7037 30.0015 50.6661C29.9852 50.2458 29.9736 49.8219 29.966 49.3986C29.956 48.8319 29.9532 48.2662 29.9559 47.7116C29.9582 47.2626 29.9641 46.8209 29.9728 46.3918C29.9853 45.7777 30.0035 45.1895 30.0248 44.6427C30.0441 44.1496 30.0659 43.6903 30.0884 43.2763C30.0951 43.1529 30.1019 43.0335 30.1086 42.9184C30.1374 42.4306 30.1663 42.0206 30.1916 41.7116C30.4139 41.7615 30.8398 41.8217 31.3854 41.8368C31.9024 41.8512 32.527 41.8251 33.1875 41.7116C33.7917 41.6078 34.3413 41.5421 34.7979 41.5019C35.2078 41.4659 35.5428 41.4505 35.7751 41.4465C35.8654 41.4449 35.9402 41.4451 35.9979 41.4465V41.8368ZM31.2844 43.3832C31.256 43.9095 31.2289 44.5092 31.2068 45.1578L33.4866 42.878C33.4548 42.8833 33.4229 42.8887 33.3908 42.8943C32.7608 43.0025 32.1581 43.0413 31.6272 43.0404L31.2844 43.3832ZM34.8032 42.8643L31.171 46.4966C31.1602 47.051 31.1542 47.626 31.155 48.2096L34.9067 44.4579C34.8656 43.966 34.8189 43.2496 34.8032 42.8643ZM34.9031 45.7644L31.1682 49.4994C31.1763 49.911 31.1883 50.3225 31.205 50.7299C31.2105 50.8636 31.2158 51.0016 31.221 51.1437L38.0464 44.3182C37.4833 44.6439 36.6298 45.0449 36.4549 45.1578L34.9031 45.7644ZM40.6154 43.0521L31.2606 52.4069C31.2749 52.9318 31.2877 53.4886 31.2992 54.0654L34.8929 50.4717C35.1378 49.7529 35.5022 49.1253 36.0097 48.6431C36.4612 48.214 36.9892 47.9357 37.5607 47.8039L42.3998 42.9648C41.7112 42.9121 41.0888 42.9598 40.6154 43.0521ZM43.5266 43.1409L38.9226 47.7449C39.3026 47.7721 39.824 47.8221 40.3459 48.0187L44.7574 43.6072C44.3994 43.4087 43.9827 43.2522 43.5266 43.1409ZM45.4995 44.1681L41.1767 48.4909C41.182 48.4952 41.1873 48.4996 41.1925 48.5039C41.4976 48.7575 41.7422 49.0668 41.9344 49.4302L45.901 45.4636C45.8476 45.1241 45.7865 44.8404 45.7202 44.6175C45.6833 44.4935 45.6484 44.4001 45.6182 44.3333C45.599 44.2908 45.5849 44.2661 45.5781 44.2549C45.5527 44.2255 45.5266 44.1966 45.4995 44.1681ZM46.0355 46.6321L42.292 50.3756C42.4066 50.8178 42.4763 51.3118 42.5087 51.8559L46.1195 48.2451C46.1044 47.6887 46.0773 47.142 46.0355 46.6321ZM46.1347 49.5328L42.55 53.1176C42.5709 53.7636 42.595 54.2907 42.6197 54.7449L46.0996 51.265C46.1192 50.7533 46.1332 50.1603 46.1347 49.5328ZM46.018 52.6495L42.6955 55.9721C42.7307 56.5061 42.7623 56.9966 42.7803 57.5844L45.9281 54.4365C45.9385 53.7407 45.9573 53.1502 45.9963 52.8508C46.0032 52.7978 46.0105 52.7302 46.018 52.6495ZM45.9171 55.7505L42.7918 58.8758C42.7857 59.3988 42.7697 59.9616 42.7541 60.5134C42.7531 60.5467 42.7522 60.5801 42.7513 60.6134L45.918 57.4467C45.9157 56.852 45.9153 56.2788 45.9171 55.7505ZM45.9251 58.7425L42.7198 61.9478C42.7145 62.3069 42.7135 62.637 42.7188 62.9298C42.9404 62.9339 43.1847 62.9329 43.4411 62.9235L45.9399 60.4247C45.9341 59.8702 45.9291 59.3037 45.9251 58.7425ZM45.9547 61.7129L44.8591 62.8085C45.2505 62.7762 45.6287 62.7531 45.9683 62.7368C45.9637 62.411 45.9591 62.0679 45.9547 61.7129ZM34.5521 52.1155L31.3222 55.3454C31.3311 55.8968 31.3389 56.4577 31.3459 57.0188L34.4845 53.8801C34.4821 53.262 34.5002 52.6546 34.5521 52.1155ZM34.5144 55.1532L31.3602 58.3074C31.3659 58.8792 31.3707 59.4435 31.3746 59.99L34.6055 56.7592C34.5773 56.3658 34.5514 55.9483 34.5308 55.5231C34.5249 55.4013 34.5194 55.2779 34.5144 55.1532ZM34.7035 57.964L31.3828 61.2848C31.3859 61.8735 31.3881 62.4276 31.3896 62.9313C31.4055 62.9299 31.4214 62.9286 31.4374 62.9272L34.8226 59.542C34.8252 59.2948 34.8199 59.1003 34.8055 58.9743C34.779 58.7408 34.7425 58.3908 34.7035 57.964ZM34.7642 60.9033L32.8057 62.8618C33.1402 62.8626 33.4678 62.8878 33.7513 62.9122L33.9349 62.9283C34.1064 62.9435 34.2567 62.9568 34.3988 62.9658L34.6163 62.7483C34.6628 62.2506 34.7101 61.6929 34.7477 61.1505C34.7535 61.0668 34.759 60.9843 34.7642 60.9033Z" fill="#E93535"/>
  <path fill-rule="evenodd" clip-rule="evenodd" d="M166.998 40.8368C166.998 40.8368 166.998 41.666 166.999 41.7357C167.013 42.0667 167.108 42.7327 167.157 43.0447C167.33 42.933 167.766 42.674 168.273 42.3797L168.309 42.3587C169.038 41.9356 169.902 41.4457 170.338 41.2153C170.657 41.0471 171.098 40.9157 171.61 40.8347C171.967 40.7783 172.358 40.7463 172.767 40.7434C174.454 40.7313 176.44 41.2139 177.523 42.5145C178.61 43.9196 178.345 50.7864 178.186 52.006C178.077 52.8398 178.116 57.8512 178.162 61.3042C178.164 61.4056 178.165 61.5058 178.167 61.6044C178.167 61.6374 178.168 61.6701 178.168 61.7027C178.174 62.1376 178.18 62.5419 178.186 62.9027C178.081 62.9027 177.936 62.9045 177.759 62.9087L177.652 62.9115C177.542 62.9168 177.431 62.9219 177.319 62.9271C176.717 62.9548 176.071 62.9844 175.349 63.0618C175.077 63.091 174.807 63.1096 174.547 63.1203C174.524 63.1212 174.5 63.1221 174.477 63.123C174.017 63.1395 173.593 63.1316 173.25 63.1146C172.965 63.1004 172.737 63.0799 172.592 63.0618C172.555 62.8103 172.534 62.4977 172.524 62.1439C172.512 61.752 172.513 61.3096 172.521 60.8435C172.529 60.3949 172.542 59.9243 172.555 59.456C172.559 59.3379 172.562 59.2199 172.565 59.1025C172.578 58.6432 172.589 58.192 172.593 57.7718C172.595 57.5453 172.595 57.3278 172.592 57.123C172.587 56.7469 172.576 56.419 172.561 56.1068C172.543 55.7311 172.52 55.3781 172.494 54.9912L172.487 54.878C172.457 54.4241 172.424 53.918 172.394 53.2732C172.377 52.9054 172.361 52.4925 172.346 52.0185C172.339 51.7983 172.333 51.5649 172.327 51.3167C172.319 50.9787 172.297 50.6755 172.264 50.4033C172.212 49.9769 172.131 49.6267 172.026 49.3386C171.85 48.8562 171.607 48.5478 171.321 48.3467C171.037 48.1473 170.71 48.0535 170.364 48.0005C170.145 47.967 169.919 47.9497 169.691 47.9323L169.57 47.923C168.217 47.817 167.21 48.7184 166.839 50.5743C166.468 52.4302 166.865 56.6722 166.998 57.8388C167.104 58.772 166.848 61.6036 166.706 62.9027C166.433 63.15 166 63.1929 165.495 63.1724C165.482 63.1719 165.469 63.1713 165.456 63.1707C165.275 63.1623 165.084 63.1462 164.889 63.129C164.865 63.1269 164.84 63.1247 164.816 63.1225C164.795 63.1207 164.774 63.1188 164.753 63.1169C164.598 63.1033 164.442 63.0899 164.285 63.0797C164.12 63.069 163.954 63.0618 163.79 63.0618C163.401 63.0618 162.961 63.0875 162.545 63.1224C162.494 63.1267 162.442 63.1312 162.392 63.1358C162.36 63.1386 162.329 63.1415 162.299 63.1444C161.837 63.1879 161.429 63.2394 161.192 63.2739L161.192 63.1731C161.191 62.8438 161.191 62.4707 161.19 62.0626C161.189 61.8753 161.189 61.6806 161.188 61.4794C161.187 61.0715 161.185 60.6369 161.182 60.1824C161.179 59.6443 161.176 59.0784 161.171 58.4967C161.167 58.0732 161.164 57.6414 161.159 57.2056C161.153 56.6496 161.147 56.0873 161.139 55.5281C161.134 55.0968 161.127 54.6675 161.12 54.2443C161.111 53.6744 161.101 53.1157 161.089 52.5787C161.079 52.1383 161.069 51.7126 161.057 51.3072C161.042 50.7549 161.025 50.2406 161.006 49.7789C161.004 49.7413 161.003 49.7037 161.002 49.6661C160.985 49.2458 160.974 48.8219 160.966 48.3986C160.956 47.8319 160.953 47.2662 160.956 46.7116C160.958 46.2626 160.964 45.8209 160.973 45.3918C160.985 44.7777 161.004 44.1895 161.025 43.6427C161.044 43.1496 161.066 42.6903 161.088 42.2763C161.095 42.1529 161.102 42.0335 161.109 41.9184C161.137 41.4306 161.166 41.0206 161.192 40.7116C161.414 40.7615 161.84 40.8217 162.385 40.8368C162.902 40.8512 163.527 40.8251 164.188 40.7116C164.792 40.6078 165.341 40.5421 165.798 40.5019C166.208 40.4659 166.543 40.4505 166.775 40.4465C166.865 40.4449 166.94 40.4451 166.998 40.4465V40.8368ZM162.284 42.3832C162.256 42.9095 162.229 43.5092 162.207 44.1578L164.487 41.878C164.455 41.8833 164.423 41.8887 164.391 41.8943C163.761 42.0025 163.158 42.0413 162.627 42.0404L162.284 42.3832ZM165.803 41.8643L162.171 45.4966C162.16 46.051 162.154 46.626 162.155 47.2096L165.907 43.4579C165.866 42.966 165.819 42.2496 165.803 41.8643ZM165.903 44.7644L162.168 48.4994C162.176 48.911 162.188 49.3225 162.205 49.7299C162.21 49.8636 162.216 50.0016 162.221 50.1437L169.046 43.3182C168.483 43.6439 167.63 44.0449 167.455 44.1578L165.903 44.7644ZM171.615 42.0521L162.261 51.4069C162.275 51.9318 162.288 52.4886 162.299 53.0654L165.893 49.4717C166.138 48.7529 166.502 48.1253 167.01 47.6431C167.461 47.214 167.989 46.9357 168.561 46.8039L173.4 41.9648C172.711 41.9121 172.089 41.9598 171.615 42.0521ZM174.527 42.1409L169.923 46.7449C170.303 46.7721 170.824 46.8221 171.346 47.0187L175.757 42.6072C175.399 42.4087 174.983 42.2522 174.527 42.1409ZM176.5 43.1681L172.177 47.4909C172.182 47.4952 172.187 47.4996 172.193 47.5039C172.498 47.7575 172.742 48.0668 172.934 48.4302L176.901 44.4636C176.848 44.1241 176.786 43.8404 176.72 43.6175C176.683 43.4935 176.648 43.4001 176.618 43.3333C176.599 43.2908 176.585 43.2661 176.578 43.2549C176.553 43.2255 176.527 43.1966 176.5 43.1681ZM177.036 45.6321L173.292 49.3756C173.407 49.8178 173.476 50.3118 173.509 50.8559L177.12 47.2451C177.104 46.6887 177.077 46.142 177.036 45.6321ZM177.135 48.5328L173.55 52.1176C173.571 52.7636 173.595 53.2907 173.62 53.7449L177.1 50.265C177.119 49.7533 177.133 49.1603 177.135 48.5328ZM177.018 51.6495L173.696 54.9721C173.731 55.5061 173.762 55.9966 173.78 56.5844L176.928 53.4365C176.939 52.7407 176.957 52.1502 176.996 51.8508C177.003 51.7978 177.011 51.7302 177.018 51.6495ZM176.917 54.7505L173.792 57.8758C173.786 58.3988 173.77 58.9616 173.754 59.5134C173.753 59.5467 173.752 59.5801 173.751 59.6134L176.918 56.4467C176.916 55.852 176.915 55.2788 176.917 54.7505ZM176.925 57.7425L173.72 60.9478C173.715 61.3069 173.714 61.637 173.719 61.9298C173.94 61.9339 174.185 61.9329 174.441 61.9235L176.94 59.4247C176.934 58.8702 176.929 58.3037 176.925 57.7425ZM176.955 60.7129L175.859 61.8085C176.251 61.7762 176.629 61.7531 176.968 61.7368C176.964 61.411 176.959 61.0679 176.955 60.7129ZM165.552 51.1155L162.322 54.3454C162.331 54.8968 162.339 55.4577 162.346 56.0188L165.485 52.8801C165.482 52.262 165.5 51.6546 165.552 51.1155ZM165.514 54.1532L162.36 57.3074C162.366 57.8792 162.371 58.4435 162.375 58.99L165.605 55.7592C165.577 55.3658 165.551 54.9483 165.531 54.5231C165.525 54.4013 165.519 54.2779 165.514 54.1532ZM165.704 56.964L162.383 60.2848C162.386 60.8735 162.388 61.4276 162.39 61.9313C162.405 61.9299 162.421 61.9286 162.437 61.9272L165.823 58.542C165.825 58.2948 165.82 58.1003 165.806 57.9743C165.779 57.7408 165.743 57.3908 165.704 56.964ZM165.764 59.9033L163.806 61.8618C164.14 61.8626 164.468 61.8878 164.751 61.9122L164.935 61.9283C165.106 61.9435 165.257 61.9568 165.399 61.9658L165.616 61.7483C165.663 61.2506 165.71 60.6929 165.748 60.1505C165.754 60.0668 165.759 59.9843 165.764 59.9033Z" fill="#1C1E21"/>
  <path fill-rule="evenodd" clip-rule="evenodd" d="M65.3236 41.3462C65.9511 41.3184 66.8266 41.3604 67.2765 41.3925C67.4383 42.1206 68.0069 45.8211 68.4712 48.8434C68.7272 50.5095 68.9516 51.97 69.0586 52.6122C69.1702 53.2817 69.3651 54.074 69.5704 54.814C69.8084 55.6719 70.0605 56.4596 70.2132 56.9043C70.2826 56.6961 70.4746 56.035 70.6835 55.2892C70.7274 55.1325 70.7721 54.972 70.8165 54.8113C70.944 54.3497 71.0697 53.8855 71.1702 53.4995C71.2297 53.2712 71.2805 53.0702 71.3176 52.9134C71.374 52.6753 71.507 52.0792 71.6792 51.2935C71.7874 50.7995 71.9111 50.2307 72.041 49.6288C72.1914 48.9318 72.3502 48.1905 72.5026 47.4701C72.624 46.8966 72.7415 46.3363 72.8477 45.8221C73.0356 44.9124 73.1885 44.1467 73.2658 43.7069L73.2754 43.6515C73.4105 42.8653 73.5776 42.3083 73.7157 41.9541C73.8033 41.7294 73.8793 41.5862 73.928 41.518C73.9824 41.5297 74.0484 41.5386 74.1244 41.5453C74.4331 41.5726 74.9059 41.5631 75.4245 41.5482C75.4978 41.5461 75.5719 41.5439 75.6466 41.5417C76.0358 41.5301 76.4407 41.518 76.8145 41.518C76.9282 41.518 77.0416 41.5172 77.1542 41.5156C77.4746 41.5113 77.7881 41.5018 78.0812 41.4929C78.1854 41.4897 78.2871 41.4866 78.3856 41.4839C78.4214 41.4829 78.4567 41.4819 78.4917 41.481C79.0046 41.4679 79.4212 41.467 79.6508 41.518C79.5181 41.8718 79.3823 42.2604 79.2443 42.6783C77.6268 47.5741 75.6989 56.497 74.8818 60.6442L74.1288 63.9072C74.1031 63.9125 74.0769 63.9177 74.05 63.9227C73.672 63.993 73.18 64.0314 72.6195 64.0502C72.097 64.0678 71.5149 64.0685 70.9102 64.0625C70.5116 64.0586 70.1029 64.0517 69.6953 64.0448L69.6261 64.0437C69.0546 64.0341 68.4858 64.0248 67.9487 64.024C67.4754 64.0233 67.0268 64.029 66.6229 64.0469C66.4747 64.0535 66.3324 64.0616 66.1972 64.0717C66.1436 63.759 66.0789 63.3789 66.0088 62.9639C65.949 62.6106 65.8854 62.232 65.8214 61.8484C65.7394 61.3569 65.6569 60.8571 65.5812 60.3915C65.5144 59.9805 65.453 59.5962 65.4021 59.2676C65.3362 58.842 65.288 58.51 65.2685 58.335C65.2544 58.2081 65.2262 58.0184 65.1878 57.7849C65.1475 57.5396 65.0959 57.246 65.0378 56.9261C65.0231 56.8448 65.0079 56.7618 64.9923 56.6774C64.9084 56.2219 64.8144 55.7272 64.7222 55.2505C64.6478 54.8657 64.5745 54.4926 64.5088 54.161C64.4653 53.9416 64.4251 53.7403 64.39 53.566C64.2518 54.275 63.9989 55.6797 63.8226 56.9506C63.7534 57.4494 63.6961 57.9276 63.6621 58.335C63.5417 59.7808 62.9259 62.6522 62.633 63.9072C62.4581 63.9233 62.2477 63.9414 62.0129 63.9598C61.6022 63.9921 61.117 64.0256 60.6173 64.0525C60.0203 64.0845 59.4026 64.1071 58.8661 64.1066C58.5562 64.1063 58.2735 64.0984 58.0375 64.0802C58.0038 64.0775 57.9711 64.0747 57.9393 64.0717C57.8388 64.0621 57.733 64.0538 57.623 64.0468C57.118 64.0144 56.5252 64.0073 55.9595 64.0132C55.4672 64.0183 54.9955 64.0331 54.6203 64.0494C54.4509 64.0568 54.3012 64.0645 54.1781 64.0717C54.1251 63.7564 54.063 63.3864 53.9946 62.9781L53.9731 62.8499C53.9276 62.5782 53.8795 62.2908 53.8296 61.9923L53.8078 61.862C53.73 61.3967 53.6482 60.9064 53.5651 60.4076L53.5483 60.3067C53.4974 60.0014 53.4462 59.6935 53.3952 59.3866L53.3792 59.2906C53.2971 58.7963 53.2158 58.3057 53.138 57.8347C53.0737 57.4455 53.0117 57.0697 52.9537 56.7161C52.8631 56.1641 52.782 55.6663 52.7161 55.2566L52.7111 55.2253C52.6961 55.1321 52.682 55.0435 52.6687 54.9601L52.6644 54.9331C52.6322 54.7309 52.5833 54.466 52.5204 54.1494C52.442 53.755 52.342 53.2804 52.2257 52.7471C52.1528 52.4129 52.0735 52.0557 51.9891 51.6806C51.8904 51.2415 51.7847 50.7779 51.6742 50.2985C51.5946 49.9532 51.5125 49.5996 51.4288 49.241C51.3232 48.789 51.215 48.3289 51.1056 47.8671C51.0226 47.5163 50.9389 47.1646 50.8552 46.8145C50.745 46.3532 50.635 45.8949 50.5266 45.4461C50.4405 45.0895 50.3555 44.7389 50.2724 44.3974C50.1567 43.9224 50.0448 43.4651 49.9387 43.034L49.8341 42.6101C49.7809 42.3949 49.7295 42.1877 49.6801 41.9896C49.6279 41.7799 49.578 41.5804 49.5309 41.3925C49.7514 41.3979 50.0658 41.4239 50.4234 41.4534C50.5417 41.4632 50.6647 41.4734 50.7907 41.4833C51.5024 41.5396 52.306 41.5884 52.8692 41.518C52.9697 41.5055 53.0749 41.495 53.1834 41.4863C53.6065 41.4526 54.0794 41.4468 54.5181 41.4546C55.0455 41.4641 55.5235 41.4935 55.8059 41.518C56.1824 43.8105 57.0257 48.9978 57.3871 51.4074C57.5794 52.6888 57.8795 53.8236 58.1674 54.7021C58.421 55.4756 58.6651 56.0505 58.8178 56.3521C58.9654 55.9832 59.217 55.3351 59.4402 54.7166C59.4749 54.6202 59.509 54.5246 59.5419 54.4308C59.657 54.1027 59.7575 53.7977 59.8218 53.566C59.8561 53.4426 59.929 53.1157 60.0299 52.6399C60.1454 52.0952 60.2977 51.3553 60.471 50.5017C60.5744 49.9924 60.6852 49.4425 60.8003 48.8695C60.9375 48.1858 61.0806 47.4691 61.2239 46.7488C61.3322 46.2047 61.4405 45.6587 61.5465 45.1232C61.6923 44.3873 61.8336 43.6714 61.9641 43.0086C62.0799 42.4205 62.1872 41.8742 62.2816 41.3925C62.3163 41.3948 62.3533 41.3972 62.3924 41.3996C62.6911 41.4178 63.1101 41.4373 63.5279 41.4448C64.0443 41.454 64.5587 41.445 64.8418 41.3925C64.9675 41.3693 65.1343 41.3545 65.3236 41.3462ZM63.0709 43.5988C63.1366 43.2658 63.1998 42.9445 63.2599 42.6389C63.3644 42.6418 63.4703 42.6442 63.5759 42.6457C63.717 42.6478 63.8685 42.6489 64.0224 42.6473L63.0709 43.5988ZM62.7503 45.2224L65.4298 42.5429C65.5914 42.5372 65.7926 42.5354 66.0241 42.539C66.1054 42.5403 66.1871 42.5422 66.2679 42.5445C66.3047 42.7623 66.3455 43.0095 66.3895 43.2803L62.3299 47.3399C62.471 46.6317 62.6129 45.9165 62.7503 45.2224ZM62.0044 48.9684C61.8523 49.726 61.7066 50.4479 61.5745 51.0953L66.7987 45.871C66.7193 45.3597 66.642 44.8648 66.5691 44.4036L62.0044 48.9684ZM66.9733 46.9994L61.2349 52.7378C61.1106 53.3273 61.0199 53.7367 60.9781 53.8872C60.8889 54.2083 60.7418 54.643 60.5818 55.0879L67.1996 48.4702C67.1252 47.9858 67.0491 47.4909 66.9733 46.9994ZM67.373 49.5997L65.0378 52.1353L65.3399 53.3299L67.5997 51.0701C67.5304 50.6225 67.4538 50.1254 67.373 49.5997ZM67.7759 52.1968L65.7452 54.2275C65.8316 54.666 65.9275 55.1593 66.0206 55.6494L68.0365 53.634C67.9737 53.3493 67.9186 53.0716 67.875 52.8095C67.8481 52.6482 67.8147 52.4412 67.7759 52.1968ZM68.2914 54.6813L66.2249 56.7478C66.3397 57.3823 66.43 57.9214 66.4612 58.2025L66.4618 58.208L68.6657 56.004C68.5429 55.5962 68.413 55.1434 68.2914 54.6813ZM68.9777 56.995L66.6285 59.3442C66.6962 59.7734 66.7781 60.2785 66.8648 60.8049L69.4162 58.2536L69.0783 57.2941C69.0484 57.2071 69.0146 57.1067 68.9777 56.995ZM71.7537 55.9161L75.471 52.1987C75.6418 51.4616 75.8179 50.7165 75.9976 49.9751L72.3874 53.5853C72.2251 54.2206 71.9726 55.1421 71.7537 55.9161ZM72.7759 51.8939L76.4261 48.2437C76.6247 47.4581 76.8258 46.6872 77.0272 45.9455L73.2479 49.7248C73.074 50.5318 72.9095 51.2871 72.7759 51.8939ZM73.6027 48.0671L77.538 44.1318C77.6855 43.6288 77.8321 43.1485 77.9768 42.6966C77.7495 42.7034 77.5065 42.7101 77.2586 42.7142L74.0527 45.92C73.9172 46.5783 73.7619 47.3175 73.6027 48.0671ZM74.3784 44.2914L75.9361 42.7337C75.8592 42.7359 75.782 42.7382 75.7046 42.7405C75.5274 42.7458 75.349 42.7511 75.1707 42.7554C75.0262 42.7588 74.8683 42.7622 74.7071 42.7629C74.6258 43.0345 74.537 43.3957 74.4581 43.8548C74.4375 43.9747 74.4106 44.1216 74.3784 44.2914ZM75.0862 53.8865L67.0504 61.9223C67.1027 62.2343 67.1542 62.5404 67.2031 62.8294C67.4116 62.8258 67.6266 62.8242 67.8458 62.824L74.6066 56.0631C74.7577 55.3646 74.9182 54.6347 75.0862 53.8865ZM74.2539 57.7189L69.1373 62.8354C69.3351 62.8385 69.5328 62.8418 69.729 62.8451C69.9526 62.8489 70.1743 62.8527 70.3915 62.8559C70.5329 62.858 70.672 62.8598 70.8085 62.8613L73.8153 59.8545C73.942 59.2222 74.0894 58.5022 74.2539 57.7189ZM73.4468 61.5259L72.111 62.8617C72.4973 62.8562 72.8459 62.8441 73.1475 62.8228L73.4468 61.5259ZM63.1131 53.8596L55.0368 61.9359C55.0891 62.2484 55.1392 62.5477 55.1862 62.8283C55.3981 62.8222 55.6236 62.8172 55.8555 62.8143L62.764 55.9058C62.8819 55.1491 63.0105 54.4148 63.1131 53.8596ZM62.5512 57.4215L57.1491 62.8236C57.4705 62.8338 57.7785 62.8509 58.0535 62.8771C58.2472 62.8956 58.4897 62.9048 58.763 62.9068L62.3235 59.3463C62.39 58.9243 62.4407 58.5422 62.4663 58.2354C62.4872 57.9846 62.5163 57.7099 62.5512 57.4215ZM62.0404 60.9323L60.0962 62.8765C60.6303 62.8531 61.1771 62.8188 61.6565 62.7834C61.7774 62.2323 61.9138 61.5835 62.0404 60.9323ZM54.8503 60.8195L58.0694 57.6004L57.7473 56.8943C57.6858 56.7729 57.6142 56.6195 57.5357 56.437L54.608 59.3647C54.6893 59.8538 54.771 60.3438 54.8503 60.8195ZM54.4225 58.2472L57.1711 55.4987C57.0368 55.1191 56.8977 54.686 56.7639 54.2088L54.1821 56.7906C54.2576 57.2501 54.3388 57.7416 54.4225 58.2472ZM53.9988 55.671L56.5 53.1698C56.3975 52.7204 56.3039 52.2444 56.2254 51.7473L53.7558 54.2169C53.7946 54.421 53.8262 54.5982 53.8495 54.7446C53.891 55.0056 53.9415 55.3188 53.9988 55.671ZM53.536 53.1338L56.0526 50.6172C55.9832 50.1692 55.9056 49.6737 55.8228 49.1499L53.2321 51.7406C53.3446 52.245 53.447 52.7139 53.536 53.1338ZM52.9922 50.6776L55.6442 48.0255C55.5676 47.545 55.4888 47.0533 55.4099 46.5628L52.6743 49.2984C52.7842 49.7708 52.8908 50.2329 52.9922 50.6776ZM52.4272 48.2425L55.2289 45.4408C55.1475 44.9373 55.0678 44.4457 54.9922 43.9805L52.1023 46.8704C52.2113 47.328 52.3201 47.7874 52.4272 48.2425ZM51.8508 45.819L54.8096 42.8602C54.7986 42.7929 54.7878 42.7267 54.7772 42.6616C54.2984 42.6461 53.7524 42.6452 53.2913 42.6814L51.5206 44.4521C51.6285 44.8963 51.7391 45.3542 51.8508 45.819ZM51.2653 43.4045L51.9202 42.7495C51.6363 42.7429 51.3541 42.7269 51.0945 42.7092C51.1499 42.9339 51.2069 43.1661 51.2653 43.4045Z" fill="#1C1E21"/>
  <path fill-rule="evenodd" clip-rule="evenodd" d="M86.3753 41.2945C86.3426 41.2976 86.3094 41.3008 86.2758 41.3042C86.1461 41.317 86.0097 41.3313 85.8683 41.346C85.4405 41.3908 84.9681 41.4401 84.504 41.4687C84.262 41.4836 84.0223 41.4929 83.7923 41.4929V41.4929H81.4078L81.4072 41.5655C81.4034 42.0657 81.3994 42.6456 81.3955 43.2742C81.393 43.6926 81.3904 44.1324 81.3881 44.5846C81.3853 45.1399 81.3827 45.7138 81.3805 46.2892C81.3789 46.7265 81.3775 47.1647 81.3765 47.5962C81.3751 48.181 81.3744 48.7535 81.3745 49.2953C81.3746 49.7548 81.3753 50.1921 81.3768 50.5959C81.3792 51.2671 81.3837 51.8455 81.3909 52.2789C81.3954 52.5526 81.4009 52.7684 81.4077 52.9134C81.4167 53.1055 81.4236 53.3141 81.4287 53.544C81.4389 54.0067 81.442 54.5554 81.4411 55.2287C81.4405 55.6201 81.4386 56.0536 81.436 56.5367C81.4342 56.8534 81.4322 57.1914 81.43 57.5529C81.4287 57.7742 81.4273 58.0044 81.4259 58.2439C81.4235 58.6527 81.421 59.0885 81.4188 59.5539C81.4162 60.0826 81.4138 60.6494 81.4119 61.2578C81.4106 61.6734 81.4096 62.1083 81.4088 62.5638C81.4087 62.6279 81.4087 62.6924 81.4086 62.7573C81.408 63.1427 81.4078 63.5424 81.4078 63.9573H83.9429C84.088 63.9573 84.3043 63.97 84.5602 63.985C84.5986 63.9872 84.6379 63.9895 84.6779 63.9918C85.0587 64.0138 85.5101 64.0373 85.9402 64.0325C86.5726 64.0253 87.1589 63.9567 87.4067 63.7314C87.39 60.4768 87.3415 53.6061 87.2812 52.1604C87.2183 50.6504 87.6285 49.1054 89.1267 48.6527C89.2094 48.6277 89.2954 48.606 89.3848 48.5879C89.6143 48.5413 89.8663 48.5179 90.1426 48.5209C90.4728 48.5244 90.798 48.5355 91.1164 48.5533C91.5293 48.5765 91.931 48.611 92.3176 48.6551C92.838 48.7145 93.3312 48.7914 93.7881 48.8816C94.0651 48.9363 94.3287 48.9959 94.577 49.0595C94.5826 49.0609 94.5883 49.0624 94.5939 49.0638C94.6785 49.0856 94.7613 49.1079 94.8422 49.1305C95.1964 49.2298 95.5147 49.3372 95.7901 49.4496C95.7776 49.0771 95.7643 48.6363 95.7517 48.1557C95.7055 46.4041 95.6673 44.1235 95.7067 42.6902C95.7218 42.1407 95.7483 41.7158 95.7901 41.4929V41.4929C95.6148 41.4836 95.4153 41.4769 95.1958 41.4739C95.0047 41.4713 94.7983 41.4715 94.5795 41.4752C94.2314 41.481 93.8516 41.4955 93.4512 41.5215C92.9924 41.5513 92.5064 41.5961 92.0097 41.66C91.3213 41.7486 90.6122 41.8739 89.9261 42.0466C89.7086 42.1014 89.4935 42.1609 89.282 42.2255C89.063 42.2925 88.848 42.3649 88.6384 42.4432C88.3926 42.5351 88.1543 42.635 87.9261 42.7437C87.7733 42.8164 87.625 42.8931 87.482 42.9738C87.4473 42.7031 87.4011 42.1214 87.4437 41.6444C87.4524 41.5465 87.4649 41.4529 87.482 41.3674C87.482 41.2616 87.2631 41.2376 86.9124 41.2535C86.7568 41.2605 86.5752 41.2754 86.3753 41.2945ZM86.434 44.2358L86.2918 43.1264C86.2796 43.0315 86.2644 42.8904 86.2517 42.721L82.5802 46.3925C82.5781 46.9655 82.5765 47.5384 82.5755 48.0943L86.434 44.2358ZM87.8009 44.1718L82.5745 49.3982C82.5747 50.0157 82.576 50.5895 82.5789 51.0909L90.535 43.1348C89.6095 43.3449 88.7526 43.6345 88.0719 44.0188L87.8009 44.1718ZM92.1164 42.8562L82.5926 52.3801C82.5965 52.5815 82.6011 52.7429 82.6064 52.8572C82.6221 53.1922 82.6315 53.577 82.6364 54.0333L86.2209 50.4489C86.3309 49.9506 86.5121 49.4597 86.7931 49.0138C87.334 48.1554 88.1749 47.575 89.2829 47.3868L93.9753 42.6944C93.4034 42.7202 92.7694 42.7707 92.1164 42.8562ZM94.493 43.4796L90.6413 47.3314C91.1857 47.3488 91.7182 47.3855 92.2311 47.4386L94.4957 45.174C94.4951 45.1154 94.4946 45.0569 94.4941 44.9986C94.4897 44.4684 94.4888 43.9521 94.493 43.4796ZM94.5137 46.459L93.3825 47.5902C93.7889 47.6557 94.1771 47.7315 94.5426 47.8162C94.5319 47.3823 94.522 46.9238 94.5137 46.459ZM86.0752 51.8975L82.6407 55.3319C82.6398 55.8314 82.6369 56.3952 82.6332 57.0365L86.1148 53.5549C86.1045 52.9504 86.0935 52.4813 86.0823 52.2103C86.078 52.1078 86.0755 52.0034 86.0752 51.8975ZM86.1337 54.839L82.6254 58.3473C82.6224 58.8717 82.6193 59.4388 82.6166 60.0532L86.1529 56.5169C86.1468 55.9254 86.1404 55.3591 86.1337 54.839ZM86.1652 57.8075L82.6117 61.361C82.6103 61.8046 82.6093 62.2696 82.6086 62.7573H82.9124L86.1792 59.4906C86.1749 58.9315 86.1702 58.3653 86.1652 57.8075ZM86.1887 60.784L84.2084 62.7643C84.3434 62.7701 84.4919 62.7788 84.6369 62.7874L84.7614 62.7946C85.0726 62.8125 85.4077 62.8298 85.7325 62.8327C85.7678 62.833 85.8025 62.8331 85.8367 62.8331L86.1996 62.4701C86.1965 61.9452 86.1928 61.3762 86.1887 60.784ZM82.5857 45.0841L85.0371 42.6326C84.6248 42.6671 84.1951 42.6929 83.7923 42.6929H83.2798L82.5949 43.3777C82.5917 43.9195 82.5885 44.4948 82.5857 45.0841Z" fill="#1C1E21"/>
  <path fill-rule="evenodd" clip-rule="evenodd" d="M101.136 37.6024C101.34 37.6471 101.637 37.6836 101.965 37.7046C102.122 37.7146 102.286 37.7211 102.45 37.7233C102.736 37.7271 103.024 37.7179 103.281 37.6915C103.789 37.6393 104.173 37.52 104.173 37.3012C104.173 37.2656 104.176 37.2185 104.179 37.16C104.188 36.9864 104.202 36.7119 104.173 36.3366C104.152 36.056 104.122 35.7317 104.089 35.3859C104.014 34.5732 103.927 33.6423 103.917 32.8835L103.917 32.8534L103.917 32.7532C103.915 32.3119 103.93 31.9276 103.973 31.6537C103.854 31.6529 103.753 31.654 103.645 31.6551C103.547 31.6562 103.443 31.6573 103.316 31.6571L103.326 31.6469C103.152 31.6446 102.964 31.6417 102.765 31.6382C102.538 31.6342 102.297 31.6294 102.046 31.6238L102.038 31.6323C101.52 31.6184 100.952 31.6004 100.393 31.5795L100.395 31.5776C99.9755 31.5632 99.5528 31.5464 99.1427 31.5271L99.0582 31.5231C98.6345 31.5026 98.2254 31.4793 97.8482 31.4529C97.8742 31.7562 97.9049 32.1733 97.934 32.6615C97.9971 33.7176 98.0528 35.1066 98.0377 36.3965C98.0329 36.8137 98.0206 37.2206 97.9988 37.6024C98.283 37.581 98.6923 37.5565 99.1289 37.5409L99.204 37.5383C99.5135 37.528 99.8337 37.5224 100.13 37.5258C100.232 37.527 100.33 37.5292 100.425 37.5326L100.44 37.5331C100.722 37.5437 100.967 37.5653 101.136 37.6024ZM100.34 36.3293L102.749 33.9212C102.732 33.5566 102.72 33.1875 102.717 32.8375C102.535 32.8343 102.344 32.8306 102.146 32.8263L99.2395 35.7332C99.2406 35.9352 99.2403 36.1368 99.2384 36.3366C99.3576 36.3329 99.4781 36.33 99.5981 36.3279C99.8312 36.324 100.087 36.3228 100.34 36.3293ZM100.876 32.7937L99.2161 34.4537C99.1986 33.8758 99.1733 33.3213 99.1456 32.8271L99.2398 32.7329C99.7796 32.7573 100.336 32.7774 100.876 32.7937ZM102.91 36.3712C102.883 36.0178 102.85 35.5972 102.82 35.1524L101.519 36.4533C101.835 36.5027 102.391 36.5409 102.899 36.5167L102.921 36.5157L102.91 36.3712Z" fill="#1C1E21"/>
  <path fill-rule="evenodd" clip-rule="evenodd" d="M102.687 41.2853C102.387 41.2871 102.073 41.2879 101.757 41.2872C100.851 41.2854 99.9202 41.2718 99.1946 41.2368C98.6455 41.2103 98.2138 41.1715 97.9988 41.1164C97.9827 41.4708 97.9645 41.8823 97.9451 42.3292C97.935 42.5637 97.9246 42.8079 97.914 43.0587C97.8901 43.6269 97.8656 44.2288 97.8423 44.8275C97.8248 45.277 97.8081 45.7248 97.7928 46.1552L97.7919 46.1808C97.7692 46.8215 97.75 47.4228 97.7367 47.9331C97.7224 48.484 97.7152 48.9287 97.7183 49.2022C97.7227 49.3743 97.7211 49.3403 97.7227 49.3743C97.7333 49.6021 97.7596 50.0425 97.7932 50.6067L97.8084 50.8614C97.8303 51.2284 97.8545 51.6373 97.8791 52.0675L97.8805 52.0922C97.9101 52.6104 97.9402 53.1589 97.9676 53.7021C97.9875 54.0969 98.006 54.4888 98.0217 54.8644L98.0252 54.9475C98.0506 55.5658 98.0682 56.1364 98.0723 56.5975C98.0759 56.9955 98.0694 57.3118 98.0491 57.5067C98.0371 57.6219 98.0269 57.7681 98.0181 57.9388L98.0173 57.9555C97.9943 58.4092 97.9806 59.0313 97.9673 59.7025L97.9623 59.9598C97.9555 60.3077 97.9485 60.6645 97.9402 61.0143L97.9398 61.0329C97.926 61.6093 97.9085 62.1659 97.8821 62.6319C97.8789 62.6885 97.8755 62.7439 97.8721 62.7977C97.8459 63.2011 97.8118 63.5221 97.7657 63.707C97.7524 63.7604 97.7381 63.8025 97.7227 63.8319H100.559C100.701 63.8319 100.852 63.8347 101.007 63.8391L101.13 63.8428C101.291 63.848 101.457 63.8546 101.624 63.8612C102.019 63.8769 102.419 63.8928 102.778 63.8916C103.287 63.8898 103.713 63.8537 103.929 63.7341C103.982 63.705 104.022 63.6709 104.048 63.6311C104.039 63.3338 104.029 63.0045 104.019 62.6508C104.005 62.1427 103.991 61.5837 103.978 60.9948C103.969 60.5928 103.961 60.1769 103.953 59.7537L103.952 59.7174C103.943 59.167 103.934 58.6046 103.928 58.0451C103.923 57.6287 103.919 57.2138 103.917 56.8066L103.917 56.7529C103.914 56.1641 103.914 55.5918 103.918 55.0544C103.922 54.6295 103.927 54.2264 103.936 53.8541L103.939 53.7308C103.959 52.9606 103.992 52.3323 104.042 51.9308L104.048 51.8843C104.091 51.5672 104.124 51.1163 104.15 50.5734L104.152 50.5174C104.176 50.0025 104.193 49.408 104.204 48.7685C104.211 48.3821 104.216 47.9793 104.219 47.5676L104.22 47.4495C104.224 46.8911 104.225 46.3179 104.224 45.7486C104.223 45.3284 104.221 44.9103 104.218 44.5019L104.218 44.4521C104.213 43.864 104.207 43.2969 104.2 42.7732L104.195 42.4668C104.192 42.2612 104.189 42.0634 104.185 41.8752L104.178 41.4917L104.173 41.267C103.765 41.2749 103.248 41.2819 102.687 41.2853ZM100.199 42.4705L99.0936 43.5762C99.1098 43.1825 99.1261 42.7986 99.1417 42.4356C99.4655 42.4512 99.8244 42.4625 100.199 42.4705ZM98.9747 46.6951C98.9935 46.1406 99.0156 45.5405 99.0392 44.9335L101.486 42.4864C102.004 42.4888 102.521 42.4871 102.995 42.4831L102.998 42.6719L98.9747 46.6951ZM98.9338 48.0389L103.013 43.9593C103.019 44.5033 103.022 45.0721 103.024 45.6459L98.9433 49.7265C98.9336 49.5572 98.9261 49.4192 98.9214 49.3185C98.9121 49.119 98.918 48.6572 98.9338 48.0389ZM99.0162 50.9565L103.023 46.9497C103.021 47.5464 103.015 48.1242 103.006 48.664L99.1088 52.561C99.0769 51.9846 99.0448 51.4376 99.0162 50.9565ZM99.174 53.7988L102.972 50.0005C102.946 50.75 102.909 51.3524 102.859 51.724C102.854 51.7559 102.85 51.7892 102.846 51.8236L99.2443 55.4255C99.2265 54.9162 99.2018 54.3607 99.174 53.7988ZM99.2731 56.6996L102.754 53.2184C102.736 53.7343 102.724 54.3224 102.719 54.9508L99.197 58.4728C99.2086 58.1123 99.2229 57.8208 99.2426 57.631C99.2667 57.4003 99.2747 57.0743 99.2731 56.6996ZM99.1657 59.8071L102.715 56.2576C102.716 56.5843 102.717 56.9156 102.72 57.2478C102.722 57.4783 102.724 57.7105 102.726 57.9433L99.1268 61.543C99.1325 61.3479 99.1375 61.1495 99.142 60.951C99.1501 60.6005 99.1569 60.2541 99.1634 59.923L99.1657 59.8071ZM99.3408 62.6319L102.744 59.2288C102.753 59.7969 102.764 60.3573 102.775 60.8944L101.031 62.6392C100.87 62.6348 100.711 62.6319 100.559 62.6319H99.3408ZM102.288 62.6844L102.806 62.167C102.81 62.3469 102.815 62.5219 102.82 62.6913C102.777 62.6916 102.732 62.6917 102.686 62.6915C102.559 62.6909 102.426 62.6883 102.288 62.6844Z" fill="#1C1E21"/>
  <path fill-rule="evenodd" clip-rule="evenodd" d="M109.455 32.9454C110.012 32.9031 110.632 32.9716 110.993 32.9796C111.64 32.9654 112.099 33.0027 112.575 33.0882C112.577 33.0885 112.579 33.0889 112.581 33.0892C112.708 33.1122 112.841 33.1359 112.984 33.1597C113.228 33.2005 113.487 33.2225 113.741 33.2319C113.842 33.2356 113.942 33.2373 114.041 33.2374C114.548 33.2377 115.004 33.1946 115.243 33.1597C115.234 33.5832 115.228 33.987 115.222 34.3722C115.145 39.6671 115.3 41.4156 115.393 41.6184C115.489 41.6184 115.731 41.6098 116.075 41.5952C116.436 41.5799 116.909 41.5578 117.441 41.532C117.994 41.5052 118.609 41.4744 119.227 41.4429C119.692 41.4192 120.159 41.3951 120.601 41.3721C121.166 41.3427 121.691 41.315 122.12 41.2921C122.148 41.3538 122.174 41.4131 122.199 41.4704C122.345 41.8041 122.439 42.0711 122.487 42.3489C122.54 42.6643 122.533 42.9937 122.471 43.4507C122.371 44.1937 122.312 46.036 122.296 46.8643C122.155 46.8907 121.267 46.8801 120.172 46.8671C120.15 46.8669 120.128 46.8666 120.105 46.8663C120.02 46.8653 119.933 46.8643 119.845 46.8633C119.287 46.8568 118.692 46.8505 118.124 46.8486C117.657 46.847 117.208 46.8484 116.815 46.8551C115.981 46.8691 115.393 46.9068 115.393 46.9898C115.393 47.0285 115.388 47.1967 115.38 47.4624C115.333 49.0937 115.177 54.4 115.393 55.9756C115.52 56.2266 115.742 56.4463 116.032 56.638C116.278 56.801 116.574 56.9439 116.904 57.0687C117.304 57.22 117.753 57.3448 118.223 57.447C118.583 57.5253 118.956 57.5904 119.329 57.6438C119.853 57.7189 120.377 57.7711 120.865 57.8052C121.323 57.8372 121.75 57.8532 122.116 57.8571C122.177 57.8578 122.237 57.8581 122.296 57.8581C122.396 58.5023 122.617 60.0117 122.697 60.8952C122.778 61.7787 122.463 63.2044 122.296 63.8068C122.249 63.8121 122.201 63.8172 122.15 63.8223C121.784 63.8591 121.312 63.8901 120.765 63.9045C120.259 63.9179 119.689 63.9169 119.08 63.8931C118.685 63.8776 118.274 63.8526 117.854 63.8156C117.359 63.772 116.851 63.7119 116.341 63.6314C115.975 63.5737 115.608 63.5054 115.245 63.4253C114.791 63.3254 114.342 63.207 113.905 63.0673C113.84 63.0466 113.776 63.0253 113.711 63.0036C113.441 62.9123 113.19 62.8159 112.955 62.7146C112.533 62.5324 112.168 62.3344 111.85 62.1229C111.574 61.9396 111.335 61.746 111.126 61.5436C110.817 61.2434 110.575 60.9237 110.384 60.5889C110.217 60.297 110.089 59.9936 109.988 59.6816C109.842 59.2311 109.754 58.7627 109.687 58.2853C109.643 57.9619 109.608 57.6344 109.574 57.3055L109.554 57.116C109.543 57.012 109.532 56.9079 109.52 56.8039C109.482 56.4745 109.45 56.0462 109.423 55.55C109.402 55.1696 109.383 54.7492 109.367 54.3028C109.348 53.7809 109.333 53.2234 109.32 52.6528C109.311 52.2306 109.303 51.8013 109.296 51.3738C109.287 50.8043 109.281 50.238 109.276 49.6963C109.273 49.2431 109.27 48.8071 109.269 48.4008C109.269 48.3404 109.269 48.2806 109.268 48.2215C109.267 47.7623 109.268 47.3453 109.269 46.9898C109.212 47.0148 108.893 47.0852 108.752 47.0779C108.528 47.0975 108.395 47.0806 108.068 47.0779C108.227 47.0824 107.917 47.0767 108.068 47.0779C107.619 47.06 106.347 47.0126 106.031 46.9898C106.032 46.9725 106.034 46.9551 106.035 46.9378C106.058 46.6341 106.08 46.3373 106.099 46.0489C106.11 45.8758 106.121 45.7058 106.131 45.5391C106.17 44.8874 106.197 44.2866 106.217 43.7557C106.23 43.4146 106.239 43.1023 106.245 42.8237C106.248 42.6787 106.251 42.5428 106.253 42.4168C106.258 42.0723 106.259 41.8013 106.257 41.6184C106.509 41.6457 106.755 41.6657 106.99 41.6796C107.151 41.6892 107.307 41.6959 107.458 41.7004C107.568 41.7036 107.675 41.7056 107.779 41.7065C107.952 41.708 108.116 41.7066 108.27 41.7029C108.802 41.6902 109.207 41.6511 109.419 41.6184C109.219 38.004 109.371 34.3175 109.455 32.9454ZM107.326 45.6463C107.322 45.7165 107.318 45.7873 107.313 45.8587C107.505 45.8661 107.698 45.872 107.884 45.8754C108.196 45.881 108.471 45.8793 108.679 45.8686C108.731 45.8659 108.774 45.8629 108.81 45.8598L114.073 40.5963C114.059 40.3383 114.046 40.0365 114.036 39.6862C114.029 39.4637 114.023 39.2205 114.018 38.955L107.326 45.6463ZM114.003 37.667C114 37.159 114.001 36.5943 114.005 35.968L110.534 39.4387C110.547 39.9776 110.567 40.5265 110.593 41.0768L114.003 37.667ZM108.787 42.8829L107.397 44.2724C107.419 43.7604 107.434 43.2988 107.444 42.9005C107.955 42.9149 108.412 42.9045 108.787 42.8829ZM110.512 38.1575L114.018 34.6518C114.019 34.581 114.02 34.5095 114.021 34.4373C113.623 34.4362 113.194 34.4113 112.786 34.3434C112.74 34.3357 112.695 34.3281 112.652 34.3207L110.513 36.4599C110.508 36.9951 110.507 37.5652 110.512 38.1575ZM110.535 35.1344L111.528 34.1423C111.504 34.14 111.48 34.1378 111.456 34.1357C111.22 34.1153 110.94 34.1051 110.567 34.1153C110.555 34.4209 110.544 34.7628 110.535 35.1344ZM114.194 41.779L110.474 45.4989L110.469 46.9939C110.469 47.0611 110.468 47.1304 110.468 47.2016L114.774 42.8956L114.304 42.1213C114.248 42.001 114.214 41.8759 114.194 41.779ZM116.181 42.7915L110.469 48.5033C110.471 49.0288 110.475 49.5993 110.481 50.1887L117.962 42.7079C117.275 42.7417 116.649 42.7714 116.181 42.7915ZM119.334 42.6391L116.305 45.6672C116.33 45.6664 116.354 45.6656 116.379 45.6649C116.845 45.6506 117.42 45.6469 118.021 45.6483L121.123 42.5465C120.569 42.5755 119.952 42.6075 119.334 42.6391ZM121.235 43.7381L119.315 45.6573C119.615 45.6604 119.912 45.664 120.193 45.6673C120.48 45.6707 120.75 45.6739 120.993 45.6763L121.134 45.5355C121.158 44.9198 121.191 44.2488 121.235 43.7381ZM114.17 47.8027L110.498 51.4749C110.507 52.0358 110.518 52.5971 110.532 53.138L114.125 49.5448C114.136 49.0547 114.148 48.6035 114.158 48.2196C114.162 48.0699 114.166 47.9303 114.17 47.8027ZM114.099 50.8734L110.571 54.4015C110.594 55.0089 110.621 55.5599 110.654 56.0158L114.082 52.5879C114.084 52.0156 114.09 51.434 114.099 50.8802C114.099 50.8779 114.099 50.8757 114.099 50.8734ZM114.088 53.8849L110.77 57.2022C110.831 57.7643 110.883 58.2543 110.971 58.6984L114.145 55.5245C114.114 55.0653 114.096 54.5001 114.088 53.8849ZM114.369 56.6042L111.276 59.6968C111.291 59.7302 111.306 59.7633 111.322 59.7964C111.467 60.0961 111.668 60.4001 111.975 60.6948L115.171 57.4987C114.858 57.2629 114.573 56.97 114.369 56.6042ZM115.989 57.9839L112.72 61.2532C113.037 61.4423 113.418 61.6229 113.879 61.7908L117.233 58.4373C116.803 58.3162 116.386 58.1698 116.006 57.992C116 57.9893 115.995 57.9866 115.989 57.9839ZM118.287 58.6854L114.872 62.1004C115.329 62.2223 115.797 62.3221 116.267 62.403L119.761 58.9089C119.274 58.8534 118.775 58.7802 118.287 58.6854ZM120.959 59.014L117.408 62.5649C117.947 62.6259 118.477 62.6652 118.982 62.6879L121.419 60.2503C121.371 59.8541 121.312 59.4228 121.257 59.0307C121.159 59.0259 121.06 59.0203 120.959 59.014ZM121.501 61.4719L120.26 62.7127C120.65 62.7103 121.01 62.6987 121.328 62.6814C121.355 62.5467 121.382 62.4051 121.405 62.2609C121.453 61.9721 121.486 61.7029 121.501 61.4719Z" fill="#1C1E21"/>
  <path fill-rule="evenodd" clip-rule="evenodd" d="M127.379 32.9454C127.936 32.9031 128.556 32.9716 128.917 32.9796C129.564 32.9654 130.023 33.0027 130.499 33.0882C130.501 33.0885 130.503 33.0889 130.505 33.0892C130.632 33.1122 130.765 33.1359 130.908 33.1597C131.152 33.2005 131.411 33.2225 131.665 33.2319C131.766 33.2356 131.866 33.2373 131.965 33.2374C132.472 33.2377 132.928 33.1946 133.167 33.1597C133.158 33.5832 133.152 33.987 133.146 34.3722C133.069 39.6671 133.224 41.4156 133.317 41.6184C133.413 41.6184 133.655 41.6098 133.999 41.5952C134.36 41.5799 134.834 41.5578 135.365 41.532C135.918 41.5052 136.533 41.4744 137.151 41.4429C137.616 41.4192 138.083 41.3951 138.525 41.3721C139.09 41.3427 139.615 41.315 140.044 41.2921C140.072 41.3538 140.099 41.4131 140.123 41.4704C140.269 41.8041 140.363 42.0711 140.411 42.3489C140.464 42.6643 140.457 42.9937 140.395 43.4507C140.295 44.1937 140.236 46.036 140.22 46.8643C140.079 46.8907 139.191 46.8801 138.097 46.8671C138.074 46.8669 138.052 46.8666 138.029 46.8663C137.944 46.8653 137.857 46.8643 137.769 46.8633C137.211 46.8568 136.616 46.8505 136.048 46.8486C135.581 46.847 135.133 46.8484 134.739 46.8551C133.905 46.8691 133.317 46.9068 133.317 46.9898C133.317 47.0285 133.312 47.1967 133.305 47.4624C133.257 49.0937 133.101 54.4 133.317 55.9756C133.444 56.2266 133.666 56.4463 133.956 56.638C134.202 56.801 134.498 56.9439 134.828 57.0687C135.228 57.22 135.677 57.3448 136.147 57.447C136.507 57.5253 136.88 57.5904 137.253 57.6438C137.777 57.7189 138.301 57.7711 138.789 57.8052C139.247 57.8372 139.674 57.8532 140.04 57.8571C140.101 57.8578 140.162 57.8581 140.22 57.8581C140.32 58.5023 140.541 60.0117 140.621 60.8952C140.702 61.7787 140.387 63.2044 140.22 63.8068C140.173 63.8121 140.125 63.8172 140.075 63.8223C139.708 63.8591 139.236 63.8901 138.689 63.9045C138.183 63.9179 137.613 63.9169 137.004 63.8931C136.609 63.8776 136.199 63.8526 135.778 63.8156C135.283 63.772 134.775 63.7119 134.265 63.6314C133.9 63.5737 133.533 63.5054 133.169 63.4253C132.715 63.3254 132.266 63.207 131.829 63.0673C131.765 63.0466 131.7 63.0253 131.636 63.0036C131.365 62.9123 131.114 62.8159 130.879 62.7146C130.458 62.5324 130.092 62.3344 129.774 62.1229C129.498 61.9396 129.259 61.746 129.05 61.5436C128.741 61.2434 128.499 60.9237 128.308 60.5889C128.141 60.297 128.013 59.9936 127.912 59.6816C127.767 59.2311 127.678 58.7627 127.612 58.2853C127.567 57.9619 127.532 57.6344 127.498 57.3055L127.478 57.116C127.467 57.012 127.456 56.9079 127.444 56.8039C127.406 56.4745 127.374 56.0462 127.347 55.55C127.326 55.1696 127.307 54.7492 127.291 54.3028C127.272 53.7809 127.257 53.2234 127.244 52.6528C127.235 52.2306 127.227 51.8013 127.22 51.3738C127.211 50.8043 127.205 50.238 127.201 49.6963C127.197 49.2431 127.194 48.8071 127.193 48.4008C127.193 48.3404 127.193 48.2806 127.193 48.2215C127.191 47.7623 127.192 47.3453 127.193 46.9898C127.137 47.0148 126.817 47.0852 126.676 47.0779C126.452 47.0975 126.319 47.0806 125.993 47.0779C126.152 47.0824 125.841 47.0767 125.993 47.0779C125.544 47.06 124.271 47.0126 123.955 46.9898C123.956 46.9725 123.958 46.9551 123.959 46.9378C123.982 46.6341 124.004 46.3373 124.023 46.0489C124.034 45.8758 124.045 45.7058 124.055 45.5391C124.094 44.8874 124.122 44.2866 124.141 43.7557C124.154 43.4146 124.163 43.1023 124.169 42.8237C124.172 42.6787 124.175 42.5428 124.177 42.4168C124.182 42.0723 124.183 41.8013 124.181 41.6184C124.433 41.6457 124.679 41.6657 124.914 41.6796C125.075 41.6892 125.231 41.6959 125.382 41.7004C125.492 41.7036 125.599 41.7056 125.703 41.7065C125.876 41.708 126.04 41.7066 126.194 41.7029C126.726 41.6902 127.131 41.6511 127.343 41.6184C127.143 38.004 127.295 34.3175 127.379 32.9454ZM125.251 45.6463C125.246 45.7165 125.242 45.7873 125.237 45.8587C125.429 45.8661 125.622 45.872 125.808 45.8754C126.12 45.881 126.395 45.8793 126.603 45.8686C126.655 45.8659 126.698 45.8629 126.734 45.8598L131.998 40.5963C131.983 40.3383 131.97 40.0365 131.96 39.6862C131.953 39.4637 131.947 39.2205 131.942 38.955L125.251 45.6463ZM131.927 37.667C131.924 37.159 131.925 36.5943 131.929 35.968L128.458 39.4387C128.471 39.9776 128.491 40.5265 128.517 41.0768L131.927 37.667ZM126.711 42.8829L125.321 44.2724C125.343 43.7604 125.358 43.2988 125.368 42.9005C125.879 42.9149 126.336 42.9045 126.711 42.8829ZM128.436 38.1575L131.942 34.6518C131.943 34.581 131.944 34.5095 131.945 34.4373C131.547 34.4362 131.118 34.4113 130.71 34.3434C130.664 34.3357 130.619 34.3281 130.576 34.3207L128.437 36.4599C128.432 36.9951 128.431 37.5652 128.436 38.1575ZM128.459 35.1344L129.452 34.1423C129.428 34.14 129.404 34.1378 129.38 34.1357C129.144 34.1153 128.864 34.1051 128.491 34.1153C128.479 34.4209 128.469 34.7628 128.459 35.1344ZM132.118 41.779L128.398 45.4989L128.393 46.9939C128.393 47.0611 128.392 47.1304 128.392 47.2016L132.698 42.8956L132.228 42.1213C132.172 42.001 132.138 41.8759 132.118 41.779ZM134.105 42.7915L128.393 48.5033C128.395 49.0288 128.399 49.5993 128.405 50.1887L135.886 42.7079C135.199 42.7417 134.573 42.7714 134.105 42.7915ZM137.258 42.6391L134.23 45.6672C134.254 45.6664 134.278 45.6656 134.303 45.6649C134.769 45.6506 135.344 45.6469 135.946 45.6483L139.047 42.5465C138.493 42.5755 137.876 42.6075 137.258 42.6391ZM139.159 43.7381L137.239 45.6573C137.539 45.6604 137.836 45.664 138.117 45.6673C138.404 45.6707 138.675 45.6739 138.918 45.6763L139.058 45.5355C139.082 44.9198 139.115 44.2488 139.159 43.7381ZM132.094 47.8027L128.422 51.4749C128.431 52.0358 128.442 52.5971 128.456 53.138L132.049 49.5448C132.06 49.0547 132.072 48.6035 132.082 48.2196C132.087 48.0699 132.09 47.9303 132.094 47.8027ZM132.023 50.8734L128.495 54.4015C128.518 55.0089 128.545 55.5599 128.578 56.0158L132.006 52.5879C132.008 52.0156 132.014 51.434 132.023 50.8802C132.023 50.8779 132.023 50.8757 132.023 50.8734ZM132.012 53.8849L128.695 57.2022C128.755 57.7643 128.807 58.2543 128.895 58.6984L132.069 55.5245C132.038 55.0653 132.02 54.5001 132.012 53.8849ZM132.293 56.6042L129.2 59.6968C129.215 59.7302 129.23 59.7633 129.246 59.7964C129.391 60.0961 129.592 60.4001 129.899 60.6948L133.095 57.4987C132.783 57.2629 132.497 56.97 132.293 56.6042ZM133.913 57.9839L130.644 61.2532C130.961 61.4423 131.342 61.6229 131.803 61.7908L135.157 58.4373C134.727 58.3162 134.31 58.1698 133.93 57.992C133.924 57.9893 133.919 57.9866 133.913 57.9839ZM136.211 58.6854L132.796 62.1004C133.253 62.2223 133.721 62.3221 134.191 62.403L137.685 58.9089C137.198 58.8534 136.699 58.7802 136.211 58.6854ZM138.883 59.014L135.332 62.5649C135.871 62.6259 136.401 62.6652 136.906 62.6879L139.344 60.2503C139.295 59.8541 139.236 59.4228 139.181 59.0307C139.083 59.0259 138.984 59.0203 138.883 59.014ZM139.425 61.4719L138.184 62.7127C138.574 62.7103 138.934 62.6987 139.252 62.6814C139.279 62.5467 139.306 62.4051 139.329 62.2609C139.377 61.9721 139.41 61.7029 139.425 61.4719Z" fill="#1C1E21"/>
  <path fill-rule="evenodd" clip-rule="evenodd" d="M148.333 52.6396C148.319 52.6382 148.304 52.6367 148.29 52.6353C147.883 52.5938 147.571 52.5491 147.37 52.5118C147.389 52.6454 147.412 53.0424 147.401 53.7335C147.396 53.9948 147.387 54.2982 147.37 54.6453C147.321 55.683 147.628 56.6775 148.186 57.5011C148.357 57.7535 148.551 57.9899 148.766 58.2065C148.919 58.3601 149.081 58.5038 149.253 58.6362C149.441 58.7813 149.622 58.8945 149.796 58.9802C150.137 59.1471 150.456 59.2095 150.774 59.1991C151.336 59.1809 151.891 58.9341 152.541 58.6362C153.178 58.3442 153.485 57.3636 153.615 56.4569C153.62 56.4186 153.625 56.3805 153.63 56.3426C153.684 55.9193 153.701 55.5194 153.696 55.2226C153.7 55.2271 153.706 55.2316 153.713 55.2361C153.808 55.2927 154.158 55.3379 154.637 55.3357C154.72 55.3353 154.807 55.3335 154.897 55.33C155.219 55.3178 155.581 55.2848 155.955 55.2226C156.148 55.1904 156.337 55.1661 156.521 55.1484C156.524 55.1481 156.527 55.1479 156.53 55.1476C157.008 55.1022 157.454 55.1015 157.847 55.1256C158.532 55.1676 159.058 55.2849 159.318 55.3732C159.317 55.4157 159.316 55.4581 159.315 55.5002C159.304 55.9238 159.287 56.3264 159.264 56.7088C159.221 57.4295 159.157 58.0791 159.074 58.6647C158.994 59.232 158.895 59.7393 158.78 60.1931C158.279 62.1616 157.462 63.1218 156.432 63.606C156.095 63.764 155.559 63.9262 154.894 64.0705C154.428 64.1718 153.898 64.2643 153.329 64.3403C152.716 64.4224 152.058 64.4851 151.386 64.519C150.968 64.5401 150.545 64.55 150.124 64.5462C149.577 64.5414 149.036 64.5138 148.515 64.4582C148.49 64.4556 148.466 64.4529 148.441 64.4502C148.077 64.4093 147.723 64.3545 147.386 64.284C146.914 64.1854 146.474 64.0561 146.081 63.8913C146.078 63.89 146.075 63.8888 146.073 63.8875C145.873 63.8032 145.686 63.7095 145.513 63.606C145.503 63.6 145.493 63.5941 145.483 63.5881C145.4 63.5372 145.318 63.485 145.238 63.4317C144.891 63.199 144.582 62.9432 144.306 62.6664C144.296 62.6562 144.286 62.646 144.276 62.6358C144.068 62.4238 143.878 62.1998 143.705 61.9645C143.462 61.6339 143.25 61.2813 143.063 60.9093C143.045 60.872 143.026 60.8345 143.008 60.7968C142.884 60.541 142.771 60.2763 142.666 60.0036C142.51 59.5951 142.372 59.1686 142.246 58.7268C142.245 58.7219 142.243 58.7169 142.242 58.712C142.148 58.3846 142.061 58.0488 141.977 57.7057C141.976 57.7024 141.975 57.6991 141.974 57.6957C141.868 57.2644 141.766 56.8216 141.662 56.3697C141.659 56.3536 141.655 56.3376 141.651 56.3215C141.593 56.0667 141.533 55.8091 141.472 55.5489C141.45 55.4552 141.429 55.3588 141.41 55.2599C141.32 54.8038 141.259 54.295 141.222 53.7506C141.195 53.3471 141.182 52.9241 141.181 52.4883C141.181 51.9188 141.202 51.3276 141.243 50.73C141.275 50.2528 141.32 49.7716 141.376 49.2941C141.455 48.6119 141.558 47.9374 141.679 47.2933C141.791 46.7 141.919 46.1326 142.061 45.6089C142.129 45.3555 142.201 45.1123 142.275 44.8814C143.334 43.1414 144.761 42.0331 146.301 41.3689L146.317 41.3529C146.759 41.1651 147.21 41.0153 147.663 40.8986C150.349 40.1826 153.147 40.5876 154.815 41.1991C157.607 42.2221 158.282 43.623 159.117 46.4627C159.124 46.4858 159.131 46.509 159.137 46.5325C159.231 46.866 159.306 47.2306 159.364 47.6088L159.362 47.6102C159.439 48.1119 159.486 48.6413 159.512 49.1574L159.515 49.1552C159.531 49.4887 159.538 49.8151 159.538 50.1231C159.54 51.334 159.432 52.2955 159.318 52.3589C159.181 52.4348 157.994 52.4856 156.294 52.5583C155.538 52.5905 154.682 52.6272 153.771 52.6722C153.542 52.6856 153.307 52.699 153.068 52.7126L153.015 52.7156L152.951 52.7191L152.956 52.7142C152.789 52.7232 152.621 52.7325 152.452 52.742C152.016 52.759 151.6 52.7669 151.205 52.7678C151.195 52.7678 151.185 52.7678 151.175 52.7678C150.728 52.7684 150.31 52.76 149.924 52.7455C149.419 52.7265 148.97 52.6969 148.587 52.6633C148.499 52.6556 148.414 52.6477 148.333 52.6396ZM154.187 48.8498H150.638L150.621 48.8508C149.794 48.8984 148.963 48.8681 148.323 48.8023C148.085 48.7778 147.88 48.749 147.715 48.7191C147.806 48.4586 147.944 48.1231 148.1 47.7679C148.442 46.994 148.831 46.227 148.985 46.0022C149.052 45.9043 149.35 45.6589 149.991 45.5054C150.601 45.3592 151.451 45.3165 152.502 45.5384C153.077 45.6597 153.529 46.2322 153.838 47.1306C154.04 47.7201 154.145 48.3531 154.187 48.8498ZM147.351 48.6276C147.351 48.6276 147.356 48.6293 147.364 48.6335C147.355 48.6298 147.351 48.6276 147.351 48.6276ZM153.923 50.0498H155.396L155.409 49.4636C155.415 49.237 155.404 48.94 155.369 48.6035L157.778 46.1945C157.841 46.3848 157.903 46.5867 157.966 46.8013C158.032 47.0258 158.088 47.2729 158.135 47.5345L154.226 51.4434C153.835 51.4667 153.425 51.4904 153 51.5145C152.807 51.5255 152.617 51.5346 152.431 51.542L153.923 50.0498ZM152.62 50.0498H150.923L149.451 51.5221C149.932 51.5491 150.487 51.5673 151.102 51.5679L152.62 50.0498ZM155.615 51.3577C156.269 51.3156 156.849 51.2752 157.343 51.237C157.376 51.2344 157.408 51.2318 157.44 51.2293L158.336 50.3338C158.337 50.2543 158.338 50.1729 158.338 50.0897C158.338 49.6383 158.32 49.1602 158.282 48.691L155.615 51.3577ZM143.284 45.6885C143.097 46.3415 142.931 47.0859 142.793 47.8766L148.78 41.8896C148.762 41.8926 148.743 41.8957 148.725 41.8988C147.889 42.04 147.059 42.293 146.277 42.6953L143.284 45.6885ZM150.213 41.7596L142.571 49.4014C142.532 49.7326 142.499 50.0667 142.471 50.4008C142.447 50.6893 142.428 50.9751 142.413 51.2563L147.553 46.1172C147.372 46.4747 147.176 46.8914 147.003 47.2834C146.83 47.6753 146.669 48.0677 146.562 48.3819L146.561 48.3849L146.562 48.3819C146.669 48.0677 146.83 47.6753 147.003 47.2834C147.341 46.5159 147.77 45.6536 147.993 45.3262C148.228 44.9815 148.654 44.6971 149.181 44.4995C149.175 44.5017 149.169 44.5039 149.164 44.5061L151.832 41.8377C151.317 41.777 150.772 41.7469 150.213 41.7596ZM149.712 44.3384C149.7 44.3412 149.688 44.3441 149.676 44.3471ZM146.548 48.4233L146.547 48.4261L142.382 52.5908C142.385 53.1694 142.413 53.7131 142.465 54.2044L146.921 49.7488C146.934 49.7538 146.945 49.758 146.954 49.7615V49.7615C146.882 49.7347 146.707 49.6672 146.577 49.5187C146.415 49.3342 146.412 49.1199 146.411 49.0641C146.411 48.975 146.423 48.8903 146.436 48.8252C146.46 48.7028 146.501 48.5637 146.548 48.4233ZM142.651 55.3214C142.716 55.5972 142.778 55.8656 142.838 56.1269C142.883 56.3216 142.927 56.5124 142.97 56.6994L146.204 53.4662C146.204 53.3643 146.204 53.2717 146.203 53.1881C146.201 53.0254 146.196 52.8998 146.191 52.8091C146.187 52.7204 146.182 52.6796 146.182 52.6744L146.076 51.8972L142.651 55.3214ZM146.79 51.1831L147.59 51.332C147.733 51.3586 147.955 51.3913 148.246 51.4238L149.597 50.0728C149.09 50.0669 148.612 50.0382 148.201 49.996C148.132 49.9889 148.065 49.9814 147.999 49.9736L146.79 51.1831ZM146.166 54.8072L143.224 57.7483C143.343 58.2104 143.466 58.6482 143.605 59.065L146.351 56.3185C146.225 55.833 146.16 55.326 146.166 54.8072ZM146.692 57.2808L143.965 60.0078C144.14 60.4058 144.337 60.7709 144.566 61.1041L147.318 58.3519C147.074 58.0184 146.864 57.6594 146.692 57.2808ZM147.918 59.055L145.155 61.8178C145.431 62.0955 145.746 62.3435 146.107 62.5628L148.85 59.82C148.74 59.7488 148.63 59.6711 148.52 59.5866C148.308 59.4229 148.107 59.2452 147.918 59.055ZM149.728 60.2447L147.019 62.9541C147.391 63.0677 147.824 63.1592 148.312 63.2251C148.351 63.2304 148.39 63.2355 148.429 63.2404L151.328 60.3421C151.221 60.3616 151.114 60.3768 151.005 60.3867C150.568 60.4261 150.144 60.3799 149.728 60.2447ZM154.757 56.9132L155.151 56.5189C155.035 56.5258 154.923 56.5305 154.815 56.5331C154.799 56.6583 154.779 56.7855 154.757 56.9132ZM156.629 56.3435L149.638 63.335C150.19 63.3556 150.759 63.3491 151.326 63.3205C151.334 63.3201 151.342 63.3197 151.351 63.3193L158.068 56.6016C158.073 56.5186 158.078 56.4345 158.082 56.3491C157.686 56.307 157.186 56.2896 156.629 56.3435ZM157.947 58.0261L152.772 63.2005C153.279 63.142 153.76 63.0691 154.194 62.9877C154.418 62.9458 154.623 62.9027 154.81 62.8596L157.561 60.1086C157.717 59.5511 157.849 58.8674 157.947 58.0261ZM157.427 45.2432C157.241 44.8069 157.047 44.45 156.827 44.1454L154.762 46.2105C154.843 46.3882 154.913 46.5669 154.972 46.7409C155.057 46.987 155.127 47.2379 155.184 47.4855L157.427 45.2432ZM156.204 43.4659L154.281 45.3886C154.039 45.0682 153.743 44.788 153.379 44.5934L155.174 42.7986C155.594 43.0093 155.928 43.2295 156.204 43.4659ZM152.376 44.2936C151.798 44.1971 151.264 44.1685 150.782 44.1912L152.948 42.0242C153.412 42.1254 153.832 42.2484 154.193 42.3806C154.217 42.3893 154.24 42.3979 154.263 42.4065L152.376 44.2936Z" fill="#1C1E21"/>
</svg>
