<svg width="192" height="96" viewBox="0 0 192 96" fill="none" xmlns="http://www.w3.org/2000/svg">
<path fill-rule="evenodd" clip-rule="evenodd" d="M25.5137 42.0587C25.402 42.0465 25.286 42.0319 25.1652 42.0146C24.8914 41.9755 24.5919 41.9652 24.2959 41.9736C23.3884 41.9992 22.5139 42.1998 22.5139 42.2797C22.5139 42.2972 22.506 42.4015 22.4934 42.5679C22.4716 42.8569 22.4355 43.3332 22.402 43.8675C22.3742 44.3093 22.3482 44.7907 22.3333 45.2391C22.3134 45.8353 22.3133 46.373 22.3549 46.6808C22.3627 46.7386 22.3711 46.8085 22.38 46.8895C22.4112 47.172 22.4482 47.5887 22.4842 48.0882C22.5183 48.5626 22.5515 49.1117 22.5779 49.6916C22.5966 50.1011 22.6118 50.5261 22.6215 50.9509C22.6347 51.5283 22.6378 52.1056 22.6255 52.644C22.614 53.15 22.5889 53.6216 22.5458 54.0266C22.5361 54.1179 22.5255 54.2058 22.5139 54.29C22.3798 55.2653 22.1112 56.0388 21.7054 56.5641C21.5812 56.7249 21.4441 56.8625 21.2941 56.9754C20.8685 57.2958 20.3389 57.4183 19.7036 57.3124C19.5866 57.2929 19.4714 57.2763 19.3583 57.26C19.3449 57.2581 19.3315 57.2561 19.3182 57.2542C18.9411 57.1997 18.5883 57.1452 18.2749 56.9946C17.953 56.8399 17.6726 56.5839 17.45 56.1224C17.3254 55.8641 17.2189 55.5414 17.1334 55.1361C17.0467 54.7257 16.9816 54.2305 16.9409 53.6316C16.9153 53.2554 16.8994 52.8383 16.8938 52.3756C16.8911 52.1499 16.8909 51.9133 16.8932 51.6652C16.8965 51.3168 16.8995 50.9857 16.9021 50.6703C16.9061 50.1992 16.9093 49.7634 16.9117 49.3578C16.9154 48.7226 16.9172 48.1615 16.9167 47.6558C16.9161 47.1806 16.9136 46.7542 16.9087 46.3608C16.9011 45.7483 16.8879 45.2159 16.8682 44.7042C16.8521 44.2875 16.8316 43.8846 16.8062 43.4633C16.7792 43.0141 16.7465 42.5442 16.7077 42.0146H13.3936C12.9746 42.0146 12.5539 42.0453 12.1831 42.0864C11.7092 42.1389 11.3168 42.2086 11.1135 42.2532C11.1194 42.5147 11.1255 42.8123 11.1316 43.1379C11.1389 43.5292 11.1461 43.9611 11.1528 44.4197C11.1605 44.9501 11.1674 45.5163 11.1727 46.0967C11.1767 46.5232 11.1797 46.9574 11.1816 47.3908C11.1841 47.9642 11.1846 48.5363 11.1823 49.0872C11.1803 49.5437 11.1765 49.9858 11.1703 50.4021C11.1604 51.0641 11.1447 51.6611 11.1213 52.1482C11.1201 52.1743 11.1188 52.2002 11.1175 52.2257C11.1162 52.2513 11.1149 52.2766 11.1135 52.3015C11.0985 52.5795 11.0832 52.8532 11.0682 53.1227C11.0606 53.2585 11.0531 53.3931 11.0457 53.5267C11.0115 54.1443 10.9799 54.7393 10.9568 55.3127C10.944 55.6291 10.9338 55.939 10.9272 56.2423C10.9241 56.3802 10.9219 56.5168 10.9204 56.652C10.9142 57.2301 10.9232 57.784 10.9547 58.3148C10.979 58.7239 11.0166 59.1194 11.0709 59.5015C11.0841 59.5945 11.0983 59.6867 11.1135 59.7781C11.1755 60.1503 11.2444 60.5405 11.3393 60.9301C11.4207 61.2642 11.5212 61.5979 11.6529 61.9195C11.8093 62.3015 12.0098 62.6665 12.2745 62.995C12.4621 63.2277 12.682 63.4421 12.9413 63.6311C13.2564 63.8608 13.6297 64.053 14.0741 64.1953C14.3947 64.298 14.7522 64.3747 15.1516 64.4208C15.4364 64.4536 15.7423 64.4709 16.0714 64.4709C16.3332 64.4709 16.5868 64.4592 16.8323 64.4372C17.4212 64.3843 17.9628 64.2715 18.4569 64.1155C19.5245 63.7786 20.3704 63.2403 20.9925 62.6703C21.4497 62.2514 21.7861 61.8154 22.0007 61.4296L22.2223 62.7475C22.2286 62.8531 22.2364 62.9781 22.2451 63.1127C22.2493 63.1779 22.2538 63.2454 22.2584 63.314C22.2979 63.8989 22.3502 64.5675 22.3814 64.6299C22.3945 64.6562 22.476 64.6597 22.6194 64.6501C22.727 64.6429 22.8694 64.6283 23.044 64.6104C23.3091 64.5832 23.6482 64.5485 24.052 64.5205C24.4582 64.4923 24.9297 64.4709 25.4568 64.4709H28.1346C28.1696 64.2696 28.2207 63.8674 28.2607 63.3117C28.2885 62.9264 28.3109 62.4673 28.3191 61.9504C28.323 61.707 28.3236 61.4507 28.3202 61.1833C28.3168 60.9138 28.3142 60.6029 28.312 60.2604C28.3118 60.2361 28.3117 60.2116 28.3115 60.187C28.31 59.9488 28.3086 59.696 28.3072 59.432C28.3063 59.2812 28.3055 59.1264 28.3046 58.9688L28.3046 58.9649C28.3015 58.431 28.2978 57.8618 28.2921 57.2803C28.2879 56.8549 28.2827 56.423 28.2758 55.9937C28.2668 55.4288 28.2549 54.8685 28.2391 54.3334C28.226 53.8942 28.2103 53.472 28.1912 53.0783C28.1749 52.7434 28.1562 52.4292 28.1346 52.1425C28.1203 51.9517 28.1081 51.7271 28.0979 51.4745C28.083 51.1046 28.0723 50.675 28.065 50.2045C28.057 49.6843 28.0532 49.1142 28.0527 48.5197C28.0523 48.0936 28.0536 47.6549 28.0562 47.2133C28.0596 46.6406 28.0651 46.0628 28.0721 45.5003C28.0777 45.046 28.0842 44.6017 28.0912 44.1783C28.0967 43.8437 28.1025 43.5222 28.1085 43.2191C28.1138 42.9458 28.1192 42.6874 28.1246 42.4478C28.1251 42.424 28.1256 42.4004 28.1262 42.377C28.129 42.2504 28.1318 42.1294 28.1346 42.0146C27.9655 42.0252 27.8001 42.0393 27.6328 42.0535C27.4846 42.0662 27.335 42.0789 27.18 42.0895C27.099 42.095 27.0166 42.0999 26.9322 42.1038C26.5261 42.1229 26.0736 42.1203 25.5137 42.0587ZM23.5976 43.9748L24.4009 43.1715C24.6142 43.1681 24.8184 43.1772 24.9955 43.2025C25.3507 43.2533 25.6738 43.2835 25.9702 43.2993L23.5213 45.7481C23.5271 45.3196 23.55 44.7809 23.5826 44.2222C23.5875 44.1388 23.5925 44.0562 23.5976 43.9748ZM23.5955 46.9769C23.6351 47.3782 23.6789 47.927 23.718 48.5515L26.8732 45.3962C26.8809 44.7931 26.89 44.2101 26.8997 43.6727L23.5955 46.9769ZM26.8596 46.7128L23.7834 49.789C23.7866 49.8626 23.7896 49.9365 23.7925 50.0107C23.8107 50.4725 23.8245 50.9563 23.8303 51.4392L26.8527 48.4167C26.8526 47.8604 26.8551 47.2857 26.8596 46.7128ZM26.859 49.7134L23.8233 52.7491C23.807 53.3777 23.7699 53.9652 23.7028 54.4534C23.6967 54.4977 23.6903 54.5418 23.6837 54.5858L26.8935 51.376C26.8762 50.8941 26.8652 50.3284 26.859 49.7134ZM26.9637 52.6087L23.1905 56.3819C23.0089 56.7955 22.7792 57.1724 22.4913 57.495C22.1227 57.908 21.6858 58.2016 21.2 58.3724L16.3052 63.2672C17.1079 63.2422 17.8075 63.089 18.406 62.8634L27.0357 54.2338C27.0174 53.648 26.994 53.0968 26.9637 52.6087ZM27.0672 55.5052L22.8818 59.6906L23.1443 61.1252L27.091 57.1785C27.0854 56.6224 27.0778 56.0579 27.0672 55.5052ZM27.1014 58.471L23.3458 62.2266L23.4202 62.676C23.4313 62.8627 23.4471 63.1106 23.4646 63.3636C23.6122 63.3504 23.7724 63.3372 23.9444 63.325L27.1112 60.1583C27.1096 59.917 27.1082 59.6621 27.1068 59.3968C27.1051 59.0999 27.1034 58.7898 27.1014 58.471ZM27.1223 61.4501L25.301 63.2715C25.2485 63.2715 25.3524 63.2711 25.301 63.2715L26.9986 63.2709L27.0653 63.2042C27.0987 62.7341 27.1244 62.138 27.1223 61.4501ZM15.07 63.1995L19.7413 58.5282C19.6635 58.52 19.5852 58.5093 19.5063 58.4961C19.4405 58.4851 19.3612 58.4752 19.2711 58.4638C19.013 58.4314 18.6663 58.3878 18.2945 58.2779L13.8059 62.7665C14.1167 62.9576 14.5239 63.1138 15.07 63.1995ZM13.1303 62.1392L17.4012 57.8683C17.1601 57.7074 16.9293 57.5004 16.726 57.2324C16.6705 57.1593 16.618 57.0832 16.5682 57.0042L12.5943 60.9781C12.7236 61.4192 12.8908 61.8091 13.1303 62.1392ZM12.3548 59.9147L16.1552 56.1142C16.0511 55.8047 15.9692 55.4669 15.9046 55.1016C15.8834 54.9814 15.8637 54.8565 15.8457 54.7268L12.1627 58.4097C12.1912 58.817 12.2348 59.2065 12.2972 59.5809C12.3161 59.6941 12.3352 59.8054 12.3548 59.9147ZM12.1186 57.1509L15.7325 53.537C15.7033 53.0402 15.6898 52.49 15.6918 51.8806L12.154 55.4184C12.1297 56.0293 12.1156 56.6052 12.1186 57.1509ZM12.2194 54.0501L15.7029 50.5665C15.7081 49.9368 15.712 49.3714 15.7143 48.8581L12.3175 52.2549C12.3157 52.2927 12.3137 52.3298 12.3118 52.3663C12.2972 52.6358 12.2826 52.8995 12.2683 53.1577C12.2514 53.4627 12.2349 53.7601 12.2194 54.0501ZM12.3615 50.908L15.7165 47.553C15.7154 46.9157 15.7104 46.3688 15.7009 45.8715L12.3818 49.1907C12.3788 49.7976 12.3723 50.3787 12.3615 50.908ZM12.3833 47.8862L15.6633 44.6062C15.6442 44.1443 15.6195 43.6961 15.5884 43.2146H15.3578L12.3737 46.1987C12.3786 46.755 12.382 47.3237 12.3833 47.8862ZM12.3596 44.9099L14.0549 43.2146H13.3936C13.0297 43.2146 12.6607 43.2413 12.3343 43.277C12.3432 43.7705 12.352 44.3234 12.3596 44.9099Z" fill="#ED6767"/>
<path fill-rule="evenodd" clip-rule="evenodd" d="M37.0429 42.3914C37.0429 42.3914 37.0429 43.2207 37.0445 43.2903C37.0577 43.6213 37.1528 44.2873 37.202 44.5993C37.375 44.4876 37.8111 44.2287 38.3178 43.9343L38.354 43.9133C39.0828 43.4902 39.9467 43.0003 40.3835 42.77C40.7025 42.6018 41.1433 42.4704 41.6554 42.3894C42.012 42.3329 42.4032 42.301 42.8119 42.298C44.499 42.2859 46.4847 42.7685 47.5685 44.0691C48.6555 45.4743 48.3904 52.341 48.2313 53.5606C48.1225 54.3945 48.1609 59.4058 48.2075 62.8588C48.2089 62.9603 48.2103 63.0604 48.2116 63.1591C48.2121 63.192 48.2126 63.2248 48.213 63.2574C48.2192 63.6922 48.2254 64.0965 48.2313 64.4574C48.1262 64.4574 47.9806 64.4591 47.8039 64.4634L47.6968 64.4661C47.5873 64.4715 47.4762 64.4766 47.364 64.4817C46.7618 64.5094 46.1165 64.5391 45.3944 64.6164C45.1221 64.6456 44.852 64.6642 44.5924 64.6749C44.5689 64.6758 44.5455 64.6767 44.5222 64.6776C44.0621 64.6941 43.6376 64.6863 43.2951 64.6692C43.0099 64.655 42.7817 64.6345 42.6371 64.6164C42.6004 64.3649 42.5793 64.0523 42.5688 63.6985C42.5571 63.3066 42.5585 62.8642 42.5662 62.3981C42.5736 61.9495 42.587 61.479 42.6002 61.0106C42.6036 60.8925 42.6069 60.7745 42.6102 60.6571C42.6229 60.1978 42.634 59.7466 42.6379 59.3264C42.64 59.0999 42.6401 58.8824 42.6371 58.6776C42.6317 58.3015 42.6206 57.9736 42.6058 57.6614C42.588 57.2857 42.5647 56.9327 42.5392 56.5458L42.5317 56.4326C42.5019 55.9788 42.4695 55.4727 42.4395 54.8278C42.4223 54.46 42.4059 54.0472 42.3912 53.5731C42.3844 53.3529 42.378 53.1195 42.372 52.8713C42.3638 52.5333 42.3425 52.2301 42.3093 51.958C42.2573 51.5315 42.1762 51.1813 42.0711 50.8932C41.8953 50.4109 41.6522 50.1024 41.3659 49.9014C41.0818 49.7019 40.7551 49.6082 40.4092 49.5551C40.1904 49.5216 39.9639 49.5044 39.7356 49.487L39.6147 49.4777C38.2625 49.3716 37.255 50.2731 36.8839 52.1289C36.5127 53.9848 36.9104 58.2269 37.0429 59.3934C37.149 60.3267 36.8927 63.1582 36.7513 64.4574C36.478 64.7046 36.0451 64.7475 35.5402 64.727C35.5272 64.7265 35.5141 64.7259 35.501 64.7253C35.3196 64.7169 35.1293 64.7009 34.9341 64.6836C34.9097 64.6815 34.8852 64.6793 34.8607 64.6771C34.8397 64.6753 34.8187 64.6734 34.7976 64.6715C34.6435 64.6579 34.487 64.6445 34.33 64.6343C34.1648 64.6236 33.999 64.6164 33.8349 64.6164C33.4465 64.6164 33.0058 64.6421 32.5903 64.677C32.5386 64.6813 32.4873 64.6858 32.4366 64.6904C32.4054 64.6932 32.3744 64.6961 32.3436 64.699C31.8821 64.7426 31.4742 64.794 31.2367 64.8285L31.2366 64.7277C31.2365 64.3984 31.236 64.0253 31.235 63.6172C31.2345 63.4299 31.2339 63.2352 31.2332 63.0341C31.2317 62.6262 31.2298 62.1915 31.2273 61.7371C31.2243 61.1989 31.2206 60.6331 31.2159 60.0514C31.2125 59.6279 31.2086 59.196 31.2041 58.7602C31.1985 58.2042 31.192 57.6419 31.1845 57.0827C31.1788 56.6515 31.1724 56.2221 31.1654 55.7989C31.1561 55.229 31.1456 54.6703 31.1339 54.1334C31.1243 53.6929 31.1138 53.2672 31.1025 52.8619C31.087 52.3095 31.07 51.7952 31.0511 51.3336C31.0495 51.296 31.048 51.2583 31.0466 51.2207C31.0302 50.8004 31.0186 50.3766 31.0111 49.9532C31.001 49.3866 30.9982 48.8208 31.001 48.2662C31.0033 47.8173 31.0092 47.3756 31.0179 46.9465C31.0303 46.3324 31.0486 45.7441 31.0699 45.1973C31.0892 44.7042 31.1109 44.2449 31.1334 43.8309C31.1401 43.7075 31.1469 43.5881 31.1537 43.4731C31.1824 42.9852 31.2114 42.5752 31.2367 42.2662C31.459 42.3161 31.8849 42.3763 32.4304 42.3914C32.9475 42.4058 33.5721 42.3797 34.2326 42.2662C34.8368 42.1624 35.3863 42.0967 35.8429 42.0566C36.2529 42.0205 36.5879 42.0051 36.8202 42.0011C36.9105 41.9995 36.9853 41.9997 37.0429 42.0011V42.3914ZM32.3294 43.9378C32.3011 44.4642 32.274 45.0638 32.2519 45.7124L34.5317 43.4327C34.4999 43.438 34.468 43.4434 34.4359 43.4489C33.8059 43.5572 33.2032 43.5959 32.6722 43.595L32.3294 43.9378ZM35.8483 43.419L32.2161 47.0512C32.2053 47.6057 32.1993 48.1807 32.2001 48.7643L35.9518 45.0126C35.9106 44.5206 35.8639 43.8042 35.8483 43.419ZM35.9482 46.319L32.2132 50.054C32.2213 50.4656 32.2334 50.8771 32.2501 51.2845C32.2555 51.4182 32.2609 51.5562 32.266 51.6983L39.0915 44.8728C38.5284 45.1985 37.6749 45.5995 37.5 45.7124L35.9482 46.319ZM41.6605 43.6068L32.3057 52.9616C32.32 53.4864 32.3328 54.0433 32.3443 54.62L35.938 51.0263C36.1828 50.3076 36.5473 49.68 37.0547 49.1977C37.5062 48.7687 38.0343 48.4903 38.6058 48.3586L43.4449 43.5195C42.7563 43.4668 42.1339 43.5144 41.6605 43.6068ZM44.5717 43.6956L39.9677 48.2996C40.3477 48.3267 40.8691 48.3768 41.391 48.5734L45.8025 44.1618C45.4445 43.9633 45.0278 43.8068 44.5717 43.6956ZM46.5446 44.7227L42.2218 49.0455C42.227 49.0498 42.2323 49.0542 42.2376 49.0586C42.5427 49.3121 42.7872 49.6214 42.9795 49.9848L46.9461 46.0182C46.8927 45.6788 46.8315 45.3951 46.7653 45.1722C46.7284 45.0481 46.6934 44.9547 46.6632 44.8879C46.644 44.8454 46.63 44.8207 46.6231 44.8096C46.5978 44.7801 46.5716 44.7512 46.5446 44.7227ZM47.0806 47.1867L43.337 50.9302C43.4517 51.3724 43.5213 51.8664 43.5538 52.4105L47.1646 48.7997C47.1494 48.2434 47.1223 47.6966 47.0806 47.1867ZM47.1798 50.0874L43.595 53.6722C43.616 54.3182 43.6401 54.8453 43.6648 55.2996L47.1447 51.8196C47.1643 51.3079 47.1782 50.7149 47.1798 50.0874ZM47.0631 53.2042L43.7406 56.5267C43.7758 57.0607 43.8074 57.5512 43.8253 58.139L46.9732 54.9911C46.9836 54.2953 47.0023 53.7048 47.0414 53.4054C47.0483 53.3524 47.0556 53.2849 47.0631 53.2042ZM46.9621 56.3051L43.8368 59.4304C43.8308 59.9535 43.8148 60.5162 43.7992 61.068C43.7982 61.1014 43.7973 61.1347 43.7963 61.168L46.963 58.0013C46.9608 57.4066 46.9603 56.8334 46.9621 56.3051ZM46.9702 59.2971L43.7648 62.5024C43.7596 62.8615 43.7586 63.1916 43.7639 63.4845C43.9855 63.4885 44.2298 63.4875 44.4862 63.4781L46.985 60.9794C46.9792 60.4249 46.9741 59.8583 46.9702 59.2971ZM46.9997 62.2675L45.9041 63.3631C46.2956 63.3308 46.6738 63.3077 47.0134 63.2914C47.0088 62.9656 47.0042 62.6225 46.9997 62.2675ZM35.5972 52.6701L32.3673 55.9C32.3762 56.4514 32.384 57.0124 32.3909 57.5734L35.5296 54.4348C35.5271 53.8166 35.5453 53.2092 35.5972 52.6701ZM35.5595 55.7078L32.4053 58.862C32.4109 59.4338 32.4157 59.9981 32.4197 60.5446L35.6505 57.3138C35.6224 56.9205 35.5965 56.5029 35.5759 56.0777C35.57 55.9559 35.5645 55.8325 35.5595 55.7078ZM35.7486 58.5187L32.4279 61.8394C32.431 62.4282 32.4332 62.9822 32.4346 63.4859C32.4505 63.4845 32.4665 63.4832 32.4825 63.4818L35.8677 60.0966C35.8703 59.8494 35.8649 59.6549 35.8506 59.5289C35.8241 59.2954 35.7875 58.9454 35.7486 58.5187ZM35.8093 61.458L33.8508 63.4165C34.1853 63.4172 34.5129 63.4424 34.7964 63.4669L34.98 63.483C35.1515 63.4981 35.3017 63.5115 35.4439 63.5204L35.6614 63.303C35.7079 62.8052 35.7552 62.2475 35.7928 61.7051C35.7986 61.6214 35.8041 61.5389 35.8093 61.458Z" fill="#ED6767"/>
<path fill-rule="evenodd" clip-rule="evenodd" d="M168.043 41.3914C168.043 41.3914 168.043 42.2207 168.044 42.2903C168.058 42.6213 168.153 43.2873 168.202 43.5993C168.375 43.4876 168.811 43.2287 169.318 42.9343L169.354 42.9133C170.083 42.4902 170.947 42.0003 171.384 41.77C171.703 41.6018 172.143 41.4704 172.655 41.3894C173.012 41.3329 173.403 41.301 173.812 41.298C175.499 41.2859 177.485 41.7685 178.568 43.0691C179.656 44.4743 179.39 51.341 179.231 52.5606C179.123 53.3945 179.161 58.4058 179.208 61.8588C179.209 61.9603 179.21 62.0604 179.212 62.1591C179.212 62.192 179.213 62.2248 179.213 62.2574C179.219 62.6922 179.225 63.0965 179.231 63.4574C179.126 63.4574 178.981 63.4591 178.804 63.4634L178.697 63.4661C178.587 63.4715 178.476 63.4766 178.364 63.4817C177.762 63.5094 177.117 63.5391 176.394 63.6164C176.122 63.6456 175.852 63.6642 175.592 63.6749C175.569 63.6758 175.545 63.6767 175.522 63.6776C175.062 63.6941 174.638 63.6863 174.295 63.6692C174.01 63.655 173.782 63.6345 173.637 63.6164C173.6 63.3649 173.579 63.0523 173.569 62.6985C173.557 62.3066 173.558 61.8642 173.566 61.3981C173.574 60.9495 173.587 60.479 173.6 60.0106C173.604 59.8925 173.607 59.7745 173.61 59.6571C173.623 59.1978 173.634 58.7466 173.638 58.3264C173.64 58.0999 173.64 57.8824 173.637 57.6776C173.632 57.3015 173.621 56.9736 173.606 56.6614C173.588 56.2857 173.565 55.9327 173.539 55.5458L173.532 55.4326C173.502 54.9788 173.469 54.4727 173.439 53.8278C173.422 53.46 173.406 53.0472 173.391 52.5731C173.384 52.3529 173.378 52.1195 173.372 51.8713C173.364 51.5333 173.342 51.2301 173.309 50.958C173.257 50.5315 173.176 50.1813 173.071 49.8932C172.895 49.4109 172.652 49.1024 172.366 48.9014C172.082 48.7019 171.755 48.6082 171.409 48.5551C171.19 48.5216 170.964 48.5044 170.736 48.487L170.615 48.4777C169.263 48.3716 168.255 49.2731 167.884 51.1289C167.513 52.9848 167.91 57.2269 168.043 58.3934C168.149 59.3267 167.893 62.1582 167.751 63.4574C167.478 63.7046 167.045 63.7475 166.54 63.727C166.527 63.7265 166.514 63.7259 166.501 63.7253C166.32 63.7169 166.129 63.7009 165.934 63.6836C165.91 63.6815 165.885 63.6793 165.861 63.6771C165.84 63.6753 165.819 63.6734 165.798 63.6715C165.644 63.6579 165.487 63.6445 165.33 63.6343C165.165 63.6236 164.999 63.6164 164.835 63.6164C164.446 63.6164 164.006 63.6421 163.59 63.677C163.539 63.6813 163.487 63.6858 163.437 63.6904C163.405 63.6932 163.374 63.6961 163.344 63.699C162.882 63.7426 162.474 63.794 162.237 63.8285L162.237 63.7277C162.237 63.3984 162.236 63.0253 162.235 62.6172C162.234 62.4299 162.234 62.2352 162.233 62.0341C162.232 61.6262 162.23 61.1915 162.227 60.7371C162.224 60.1989 162.221 59.6331 162.216 59.0514C162.212 58.6279 162.209 58.196 162.204 57.7602C162.198 57.2042 162.192 56.6419 162.185 56.0827C162.179 55.6515 162.172 55.2221 162.165 54.7989C162.156 54.229 162.146 53.6703 162.134 53.1334C162.124 52.6929 162.114 52.2672 162.102 51.8619C162.087 51.3095 162.07 50.7952 162.051 50.3336C162.05 50.296 162.048 50.2583 162.047 50.2207C162.03 49.8004 162.019 49.3766 162.011 48.9532C162.001 48.3866 161.998 47.8208 162.001 47.2662C162.003 46.8173 162.009 46.3756 162.018 45.9465C162.03 45.3324 162.049 44.7441 162.07 44.1973C162.089 43.7042 162.111 43.2449 162.133 42.8309C162.14 42.7075 162.147 42.5881 162.154 42.4731C162.182 41.9852 162.211 41.5752 162.237 41.2662C162.459 41.3161 162.885 41.3763 163.43 41.3914C163.948 41.4058 164.572 41.3797 165.233 41.2662C165.837 41.1624 166.386 41.0967 166.843 41.0566C167.253 41.0205 167.588 41.0051 167.82 41.0011C167.911 40.9995 167.985 40.9997 168.043 41.0011V41.3914ZM163.329 42.9378C163.301 43.4642 163.274 44.0638 163.252 44.7124L165.532 42.4327C165.5 42.438 165.468 42.4434 165.436 42.4489C164.806 42.5572 164.203 42.5959 163.672 42.595L163.329 42.9378ZM166.848 42.419L163.216 46.0512C163.205 46.6057 163.199 47.1807 163.2 47.7643L166.952 44.0126C166.911 43.5206 166.864 42.8042 166.848 42.419ZM166.948 45.319L163.213 49.054C163.221 49.4656 163.233 49.8771 163.25 50.2845C163.256 50.4182 163.261 50.5562 163.266 50.6983L170.091 43.8728C169.528 44.1985 168.675 44.5995 168.5 44.7124L166.948 45.319ZM172.66 42.6068L163.306 51.9616C163.32 52.4864 163.333 53.0433 163.344 53.62L166.938 50.0263C167.183 49.3076 167.547 48.68 168.055 48.1977C168.506 47.7687 169.034 47.4903 169.606 47.3586L174.445 42.5195C173.756 42.4668 173.134 42.5144 172.66 42.6068ZM175.572 42.6956L170.968 47.2996C171.348 47.3267 171.869 47.3768 172.391 47.5734L176.803 43.1618C176.444 42.9633 176.028 42.8068 175.572 42.6956ZM177.545 43.7227L173.222 48.0455C173.227 48.0498 173.232 48.0542 173.238 48.0586C173.543 48.3121 173.787 48.6214 173.979 48.9848L177.946 45.0182C177.893 44.6788 177.832 44.3951 177.765 44.1722C177.728 44.0481 177.693 43.9547 177.663 43.8879C177.644 43.8454 177.63 43.8207 177.623 43.8096C177.598 43.7801 177.572 43.7512 177.545 43.7227ZM178.081 46.1867L174.337 49.9302C174.452 50.3724 174.521 50.8664 174.554 51.4105L178.165 47.7997C178.149 47.2434 178.122 46.6966 178.081 46.1867ZM178.18 49.0874L174.595 52.6722C174.616 53.3182 174.64 53.8453 174.665 54.2996L178.145 50.8196C178.164 50.3079 178.178 49.7149 178.18 49.0874ZM178.063 52.2042L174.741 55.5267C174.776 56.0607 174.807 56.5512 174.825 57.139L177.973 53.9911C177.984 53.2953 178.002 52.7048 178.041 52.4054C178.048 52.3524 178.056 52.2849 178.063 52.2042ZM177.962 55.3051L174.837 58.4304C174.831 58.9535 174.815 59.5162 174.799 60.068C174.798 60.1014 174.797 60.1347 174.796 60.168L177.963 57.0013C177.961 56.4066 177.96 55.8334 177.962 55.3051ZM177.97 58.2971L174.765 61.5024C174.76 61.8615 174.759 62.1916 174.764 62.4845C174.986 62.4885 175.23 62.4875 175.486 62.4781L177.985 59.9794C177.979 59.4249 177.974 58.8583 177.97 58.2971ZM178 61.2675L176.904 62.3631C177.296 62.3308 177.674 62.3077 178.013 62.2914C178.009 61.9656 178.004 61.6225 178 61.2675ZM166.597 51.6701L163.367 54.9C163.376 55.4514 163.384 56.0124 163.391 56.5734L166.53 53.4348C166.527 52.8166 166.545 52.2092 166.597 51.6701ZM166.559 54.7078L163.405 57.862C163.411 58.4338 163.416 58.9981 163.42 59.5446L166.651 56.3138C166.622 55.9205 166.596 55.5029 166.576 55.0777C166.57 54.9559 166.564 54.8325 166.559 54.7078ZM166.749 57.5187L163.428 60.8394C163.431 61.4282 163.433 61.9822 163.435 62.4859C163.451 62.4845 163.466 62.4832 163.482 62.4818L166.868 59.0966C166.87 58.8494 166.865 58.6549 166.851 58.5289C166.824 58.2954 166.788 57.9454 166.749 57.5187ZM166.809 60.458L164.851 62.4165C165.185 62.4172 165.513 62.4424 165.796 62.4669L165.98 62.483C166.151 62.4981 166.302 62.5115 166.444 62.5204L166.661 62.303C166.708 61.8052 166.755 61.2475 166.793 60.7051C166.799 60.6214 166.804 60.5389 166.809 60.458Z" fill="#F3F6FC"/>
<path fill-rule="evenodd" clip-rule="evenodd" d="M66.3687 41.9008C66.9962 41.873 67.8717 41.915 68.3216 41.9471C68.4834 42.6752 69.0519 46.3757 69.5163 49.398C69.7723 51.0641 69.9967 52.5246 70.1037 53.1668C70.2153 53.8363 70.4101 54.6286 70.6154 55.3686C70.8535 56.2265 71.1056 57.0142 71.2583 57.4589C71.3277 57.2507 71.5197 56.5896 71.7286 55.8438C71.7725 55.6871 71.8171 55.5267 71.8616 55.3659C71.9891 54.9043 72.1147 54.4401 72.2153 54.0542C72.2748 53.8258 72.3256 53.6249 72.3627 53.468C72.4191 53.23 72.5521 52.6338 72.7242 51.8481C72.8325 51.3542 72.9562 50.7853 73.0861 50.1834C73.2365 49.4864 73.3952 48.7451 73.5477 48.0247C73.6691 47.4512 73.7865 46.8909 73.8928 46.3767C74.0807 45.467 74.2336 44.7013 74.3109 44.2615L74.3205 44.2061C74.4556 43.4199 74.6227 42.8629 74.7608 42.5087C74.8484 42.284 74.9244 42.1409 74.9731 42.0727C75.0274 42.0843 75.0935 42.0932 75.1695 42.1C75.4782 42.1272 75.9509 42.1177 76.4696 42.1028C76.5428 42.1007 76.617 42.0985 76.6917 42.0963C77.0808 42.0847 77.4858 42.0727 77.8596 42.0727C77.9733 42.0727 78.0867 42.0718 78.1992 42.0702C78.5197 42.0659 78.8331 42.0564 79.1262 42.0475C79.2305 42.0443 79.3321 42.0412 79.4306 42.0385C79.4664 42.0375 79.5018 42.0365 79.5368 42.0356C80.0497 42.0225 80.4663 42.0216 80.6959 42.0727C80.5632 42.4264 80.4274 42.815 80.2893 43.2329C78.6719 48.1287 76.744 57.0516 75.9269 61.1988L75.1739 64.4618C75.1482 64.4671 75.1219 64.4723 75.0951 64.4773C74.7171 64.5476 74.2251 64.586 73.6646 64.6048C73.142 64.6224 72.56 64.6231 71.9553 64.6171C71.5567 64.6132 71.148 64.6063 70.7404 64.5995L70.6712 64.5983C70.0997 64.5887 69.5308 64.5794 68.9938 64.5786C68.5205 64.5779 68.0719 64.5837 67.668 64.6015C67.5197 64.6081 67.3775 64.6162 67.2423 64.6263C67.1887 64.3136 67.124 63.9335 67.0538 63.5186C66.9941 63.1652 66.9305 62.7866 66.8665 62.403C66.7845 61.9115 66.702 61.4117 66.6263 60.9461C66.5595 60.5351 66.4981 60.1508 66.4472 59.8223C66.3813 59.3966 66.333 59.0646 66.3136 58.8896C66.2995 58.7627 66.2713 58.573 66.2329 58.3395C66.1925 58.0942 66.141 57.8007 66.0829 57.4807C66.0681 57.3994 66.053 57.3164 66.0374 57.232C65.9535 56.7765 65.8595 56.2818 65.7673 55.8051C65.6928 55.4203 65.6196 55.0472 65.5539 54.7156C65.5104 54.4962 65.4702 54.2949 65.4351 54.1206C65.2969 54.8297 65.0439 56.2343 64.8677 57.5052C64.7985 58.004 64.7412 58.4822 64.7072 58.8896C64.5867 60.3354 63.9709 63.2068 63.6781 64.4618C63.5032 64.478 63.2927 64.496 63.058 64.5144C62.6473 64.5467 62.1621 64.5802 61.6624 64.6071C61.0654 64.6391 60.4476 64.6617 59.9112 64.6612C59.6013 64.661 59.3185 64.653 59.0826 64.6348C59.0489 64.6322 59.0161 64.6293 58.9844 64.6263C58.8839 64.6167 58.7781 64.6084 58.6681 64.6014C58.1631 64.569 57.5702 64.5619 57.0046 64.5678C56.5123 64.5729 56.0406 64.5877 55.6654 64.604C55.496 64.6114 55.3463 64.6191 55.2232 64.6263C55.1702 64.311 55.1081 63.9411 55.0397 63.5327L55.0182 63.4045C54.9727 63.1328 54.9246 62.8454 54.8747 62.5469L54.8529 62.4166C54.7751 61.9513 54.6933 61.461 54.6102 60.9622L54.5933 60.8613C54.5425 60.5561 54.4913 60.2481 54.4403 59.9412L54.4243 59.8452C54.3422 59.3509 54.2609 58.8604 54.1831 58.3893C54.1188 58.0002 54.0568 57.6243 53.9988 57.2707C53.9082 56.7188 53.8271 56.221 53.7612 55.8112L53.7562 55.7799C53.7412 55.6867 53.727 55.5981 53.7137 55.5147L53.7094 55.4877C53.6773 55.2856 53.6283 55.0206 53.5654 54.704C53.4871 54.3096 53.387 53.835 53.2707 53.3017C53.1978 52.9675 53.1185 52.6103 53.0342 52.2352C52.9355 51.7961 52.8298 51.3325 52.7193 50.8531C52.6397 50.5078 52.5576 50.1543 52.4738 49.7956C52.3683 49.3436 52.26 48.8835 52.1507 48.4217C52.0676 48.0709 51.9839 47.7192 51.9003 47.3691C51.7901 46.9078 51.68 46.4496 51.5717 46.0007C51.4856 45.6441 51.4005 45.2935 51.3174 44.952C51.2018 44.477 51.0899 44.0197 50.9838 43.5886L50.8791 43.1647C50.826 42.9495 50.7745 42.7423 50.7252 42.5442C50.673 42.3345 50.6231 42.135 50.5759 41.9471C50.7965 41.9525 51.1109 41.9785 51.4685 42.0081C51.5868 42.0178 51.7098 42.028 51.8357 42.038C52.5474 42.0942 53.3511 42.143 53.9142 42.0727C54.0148 42.0601 54.12 42.0496 54.2285 42.0409C54.6516 42.0072 55.1245 42.0014 55.5631 42.0093C56.0906 42.0188 56.5686 42.0481 56.8509 42.0727C57.2274 44.3651 58.0708 49.5524 58.4322 51.962C58.6244 53.2434 58.9245 54.3782 59.2125 55.2567C59.466 56.0302 59.7101 56.6051 59.8629 56.9067C60.0105 56.5378 60.2621 55.8897 60.4852 55.2712C60.52 55.1748 60.5541 55.0792 60.587 54.9854C60.7021 54.6573 60.8025 54.3524 60.8669 54.1206C60.9012 53.9972 60.9741 53.6703 61.075 53.1945C61.1905 52.6498 61.3428 51.9099 61.5161 51.0563C61.6195 50.547 61.7303 49.9972 61.8453 49.4241C61.9826 48.7404 62.1257 48.0237 62.269 47.3034C62.3773 46.7593 62.4856 46.2133 62.5916 45.6779C62.7373 44.9419 62.8787 44.226 63.0092 43.5632C63.125 42.9751 63.2323 42.4288 63.3267 41.9471C63.3614 41.9495 63.3984 41.9518 63.4375 41.9542C63.7362 41.9724 64.1552 41.9919 64.573 41.9994C65.0893 42.0087 65.6038 41.9996 65.8869 41.9471C66.0126 41.9239 66.1794 41.9091 66.3687 41.9008ZM64.116 44.1535C64.1817 43.8204 64.2449 43.4991 64.3049 43.1935C64.4095 43.1965 64.5154 43.1988 64.621 43.2004C64.7621 43.2024 64.9136 43.2035 65.0675 43.202L64.116 44.1535ZM63.7954 45.777L66.4749 43.0975C66.6365 43.0918 66.8376 43.09 67.0692 43.0937C67.1505 43.0949 67.2322 43.0968 67.313 43.0991C67.3498 43.3169 67.3906 43.5641 67.4346 43.8349L63.375 47.8945C63.5161 47.1863 63.658 46.4711 63.7954 45.777ZM63.0494 49.523C62.8974 50.2806 62.7516 51.0025 62.6196 51.6499L67.8438 46.4256C67.7644 45.9143 67.6871 45.4194 67.6142 44.9582L63.0494 49.523ZM68.0184 47.554L62.28 53.2924C62.1556 53.8819 62.065 54.2913 62.0231 54.4418C61.9339 54.7629 61.7869 55.1976 61.6269 55.6426L68.2446 49.0248C68.1702 48.5404 68.0942 48.0455 68.0184 47.554ZM68.4181 50.1543L66.0829 52.6899L66.3849 53.8845L68.6448 51.6247C68.5754 51.1771 68.4989 50.68 68.4181 50.1543ZM68.821 52.7514L66.7903 54.7821C66.8766 55.2206 66.9726 55.714 67.0657 56.204L69.0816 54.1886C69.0188 53.9039 68.9637 53.6262 68.92 53.3641C68.8931 53.2028 68.8597 52.9958 68.821 52.7514ZM69.3365 55.2359L67.27 57.3024C67.3847 57.9369 67.475 58.476 67.5063 58.7571L67.5069 58.7626L69.7108 56.5586C69.588 56.1509 69.4581 55.698 69.3365 55.2359ZM70.0228 57.5496L67.6736 59.8988C67.7412 60.328 67.8232 60.8331 67.9099 61.3596L70.4613 58.8082L70.1234 57.8487C70.0935 57.7617 70.0597 57.6613 70.0228 57.5496ZM72.7988 56.4707L76.5161 52.7534C76.6868 52.0162 76.863 51.2711 77.0427 50.5297L73.4325 54.1399C73.2702 54.7752 73.0176 55.6967 72.7988 56.4707ZM73.821 52.4485L77.4711 48.7983C77.6698 48.0127 77.8709 47.2418 78.0722 46.5002L74.293 50.2794C74.119 51.0864 73.9545 51.8417 73.821 52.4485ZM74.6478 48.6217L78.5831 44.6864C78.7306 44.1835 78.8772 43.7031 79.0218 43.2512C78.7946 43.258 78.5516 43.2647 78.3036 43.2688L75.0978 46.4746C74.9622 47.133 74.807 47.8721 74.6478 48.6217ZM75.4234 44.846L76.9811 43.2883C76.9043 43.2905 76.8271 43.2928 76.7496 43.2951C76.5724 43.3004 76.394 43.3057 76.2158 43.31C76.0713 43.3134 75.9133 43.3169 75.7522 43.3175C75.6708 43.5891 75.5821 43.9503 75.5032 44.4094C75.4825 44.5293 75.4557 44.6762 75.4234 44.846ZM76.1313 54.4411L68.0955 62.4769C68.1477 62.7889 68.1993 63.095 68.2482 63.3841C68.4567 63.3804 68.6716 63.3788 68.8908 63.3786L75.6517 56.6178C75.8027 55.9192 75.9633 55.1893 76.1313 54.4411ZM75.2989 58.2735L70.1824 63.39C70.3802 63.3931 70.5779 63.3964 70.7741 63.3998C70.9976 63.4035 71.2193 63.4073 71.4366 63.4105C71.578 63.4126 71.717 63.4144 71.8536 63.4159L74.8604 60.4091C74.987 59.7768 75.1345 59.0568 75.2989 58.2735ZM74.4919 62.0805L73.156 63.4164C73.5423 63.4108 73.891 63.3987 74.1926 63.3774L74.4919 62.0805ZM64.1582 54.4142L56.0819 62.4905C56.1342 62.803 56.1843 63.1023 56.2313 63.3829C56.4432 63.3768 56.6687 63.3718 56.9006 63.3689L63.8091 56.4604C63.927 55.7037 64.0556 54.9694 64.1582 54.4142ZM63.5962 57.9761L58.1941 63.3783C58.5156 63.3884 58.8236 63.4055 59.0986 63.4317C59.2922 63.4503 59.5348 63.4594 59.8081 63.4614L63.3686 59.9009C63.4351 59.4789 63.4858 59.0968 63.5114 58.79C63.5323 58.5392 63.5614 58.2645 63.5962 57.9761ZM63.0854 61.487L61.1413 63.4311C61.6754 63.4077 62.2221 63.3734 62.7016 63.3381C62.8225 62.7869 62.9588 62.1381 63.0854 61.487ZM55.8954 61.3741L59.1145 58.155L58.7924 57.4489C58.7309 57.3275 58.6593 57.1741 58.5808 56.9916L55.6531 59.9193C55.7344 60.4084 55.816 60.8984 55.8954 61.3741ZM55.4676 58.8018L58.2162 56.0533C58.0819 55.6737 57.9427 55.2406 57.809 54.7634L55.2271 57.3453C55.3027 57.8047 55.3839 58.2963 55.4676 58.8018ZM55.0439 56.2256L57.5451 53.7244C57.4426 53.275 57.349 52.799 57.2704 52.302L54.8009 54.7715C54.8397 54.9757 54.8713 55.1528 54.8945 55.2992C54.9361 55.5602 54.9866 55.8734 55.0439 56.2256ZM54.581 53.6884L57.0976 51.1718C57.0283 50.7238 56.9507 50.2283 56.8679 49.7045L54.2772 52.2952C54.3897 52.7996 54.4921 53.2685 54.581 53.6884ZM54.0372 51.2322L56.6893 48.5801C56.6127 48.0996 56.5339 47.6079 56.455 47.1174L53.7194 49.853C53.8293 50.3254 53.9358 50.7875 54.0372 51.2322ZM53.4723 48.7971L56.274 45.9954C56.1926 45.4919 56.1129 45.0004 56.0372 44.5352L53.1474 47.425C53.2564 47.8826 53.3652 48.342 53.4723 48.7971ZM52.8958 46.3736L55.8547 43.4148C55.8437 43.3475 55.8329 43.2813 55.8222 43.2162C55.3435 43.2007 54.7975 43.1999 54.3363 43.2361L52.5657 45.0067C52.6736 45.451 52.7842 45.9088 52.8958 46.3736ZM52.3103 43.9591L52.9653 43.3042C52.6814 43.2975 52.3992 43.2815 52.1396 43.2638C52.195 43.4885 52.252 43.7207 52.3103 43.9591Z" fill="#F3F6FC"/>
<path fill-rule="evenodd" clip-rule="evenodd" d="M87.4203 41.8492C87.3877 41.8523 87.3545 41.8555 87.3209 41.8588C87.1912 41.8717 87.0547 41.8859 86.9134 41.9007C86.4856 41.9454 86.0132 41.9948 85.549 42.0234C85.3071 42.0383 85.0673 42.0475 84.8374 42.0475V42.0475H82.4528L82.4523 42.1202C82.4485 42.6203 82.4445 43.2003 82.4406 43.8289C82.438 44.2472 82.4355 44.6871 82.4332 45.1392C82.4303 45.6946 82.4277 46.2685 82.4256 46.8439C82.424 47.2812 82.4226 47.7193 82.4216 48.1509C82.4202 48.7356 82.4195 49.3082 82.4196 49.8499C82.4197 50.3094 82.4204 50.7468 82.4218 51.1506C82.4243 51.8217 82.4288 52.4001 82.4359 52.8336C82.4404 53.1072 82.446 53.3231 82.4528 53.468C82.4618 53.6601 82.4687 53.8688 82.4738 54.0987C82.484 54.5613 82.4871 55.1101 82.4861 55.7833C82.4856 56.1747 82.4837 56.6082 82.481 57.0914C82.4793 57.408 82.4773 57.746 82.4751 58.1075C82.4738 58.3289 82.4724 58.5591 82.471 58.7985C82.4686 59.2073 82.4661 59.6432 82.4638 60.1086C82.4612 60.6373 82.4589 61.204 82.457 61.8125C82.4557 62.228 82.4546 62.663 82.4539 63.1185C82.4538 63.1826 82.4537 63.2471 82.4536 63.312C82.4531 63.6973 82.4528 64.0971 82.4528 64.512H84.988C85.133 64.512 85.3494 64.5247 85.6053 64.5396C85.6437 64.5419 85.6829 64.5442 85.723 64.5465C86.1037 64.5685 86.5552 64.592 86.9853 64.5871C87.6177 64.5799 88.204 64.5113 88.4518 64.2861C88.4351 61.0315 88.3865 54.1608 88.3263 52.715C88.2634 51.2051 88.6736 49.66 90.1718 49.2073C90.2545 49.1823 90.3405 49.1607 90.4299 49.1425C90.6594 49.096 90.9114 49.0726 91.1877 49.0755C91.5179 49.0791 91.843 49.0902 92.1615 49.108C92.5744 49.1311 92.9761 49.1656 93.3627 49.2098C93.8831 49.2692 94.3763 49.3461 94.8332 49.4363C95.1102 49.491 95.3738 49.5506 95.622 49.6141C95.6277 49.6156 95.6333 49.617 95.639 49.6185C95.7235 49.6403 95.8063 49.6625 95.8872 49.6852C96.2415 49.7844 96.5597 49.8918 96.8352 50.0042C96.8227 49.6317 96.8094 49.1909 96.7967 48.7103C96.7505 46.9588 96.7124 44.6781 96.7518 43.2448C96.7669 42.6954 96.7934 42.2704 96.8352 42.0475V42.0475C96.6598 42.0382 96.4604 42.0316 96.2409 42.0286C96.0498 42.026 95.8434 42.0262 95.6246 42.0298C95.2765 42.0356 94.8967 42.0502 94.4963 42.0762C94.0375 42.106 93.5515 42.1508 93.0548 42.2147C92.3664 42.3033 91.6573 42.4285 90.9711 42.6013C90.7537 42.656 90.5385 42.7155 90.3271 42.7802C90.1081 42.8471 89.893 42.9196 89.6835 42.9979C89.4376 43.0897 89.1994 43.1897 88.9712 43.2983C88.8184 43.3711 88.6701 43.4477 88.5271 43.5284C88.4924 43.2577 88.4462 42.6761 88.4887 42.1991C88.4975 42.1011 88.51 42.0076 88.5271 41.9221C88.5271 41.8163 88.3081 41.7923 87.9575 41.8081C87.8018 41.8152 87.6202 41.8301 87.4203 41.8492ZM87.4791 44.7904L87.3368 43.681C87.3247 43.5862 87.3094 43.4451 87.2968 43.2757L83.6252 46.9472C83.6232 47.5202 83.6215 48.093 83.6205 48.6489L87.4791 44.7904ZM88.846 44.7264L83.6195 49.9529C83.6198 50.5703 83.6211 51.1441 83.6239 51.6455L91.58 43.6894C90.6546 43.8996 89.7977 44.1892 89.117 44.5734L88.846 44.7264ZM93.1615 43.4109L83.6377 52.9347C83.6416 53.1362 83.6462 53.2976 83.6515 53.4118C83.6672 53.7469 83.6766 54.1316 83.6815 54.588L87.266 51.0035C87.376 50.5052 87.5572 50.0143 87.8381 49.5684C88.379 48.7101 89.2199 48.1296 90.328 47.9415L95.0204 43.2491C94.4485 43.2749 93.8145 43.3253 93.1615 43.4109ZM95.5381 44.0343L91.6864 47.886C92.2308 47.9035 92.7632 47.9401 93.2762 47.9933L95.5408 45.7287C95.5402 45.67 95.5397 45.6116 95.5392 45.5533C95.5348 45.023 95.5339 44.5067 95.5381 44.0343ZM95.5588 47.0137L94.4275 48.1449C94.8339 48.2103 95.2222 48.2862 95.5877 48.3708C95.577 47.937 95.5671 47.4785 95.5588 47.0137ZM87.1202 52.4522L83.6858 55.8866C83.6849 56.3861 83.682 56.9498 83.6783 57.5912L87.1599 54.1096C87.1495 53.5051 87.1386 53.036 87.1273 52.765C87.1231 52.6624 87.1206 52.558 87.1202 52.4522ZM87.1788 55.3936L83.6705 58.9019C83.6675 59.4264 83.6644 59.9935 83.6616 60.6078L87.1979 57.0715C87.1919 56.4801 87.1855 55.9138 87.1788 55.3936ZM87.2103 58.3621L83.6567 61.9157C83.6554 62.3592 83.6543 62.8243 83.6537 63.312H83.9575L87.2243 60.0452C87.2199 59.4861 87.2153 58.9199 87.2103 58.3621ZM87.2338 61.3386L85.2535 63.3189C85.3885 63.3248 85.5369 63.3335 85.682 63.342L85.8064 63.3493C86.1177 63.3672 86.4528 63.3845 86.7775 63.3874C86.8129 63.3877 86.8476 63.3878 86.8817 63.3877L87.2447 63.0248C87.2416 62.4998 87.2379 61.9309 87.2338 61.3386ZM83.6308 45.6387L86.0822 43.1873C85.6698 43.2217 85.2402 43.2475 84.8374 43.2475H84.3249L83.64 43.9324C83.6367 44.4742 83.6336 45.0494 83.6308 45.6387Z" fill="#F3F6FC"/>
<path fill-rule="evenodd" clip-rule="evenodd" d="M102.181 38.1571C102.385 38.2017 102.682 38.2382 103.01 38.2592C103.167 38.2693 103.331 38.2758 103.495 38.278C103.781 38.2817 104.069 38.2725 104.326 38.2461C104.834 38.1939 105.218 38.0746 105.218 37.8559C105.218 37.8202 105.221 37.7732 105.224 37.7146C105.233 37.541 105.247 37.2666 105.218 36.8912C105.197 36.6107 105.167 36.2863 105.134 35.9405C105.059 35.1279 104.972 34.1969 104.963 33.4381L104.962 33.408L104.962 33.3079C104.96 32.8666 104.976 32.4822 105.018 32.2084C104.899 32.2076 104.798 32.2086 104.69 32.2098C104.592 32.2108 104.488 32.2119 104.361 32.2117L104.371 32.2015C104.197 32.1992 104.009 32.1963 103.81 32.1928C103.583 32.1888 103.342 32.1841 103.091 32.1785L103.083 32.1869C102.565 32.1731 101.997 32.155 101.438 32.1342L101.44 32.1322C101.021 32.1178 100.598 32.1011 100.188 32.0817L100.103 32.0777C99.6796 32.0573 99.2705 32.034 98.8933 32.0076C98.9193 32.3108 98.95 32.7279 98.9791 33.2162C99.0421 34.2722 99.0978 35.6612 99.0828 36.9511C99.0779 37.3683 99.0657 37.7752 99.0439 38.1571C99.328 38.1357 99.7374 38.1112 100.174 38.0955L100.249 38.0929C100.559 38.0826 100.879 38.0771 101.175 38.0804C101.277 38.0816 101.376 38.0838 101.47 38.0872L101.485 38.0877C101.767 38.0983 102.012 38.1199 102.181 38.1571ZM101.386 36.8839L103.794 34.4759C103.777 34.1112 103.765 33.7422 103.762 33.3921C103.581 33.3889 103.39 33.3852 103.191 33.381L100.285 36.2878C100.286 36.4898 100.285 36.6914 100.283 36.8912C100.403 36.8875 100.523 36.8846 100.643 36.8826C100.876 36.8786 101.132 36.8774 101.386 36.8839ZM101.921 33.3483L100.261 35.0083C100.244 34.4304 100.218 33.876 100.191 33.3817L100.285 33.2875C100.825 33.3119 101.381 33.332 101.921 33.3483ZM103.955 36.9258C103.928 36.5724 103.896 36.1518 103.865 35.707L102.564 37.008C102.88 37.0573 103.436 37.0956 103.944 37.0714L103.966 37.0703L103.955 36.9258Z" fill="#F3F6FC"/>
<path fill-rule="evenodd" clip-rule="evenodd" d="M103.733 41.8399C103.432 41.8417 103.118 41.8425 102.802 41.8419C101.896 41.84 100.965 41.8264 100.24 41.7914C99.6906 41.7649 99.2589 41.7262 99.0439 41.6711C99.0278 42.0254 99.0095 42.437 98.9902 42.8838C98.9801 43.1183 98.9697 43.3625 98.9591 43.6133C98.9352 44.1815 98.9107 44.7834 98.8874 45.3821C98.8699 45.8317 98.8531 46.2794 98.8379 46.7098L98.837 46.7355C98.8143 47.3761 98.795 47.9774 98.7818 48.4877C98.7675 49.0386 98.7603 49.4833 98.7634 49.7568C98.7678 49.9289 98.7662 49.895 98.7678 49.9289C98.7784 50.1568 98.8047 50.5971 98.8383 51.1614L98.8535 51.416C98.8754 51.7831 98.8995 52.1919 98.9241 52.6221L98.9256 52.6469C98.9552 53.1651 98.9853 53.7135 99.0127 54.2568C99.0326 54.6515 99.0511 55.0435 99.0668 55.4191L99.0702 55.5022C99.0956 56.1204 99.1133 56.691 99.1174 57.1521C99.121 57.5501 99.1145 57.8665 99.0942 58.0613C99.0822 58.1766 99.072 58.3228 99.0632 58.4935L99.0623 58.5101C99.0393 58.9638 99.0256 59.5859 99.0124 60.2572L99.0073 60.5144C99.0006 60.8623 98.9936 61.2191 98.9853 61.5689L98.9849 61.5876C98.9711 62.1639 98.9536 62.7206 98.9272 63.1865C98.924 63.2432 98.9206 63.2985 98.9171 63.3524C98.891 63.7558 98.8569 64.0767 98.8108 64.2616C98.7975 64.315 98.7832 64.3571 98.7678 64.3865H101.604C101.746 64.3865 101.897 64.3893 102.052 64.3937L102.175 64.3974C102.336 64.4027 102.502 64.4093 102.669 64.4159C103.064 64.4316 103.464 64.4475 103.823 64.4462C104.332 64.4444 104.758 64.4083 104.975 64.2887C105.027 64.2596 105.067 64.2255 105.093 64.1857C105.084 63.8884 105.074 63.5592 105.064 63.2054C105.05 62.6973 105.036 62.1383 105.023 61.5494C105.014 61.1474 105.006 60.7315 104.998 60.3083L104.997 60.2721C104.988 59.7216 104.979 59.1593 104.973 58.5997C104.968 58.1833 104.964 57.7685 104.962 57.3612L104.962 57.3075C104.959 56.7187 104.959 56.1465 104.963 55.6091C104.967 55.1841 104.972 54.781 104.981 54.4088L104.984 54.2854C105.004 53.5153 105.037 52.8869 105.087 52.4854L105.093 52.4389C105.136 52.1218 105.169 51.6709 105.195 51.1281L105.197 51.072C105.221 50.5572 105.238 49.9627 105.249 49.3231C105.256 48.9368 105.261 48.5339 105.264 48.1222L105.265 48.0042C105.269 47.4457 105.27 46.8725 105.269 46.3032C105.268 45.883 105.266 45.4649 105.263 45.0565L105.263 45.0067C105.258 44.4187 105.252 43.8515 105.245 43.3278L105.24 43.0215C105.237 42.8158 105.234 42.6181 105.23 42.4298L105.223 42.0464L105.219 41.8217C104.81 41.8296 104.293 41.8365 103.733 41.8399ZM101.244 43.0252L100.139 44.1308C100.155 43.7371 100.171 43.3532 100.187 42.9902C100.511 43.0058 100.87 43.0171 101.244 43.0252ZM100.02 47.2497C100.039 46.6952 100.061 46.0951 100.084 45.4882L102.531 43.041C103.049 43.0434 103.566 43.0417 104.04 43.0377L104.043 43.2265L100.02 47.2497ZM99.9789 48.5935L104.059 44.5139C104.064 45.058 104.067 45.6267 104.069 46.2005L99.9884 50.2811C99.9787 50.1118 99.9712 49.9738 99.9665 49.8731C99.9572 49.6736 99.9631 49.2118 99.9789 48.5935ZM100.061 51.5111L104.068 47.5043C104.066 48.101 104.06 48.6788 104.051 49.2187L100.154 53.1156C100.122 52.5392 100.09 51.9922 100.061 51.5111ZM100.219 54.3534L104.017 50.5551C103.991 51.3047 103.954 51.907 103.904 52.2786C103.9 52.3105 103.895 52.3438 103.891 52.3783L100.289 55.9801C100.272 55.4709 100.247 54.9153 100.219 54.3534ZM100.318 57.2543L103.799 53.773C103.781 54.289 103.77 54.877 103.764 55.5054L100.242 59.0274C100.254 58.667 100.268 58.3754 100.288 58.1856C100.312 57.955 100.32 57.6289 100.318 57.2543ZM100.211 60.3617L103.76 56.8122C103.761 57.1389 103.763 57.4703 103.765 57.8025C103.767 58.033 103.769 58.2652 103.772 58.498L100.172 62.0976C100.178 61.9025 100.183 61.7041 100.187 61.5057C100.195 61.1552 100.202 60.8087 100.208 60.4776L100.211 60.3617ZM100.386 63.1865L103.789 59.7835C103.798 60.3516 103.809 60.9119 103.821 61.449L102.076 63.1939C101.915 63.1894 101.756 63.1865 101.604 63.1865H100.386ZM103.333 63.239L103.851 62.7217C103.855 62.9016 103.86 63.0766 103.865 63.2459C103.822 63.2463 103.777 63.2464 103.731 63.2461C103.604 63.2455 103.471 63.2429 103.333 63.239Z" fill="#F3F6FC"/>
<path fill-rule="evenodd" clip-rule="evenodd" d="M110.5 33.5C111.057 33.4577 111.677 33.5262 112.038 33.5342C112.685 33.52 113.144 33.5573 113.62 33.6428C113.622 33.6431 113.624 33.6435 113.626 33.6439C113.753 33.6668 113.886 33.6906 114.029 33.7144C114.273 33.7551 114.532 33.7771 114.786 33.7865C114.887 33.7902 114.987 33.7919 115.086 33.792C115.593 33.7923 116.049 33.7492 116.288 33.7144C116.279 34.1378 116.273 34.5416 116.267 34.9268C116.19 40.2218 116.345 41.9703 116.438 42.173C116.534 42.173 116.776 42.1645 117.12 42.1499C117.481 42.1345 117.955 42.1124 118.486 42.0866C119.039 42.0598 119.654 42.029 120.272 41.9975C120.737 41.9738 121.204 41.9497 121.646 41.9267C122.211 41.8973 122.736 41.8696 123.165 41.8467C123.193 41.9084 123.22 41.9677 123.245 42.025C123.39 42.3588 123.484 42.6257 123.532 42.9035C123.585 43.2189 123.578 43.5483 123.516 44.0053C123.416 44.7483 123.357 46.5906 123.341 47.4189C123.2 47.4453 122.312 47.4347 121.218 47.4217C121.195 47.4215 121.173 47.4212 121.15 47.4209C121.065 47.4199 120.978 47.4189 120.89 47.4179C120.332 47.4114 119.737 47.4051 119.169 47.4032C118.702 47.4016 118.254 47.403 117.86 47.4097C117.026 47.4238 116.438 47.4614 116.438 47.5444C116.438 47.5831 116.433 47.7513 116.426 48.0171C116.378 49.6483 116.222 54.9546 116.438 56.5302C116.565 56.7812 116.787 57.0009 117.077 57.1926C117.323 57.3556 117.619 57.4985 117.949 57.6233C118.349 57.7746 118.798 57.8994 119.268 58.0016C119.628 58.0799 120.001 58.145 120.374 58.1984C120.898 58.2735 121.422 58.3257 121.91 58.3598C122.368 58.3918 122.795 58.4078 123.161 58.4117C123.222 58.4124 123.283 58.4127 123.341 58.4127C123.441 59.0569 123.662 60.5663 123.742 61.4498C123.823 62.3333 123.508 63.759 123.341 64.3614C123.294 64.3667 123.246 64.3718 123.196 64.3769C122.829 64.4137 122.357 64.4448 121.81 64.4591C121.304 64.4725 120.734 64.4715 120.125 64.4477C119.73 64.4323 119.32 64.4072 118.899 64.3702C118.404 64.3267 117.896 64.2665 117.386 64.186C117.021 64.1283 116.654 64.06 116.29 63.9799C115.836 63.88 115.387 63.7616 114.95 63.6219C114.886 63.6012 114.821 63.5799 114.757 63.5582C114.486 63.467 114.235 63.3705 114 63.2692C113.579 63.087 113.213 62.889 112.895 62.6775C112.619 62.4942 112.38 62.3006 112.171 62.0982C111.862 61.798 111.62 61.4783 111.429 61.1435C111.262 60.8516 111.134 60.5482 111.033 60.2362C110.888 59.7857 110.799 59.3173 110.733 58.8399C110.688 58.5165 110.653 58.189 110.619 57.8601L110.599 57.6706C110.588 57.5666 110.577 57.4626 110.565 57.3585C110.527 57.0291 110.495 56.6009 110.468 56.1046C110.447 55.7242 110.428 55.3038 110.412 54.8574C110.393 54.3355 110.378 53.778 110.365 53.2074C110.356 52.7853 110.348 52.3559 110.341 51.9284C110.332 51.3589 110.326 50.7926 110.322 50.2509C110.318 49.7977 110.315 49.3617 110.314 48.9554C110.314 48.895 110.314 48.8352 110.314 48.7761C110.312 48.3169 110.313 47.8999 110.314 47.5444C110.258 47.5695 109.938 47.6398 109.797 47.6325C109.573 47.6521 109.44 47.6352 109.114 47.6325C109.273 47.637 108.962 47.6313 109.114 47.6325C108.665 47.6146 107.392 47.5672 107.076 47.5444C107.077 47.5271 107.079 47.5097 107.08 47.4924C107.103 47.1887 107.125 46.8919 107.144 46.6035C107.155 46.4304 107.166 46.2604 107.176 46.0937C107.215 45.442 107.243 44.8413 107.262 44.3103C107.275 43.9692 107.284 43.6569 107.29 43.3783C107.293 43.2333 107.296 43.0974 107.298 42.9714C107.303 42.6269 107.304 42.3559 107.302 42.173C107.554 42.2003 107.8 42.2203 108.035 42.2343C108.196 42.2438 108.352 42.2506 108.503 42.255C108.613 42.2582 108.72 42.2602 108.824 42.2611C108.997 42.2627 109.161 42.2612 109.315 42.2575C109.847 42.2448 110.252 42.2057 110.464 42.173C110.264 38.5586 110.416 34.8721 110.5 33.5ZM108.372 46.2009C108.367 46.2711 108.363 46.342 108.358 46.4133C108.55 46.4207 108.743 46.4266 108.929 46.43C109.241 46.4356 109.516 46.4339 109.724 46.4232C109.776 46.4205 109.819 46.4175 109.855 46.4145L115.119 41.1509C115.104 40.8929 115.091 40.5911 115.081 40.2408C115.074 40.0183 115.068 39.7751 115.063 39.5096L108.372 46.2009ZM115.048 38.2216C115.045 37.7136 115.046 37.149 115.05 36.5226L111.579 39.9933C111.592 40.5322 111.612 41.0811 111.638 41.6314L115.048 38.2216ZM109.832 43.4376L108.442 44.827C108.464 44.315 108.479 43.8534 108.489 43.4551C109 43.4695 109.457 43.4591 109.832 43.4376ZM111.557 38.7121L115.063 35.2065C115.064 35.1356 115.065 35.0641 115.066 34.9919C114.668 34.9908 114.239 34.9659 113.831 34.898C113.785 34.8903 113.74 34.8827 113.697 34.8753L111.558 37.0145C111.553 37.5497 111.552 38.1198 111.557 38.7121ZM111.58 35.689L112.573 34.6969C112.549 34.6946 112.525 34.6924 112.501 34.6903C112.265 34.6699 111.985 34.6597 111.612 34.6699C111.6 34.9755 111.59 35.3174 111.58 35.689ZM115.239 42.3337L111.519 46.0535L111.514 47.5485C111.514 47.6157 111.513 47.685 111.513 47.7562L115.819 43.4502L115.349 42.6759C115.293 42.5556 115.259 42.4305 115.239 42.3337ZM117.226 43.3461L111.514 49.0579C111.516 49.5834 111.52 50.1539 111.526 50.7433L119.007 43.2625C118.32 43.2964 117.694 43.326 117.226 43.3461ZM120.379 43.1937L117.351 46.2218C117.375 46.221 117.399 46.2202 117.424 46.2195C117.89 46.2052 118.465 46.2015 119.067 46.2029L122.168 43.1011C121.614 43.1301 120.997 43.1621 120.379 43.1937ZM122.28 44.2927L120.36 46.212C120.66 46.215 120.957 46.2186 121.238 46.2219C121.525 46.2253 121.796 46.2285 122.039 46.2309L122.179 46.0902C122.203 45.4744 122.236 44.8034 122.28 44.2927ZM115.215 48.3573L111.543 52.0295C111.552 52.5904 111.563 53.1517 111.577 53.6926L115.17 50.0994C115.181 49.6093 115.193 49.1581 115.203 48.7742C115.208 48.6245 115.211 48.4849 115.215 48.3573ZM115.144 51.428L111.616 54.9562C111.639 55.5635 111.666 56.1145 111.699 56.5704L115.127 53.1425C115.129 52.5702 115.135 51.9886 115.144 51.4348C115.144 51.4325 115.144 51.4303 115.144 51.428ZM115.133 54.4395L111.816 57.7568C111.876 58.3189 111.928 58.8089 112.017 59.253L115.19 56.0791C115.159 55.6199 115.141 55.0547 115.133 54.4395ZM115.414 57.1588L112.321 60.2514C112.336 60.2848 112.351 60.318 112.367 60.351C112.512 60.6507 112.713 60.9547 113.02 61.2494L116.216 58.0533C115.904 57.8175 115.618 57.5246 115.414 57.1588ZM117.034 58.5385L113.765 61.8078C114.082 61.9969 114.463 62.1775 114.924 62.3454L118.278 58.9919C117.848 58.8708 117.431 58.7244 117.051 58.5466C117.045 58.5439 117.04 58.5412 117.034 58.5385ZM119.332 59.24L115.917 62.655C116.374 62.7769 116.842 62.8767 117.312 62.9577L120.806 59.4635C120.319 59.408 119.82 59.3348 119.332 59.24ZM122.004 59.5686L118.453 63.1195C118.992 63.1805 119.522 63.2198 120.027 63.2425L122.465 60.8049C122.416 60.4087 122.357 59.9774 122.302 59.5853C122.204 59.5805 122.105 59.5749 122.004 59.5686ZM122.546 62.0266L121.305 63.2674C121.695 63.2649 122.055 63.2533 122.373 63.236C122.4 63.1013 122.427 62.9597 122.45 62.8155C122.498 62.5267 122.531 62.2575 122.546 62.0266Z" fill="#F3F6FC"/>
<path fill-rule="evenodd" clip-rule="evenodd" d="M128.424 33.5C128.981 33.4577 129.601 33.5262 129.962 33.5342C130.609 33.52 131.068 33.5573 131.544 33.6428C131.546 33.6431 131.548 33.6435 131.55 33.6439C131.677 33.6668 131.81 33.6906 131.953 33.7144C132.197 33.7551 132.456 33.7771 132.71 33.7865C132.811 33.7902 132.912 33.7919 133.01 33.792C133.517 33.7923 133.973 33.7492 134.212 33.7144C134.204 34.1378 134.197 34.5416 134.191 34.9268C134.114 40.2218 134.269 41.9703 134.362 42.173C134.458 42.173 134.701 42.1645 135.044 42.1499C135.405 42.1345 135.879 42.1124 136.41 42.0866C136.963 42.0598 137.578 42.029 138.196 41.9975C138.662 41.9738 139.128 41.9497 139.57 41.9267C140.135 41.8973 140.66 41.8696 141.089 41.8467C141.117 41.9084 141.144 41.9677 141.169 42.025C141.314 42.3588 141.408 42.6257 141.456 42.9035C141.509 43.2189 141.502 43.5483 141.44 44.0053C141.34 44.7483 141.282 46.5906 141.265 47.4189C141.124 47.4453 140.236 47.4347 139.142 47.4217C139.119 47.4215 139.097 47.4212 139.075 47.4209C138.989 47.4199 138.902 47.4189 138.814 47.4179C138.257 47.4114 137.661 47.4051 137.093 47.4032C136.626 47.4016 136.178 47.403 135.784 47.4097C134.95 47.4238 134.362 47.4614 134.362 47.5444C134.362 47.5831 134.357 47.7513 134.35 48.0171C134.302 49.6483 134.146 54.9546 134.362 56.5302C134.489 56.7812 134.711 57.0009 135.001 57.1926C135.247 57.3556 135.543 57.4985 135.873 57.6233C136.273 57.7746 136.722 57.8994 137.192 58.0016C137.552 58.0799 137.925 58.145 138.298 58.1984C138.822 58.2735 139.346 58.3257 139.834 58.3598C140.292 58.3918 140.719 58.4078 141.085 58.4117C141.147 58.4124 141.207 58.4127 141.265 58.4127C141.365 59.0569 141.586 60.5663 141.666 61.4498C141.747 62.3333 141.432 63.759 141.265 64.3614C141.218 64.3667 141.17 64.3718 141.12 64.3769C140.753 64.4137 140.281 64.4448 139.734 64.4591C139.228 64.4725 138.658 64.4715 138.049 64.4477C137.654 64.4323 137.244 64.4072 136.823 64.3702C136.329 64.3267 135.821 64.2665 135.31 64.186C134.945 64.1283 134.578 64.06 134.214 63.9799C133.76 63.88 133.311 63.7616 132.875 63.6219C132.81 63.6012 132.745 63.5799 132.681 63.5582C132.41 63.467 132.159 63.3705 131.924 63.2692C131.503 63.087 131.137 62.889 130.819 62.6775C130.543 62.4942 130.304 62.3006 130.095 62.0982C129.786 61.798 129.544 61.4783 129.353 61.1435C129.186 60.8516 129.058 60.5482 128.957 60.2362C128.812 59.7857 128.723 59.3173 128.657 58.8399C128.612 58.5165 128.577 58.189 128.543 57.8601L128.523 57.6706C128.512 57.5666 128.501 57.4626 128.489 57.3585C128.452 57.0291 128.419 56.6009 128.392 56.1046C128.371 55.7242 128.352 55.3038 128.336 54.8574C128.317 54.3355 128.302 53.778 128.289 53.2074C128.28 52.7853 128.272 52.3559 128.265 51.9284C128.256 51.3589 128.25 50.7926 128.246 50.2509C128.242 49.7977 128.239 49.3617 128.238 48.9554C128.238 48.895 128.238 48.8352 128.238 48.7761C128.236 48.3169 128.237 47.8999 128.238 47.5444C128.182 47.5695 127.862 47.6398 127.721 47.6325C127.497 47.6521 127.364 47.6352 127.038 47.6325C127.197 47.637 126.886 47.6313 127.038 47.6325C126.589 47.6146 125.316 47.5672 125 47.5444C125.001 47.5271 125.003 47.5097 125.004 47.4924C125.028 47.1887 125.049 46.8919 125.068 46.6035C125.079 46.4304 125.09 46.2604 125.1 46.0937C125.139 45.442 125.167 44.8413 125.186 44.3103C125.199 43.9692 125.208 43.6569 125.214 43.3783C125.218 43.2333 125.22 43.0974 125.222 42.9714C125.227 42.6269 125.228 42.3559 125.226 42.173C125.478 42.2003 125.724 42.2203 125.959 42.2343C126.12 42.2438 126.276 42.2506 126.427 42.255C126.537 42.2582 126.644 42.2602 126.748 42.2611C126.921 42.2627 127.085 42.2612 127.239 42.2575C127.771 42.2448 128.176 42.2057 128.389 42.173C128.188 38.5586 128.34 34.8721 128.424 33.5ZM126.296 46.2009C126.291 46.2711 126.287 46.342 126.283 46.4133C126.474 46.4207 126.667 46.4266 126.853 46.43C127.165 46.4356 127.44 46.4339 127.648 46.4232C127.7 46.4205 127.743 46.4175 127.779 46.4145L133.043 41.1509C133.028 40.8929 133.016 40.5911 133.005 40.2408C132.998 40.0183 132.992 39.7751 132.987 39.5096L126.296 46.2009ZM132.972 38.2216C132.969 37.7136 132.97 37.149 132.974 36.5226L129.503 39.9933C129.517 40.5322 129.536 41.0811 129.562 41.6314L132.972 38.2216ZM127.756 43.4376L126.367 44.827C126.389 44.315 126.403 43.8534 126.413 43.4551C126.924 43.4695 127.381 43.4591 127.756 43.4376ZM129.481 38.7121L132.987 35.2065C132.988 35.1356 132.989 35.0641 132.99 34.9919C132.592 34.9908 132.163 34.9659 131.755 34.898C131.709 34.8903 131.664 34.8827 131.621 34.8753L129.482 37.0145C129.477 37.5497 129.476 38.1198 129.481 38.7121ZM129.505 35.689L130.497 34.6969C130.473 34.6946 130.449 34.6924 130.425 34.6903C130.189 34.6699 129.909 34.6597 129.536 34.6699C129.524 34.9755 129.514 35.3174 129.505 35.689ZM133.163 42.3337L129.443 46.0535L129.438 47.5485C129.438 47.6157 129.437 47.685 129.437 47.7562L133.743 43.4502L133.273 42.6759C133.217 42.5556 133.183 42.4305 133.163 42.3337ZM135.15 43.3461L129.439 49.0579C129.44 49.5834 129.444 50.1539 129.45 50.7433L136.931 43.2625C136.245 43.2964 135.618 43.326 135.15 43.3461ZM138.303 43.1937L135.275 46.2218C135.299 46.221 135.323 46.2202 135.348 46.2195C135.814 46.2052 136.389 46.2015 136.991 46.2029L140.092 43.1011C139.538 43.1301 138.921 43.1621 138.303 43.1937ZM140.204 44.2927L138.285 46.212C138.585 46.215 138.881 46.2186 139.163 46.2219C139.449 46.2253 139.72 46.2285 139.963 46.2309L140.103 46.0902C140.127 45.4744 140.16 44.8034 140.204 44.2927ZM133.139 48.3573L129.467 52.0295C129.476 52.5904 129.487 53.1517 129.501 53.6926L133.094 50.0994C133.105 49.6093 133.117 49.1581 133.127 48.7742C133.132 48.6245 133.136 48.4849 133.139 48.3573ZM133.068 51.428L129.54 54.9562C129.563 55.5635 129.59 56.1145 129.623 56.5704L133.051 53.1425C133.053 52.5702 133.06 51.9886 133.068 51.4348C133.068 51.4325 133.068 51.4303 133.068 51.428ZM133.057 54.4395L129.74 57.7568C129.8 58.3189 129.852 58.8089 129.941 59.253L133.114 56.0791C133.083 55.6199 133.065 55.0547 133.057 54.4395ZM133.338 57.1588L130.245 60.2514C130.26 60.2848 130.275 60.318 130.291 60.351C130.436 60.6507 130.637 60.9547 130.944 61.2494L134.14 58.0533C133.828 57.8175 133.542 57.5246 133.338 57.1588ZM134.958 58.5385L131.689 61.8078C132.006 61.9969 132.387 62.1775 132.848 62.3454L136.202 58.9919C135.772 58.8708 135.355 58.7244 134.975 58.5466C134.97 58.5439 134.964 58.5412 134.958 58.5385ZM137.257 59.24L133.841 62.655C134.298 62.7769 134.766 62.8767 135.236 62.9577L138.73 59.4635C138.243 59.408 137.744 59.3348 137.257 59.24ZM139.928 59.5686L136.377 63.1195C136.917 63.1805 137.447 63.2198 137.951 63.2425L140.389 60.8049C140.34 60.4087 140.281 59.9774 140.226 59.5853C140.128 59.5805 140.029 59.5749 139.928 59.5686ZM140.47 62.0266L139.229 63.2674C139.619 63.2649 139.979 63.2533 140.297 63.236C140.324 63.1013 140.351 62.9597 140.374 62.8155C140.422 62.5267 140.455 62.2575 140.47 62.0266Z" fill="#F3F6FC"/>
<path fill-rule="evenodd" clip-rule="evenodd" d="M149.378 53.1942C149.364 53.1928 149.349 53.1914 149.335 53.1899C148.928 53.1484 148.616 53.1038 148.416 53.0664C148.434 53.2 148.457 53.597 148.446 54.2881C148.441 54.5494 148.432 54.8528 148.416 55.1999C148.366 56.2377 148.673 57.2321 149.231 58.0557C149.402 58.3081 149.596 58.5445 149.811 58.7612C149.964 58.9147 150.126 59.0584 150.298 59.1908C150.486 59.3359 150.667 59.4492 150.841 59.5349C151.182 59.7017 151.501 59.7641 151.819 59.7538C152.381 59.7355 152.936 59.4887 153.586 59.1908C154.223 58.8988 154.53 57.9183 154.66 57.0115C154.665 56.9733 154.67 56.9352 154.675 56.8972C154.729 56.4739 154.746 56.074 154.741 55.7772C154.745 55.7818 154.751 55.7863 154.758 55.7907C154.853 55.8473 155.203 55.8926 155.682 55.8903C155.765 55.8899 155.852 55.8881 155.942 55.8847C156.264 55.8724 156.626 55.8395 157 55.7772C157.193 55.7451 157.382 55.7207 157.566 55.703C157.569 55.7028 157.572 55.7025 157.575 55.7022C158.053 55.6569 158.499 55.6561 158.892 55.6802C159.577 55.7222 160.103 55.8395 160.363 55.9278C160.362 55.9704 160.361 56.0127 160.36 56.0549C160.349 56.4785 160.332 56.881 160.309 57.2635C160.266 57.9842 160.202 58.6337 160.119 59.2193C160.039 59.7867 159.94 60.294 159.825 60.7477C159.324 62.7162 158.507 63.6765 157.477 64.1606C157.14 64.3187 156.604 64.4809 155.939 64.6251C155.473 64.7265 154.943 64.819 154.375 64.8949C153.761 64.977 153.103 65.0398 152.432 65.0736C152.013 65.0947 151.59 65.1046 151.169 65.1009C150.623 65.0961 150.081 65.0684 149.56 65.0128C149.535 65.0102 149.511 65.0075 149.486 65.0048C149.122 64.9639 148.768 64.9091 148.431 64.8387C147.959 64.7401 147.519 64.6108 147.127 64.4459C147.124 64.4447 147.121 64.4434 147.118 64.4422C146.918 64.3578 146.731 64.2642 146.558 64.1606C146.548 64.1547 146.538 64.1487 146.529 64.1427C146.445 64.0918 146.363 64.0397 146.283 63.9863C145.936 63.7536 145.627 63.4978 145.351 63.2211C145.341 63.2109 145.331 63.2007 145.321 63.1904C145.113 62.9784 144.923 62.7544 144.75 62.5192C144.507 62.1886 144.296 61.836 144.109 61.4639C144.09 61.4266 144.071 61.3891 144.053 61.3514C143.929 61.0956 143.816 60.8309 143.711 60.5582C143.555 60.1497 143.417 59.7232 143.291 59.2814C143.29 59.2765 143.288 59.2716 143.287 59.2667C143.193 58.9392 143.106 58.6034 143.022 58.2603C143.021 58.257 143.02 58.2537 143.019 58.2504C142.913 57.819 142.811 57.3762 142.707 56.9243C142.704 56.9083 142.7 56.8922 142.696 56.8762C142.638 56.6214 142.578 56.3637 142.517 56.1035C142.495 56.0098 142.474 55.9134 142.455 55.8146C142.365 55.3584 142.304 54.8497 142.267 54.3052C142.24 53.9018 142.227 53.4787 142.227 53.0429C142.226 52.4734 142.247 51.8822 142.288 51.2846C142.32 50.8074 142.365 50.3262 142.421 49.8487C142.501 49.1665 142.603 48.492 142.725 47.8479C142.836 47.2547 142.965 46.6873 143.106 46.1635C143.174 45.9101 143.246 45.667 143.32 45.436C144.38 43.696 145.806 42.5877 147.346 41.9236L147.362 41.9075C147.804 41.7198 148.255 41.57 148.708 41.4532C151.394 40.7372 154.192 41.1423 155.861 41.7537C158.652 42.7768 159.327 44.1777 160.162 47.0173C160.169 47.0404 160.176 47.0637 160.182 47.0871C160.276 47.4206 160.351 47.7852 160.409 48.1635L160.408 48.1649C160.484 48.6666 160.531 49.1959 160.558 49.712L160.56 49.7098C160.576 50.0433 160.583 50.3697 160.583 50.6777C160.585 51.8886 160.477 52.8501 160.363 52.9136C160.227 52.9895 159.039 53.0402 157.339 53.1129C156.583 53.1452 155.727 53.1818 154.816 53.2269C154.587 53.2402 154.353 53.2537 154.113 53.2672L154.06 53.2702L153.996 53.2737L154.001 53.2689C153.834 53.2778 153.666 53.2871 153.497 53.2967C153.061 53.3136 152.645 53.3215 152.25 53.3224C152.24 53.3224 152.23 53.3224 152.22 53.3225C151.773 53.323 151.355 53.3146 150.969 53.3001C150.464 53.2811 150.015 53.2516 149.632 53.218C149.544 53.2103 149.459 53.2023 149.378 53.1942ZM155.232 49.4044H151.683L151.666 49.4054C150.839 49.453 150.008 49.4227 149.368 49.3569C149.13 49.3324 148.925 49.3037 148.76 49.2737C148.852 49.0132 148.989 48.6777 149.145 48.3225C149.487 47.5487 149.877 46.7817 150.03 46.5568C150.097 46.4589 150.396 46.2135 151.036 46.06C151.647 45.9139 152.496 45.8711 153.547 46.093C154.122 46.2143 154.574 46.7869 154.883 47.6852C155.085 48.2747 155.19 48.9078 155.232 49.4044ZM148.396 49.1822C148.396 49.1822 148.401 49.184 148.409 49.1881C148.4 49.1844 148.396 49.1822 148.396 49.1822ZM154.968 50.6044H156.441L156.455 50.0183C156.46 49.7917 156.449 49.4947 156.414 49.1581L158.823 46.7491C158.886 46.9394 158.948 47.1413 159.011 47.3559C159.077 47.5804 159.133 47.8275 159.18 48.0892L155.271 51.998C154.88 52.0213 154.47 52.045 154.045 52.0692C153.852 52.0801 153.662 52.0892 153.476 52.0966L154.968 50.6044ZM153.665 50.6044H151.968L150.496 52.0767C150.977 52.1038 151.532 52.1219 152.147 52.1225L153.665 50.6044ZM156.66 51.9123C157.314 51.8702 157.894 51.8299 158.388 51.7916C158.421 51.789 158.453 51.7865 158.486 51.7839L159.381 50.8885C159.382 50.809 159.383 50.7275 159.383 50.6443C159.383 50.1929 159.365 49.7149 159.327 49.2456L156.66 51.9123ZM144.329 46.2431C144.142 46.8962 143.976 47.6406 143.838 48.4312L149.825 42.4443C149.807 42.4473 149.788 42.4503 149.77 42.4534C148.934 42.5947 148.104 42.8476 147.322 43.25L144.329 46.2431ZM151.258 42.3142L143.616 49.956C143.577 50.2872 143.544 50.6213 143.516 50.9554C143.492 51.244 143.473 51.5297 143.459 51.8109L148.598 46.6718C148.417 47.0294 148.221 47.4461 148.048 47.838C147.875 48.23 147.714 48.6223 147.607 48.9366L147.606 48.9395L147.607 48.9366C147.714 48.6223 147.875 48.23 148.048 47.838C148.386 47.0705 148.815 46.2082 149.038 45.8808C149.273 45.5361 149.699 45.2517 150.226 45.0542C150.22 45.0563 150.215 45.0585 150.209 45.0607L152.877 42.3923C152.362 42.3316 151.818 42.3015 151.258 42.3142ZM150.757 44.893C150.745 44.8959 150.733 44.8988 150.721 44.9017ZM147.593 48.9779L147.592 48.9807L143.427 53.1455C143.43 53.724 143.458 54.2677 143.51 54.759L147.966 50.3034C147.979 50.3084 147.99 50.3126 147.999 50.3161V50.3161C147.928 50.2894 147.752 50.2218 147.622 50.0733C147.46 49.8889 147.457 49.6745 147.457 49.6187C147.456 49.5296 147.468 49.445 147.481 49.3798C147.505 49.2575 147.546 49.1184 147.593 48.9779ZM143.696 55.8761C143.761 56.1519 143.823 56.4202 143.883 56.6815C143.928 56.8762 143.972 57.067 144.015 57.254L147.249 54.0209C147.249 53.919 147.249 53.8263 147.248 53.7428C147.246 53.5801 147.241 53.4544 147.236 53.3637C147.232 53.275 147.227 53.2342 147.227 53.2291L147.121 52.4518L143.696 55.8761ZM147.835 51.7378L148.635 51.8867C148.778 51.9133 149 51.946 149.291 51.9785L150.642 50.6275C150.135 50.6215 149.657 50.5929 149.246 50.5506C149.177 50.5436 149.11 50.5361 149.044 50.5282L147.835 51.7378ZM147.211 55.3618L144.27 58.3029C144.388 58.765 144.511 59.2029 144.65 59.6196L147.396 56.8732C147.27 56.3876 147.206 55.8806 147.211 55.3618ZM147.737 57.8355L145.01 60.5624C145.185 60.9604 145.382 61.3255 145.611 61.6587L148.363 58.9066C148.119 58.573 147.909 58.2141 147.737 57.8355ZM148.963 59.6096L146.2 62.3725C146.476 62.6501 146.791 62.8981 147.152 63.1174L149.895 60.3746C149.785 60.3035 149.675 60.2257 149.565 60.1412C149.353 59.9776 149.152 59.7998 148.963 59.6096ZM150.773 60.7994L148.064 63.5087C148.436 63.6223 148.869 63.7138 149.357 63.7797C149.396 63.785 149.435 63.7901 149.474 63.795L152.373 60.8967C152.266 60.9163 152.159 60.9315 152.05 60.9413C151.613 60.9808 151.189 60.9345 150.773 60.7994ZM155.802 57.4679L156.196 57.0735C156.081 57.0805 155.968 57.0851 155.861 57.0878C155.844 57.2129 155.824 57.3401 155.802 57.4679ZM157.674 56.8982L150.683 63.8896C151.235 63.9102 151.804 63.9037 152.371 63.8751C152.379 63.8747 152.387 63.8743 152.396 63.8739L159.113 57.1562C159.118 57.0733 159.123 56.9891 159.127 56.9037C158.731 56.8617 158.231 56.8442 157.674 56.8982ZM158.992 58.5807L153.817 63.7551C154.324 63.6966 154.805 63.6237 155.239 63.5424C155.463 63.5005 155.668 63.4574 155.855 63.4143L158.606 60.6633C158.762 60.1058 158.894 59.422 158.992 58.5807ZM158.472 45.7979C158.286 45.3615 158.092 45.0046 157.872 44.7001L155.807 46.7651C155.888 46.9428 155.958 47.1215 156.018 47.2955C156.102 47.5416 156.172 47.7925 156.229 48.0401L158.472 45.7979ZM157.249 44.0206L155.326 45.9432C155.084 45.6228 154.788 45.3426 154.424 45.148L156.219 43.3532C156.639 43.564 156.973 43.7842 157.249 44.0206ZM153.421 44.8482C152.843 44.7517 152.309 44.7232 151.827 44.7458L153.994 42.5789C154.457 42.6801 154.878 42.803 155.238 42.9353C155.262 42.9439 155.285 42.9525 155.308 42.9611L153.421 44.8482Z" fill="#F3F6FC"/>
</svg>
